<?xml version="1.0" standalone="no"?>
<!DOCTYPE svg PUBLIC "-//W3C//DTD SVG 20010904//EN"
 "http://www.w3.org/TR/2001/REC-SVG-20010904/DTD/svg10.dtd">
<svg version="1.0" xmlns="http://www.w3.org/2000/svg"
 width="1000.000000pt" height="1500.000000pt" viewBox="0 0 1000.000000 1500.000000"
 preserveAspectRatio="xMidYMid meet">

<g transform="translate(0.000000,1500.000000) scale(0.100000,-0.100000)"
fill="#000000" stroke="none">
<path d="M4963 14543 c20 -2 54 -2 75 0 20 2 3 4 -38 4 -41 0 -58 -2 -37 -4z"/>
<path d="M4818 14523 c7 -3 16 -2 19 1 4 3 -2 6 -13 5 -11 0 -14 -3 -6 -6z"/>
<path d="M5168 14523 c7 -3 16 -2 19 1 4 3 -2 6 -13 5 -11 0 -14 -3 -6 -6z"/>
<path d="M4705 14487 c-168 -81 -211 -219 -102 -325 42 -41 146 -96 202 -107
17 -3 7 3 -21 14 -102 38 -180 94 -210 152 -51 100 23 214 184 279 26 10 40
19 32 19 -9 1 -47 -14 -85 -32z"/>
<path d="M5242 14500 c301 -122 243 -375 -104 -450 l-43 -9 48 4 c77 8 195 62
248 114 84 83 86 175 4 257 -41 40 -154 104 -184 103 -9 0 5 -9 31 -19z"/>
<path d="M4760 14423 c1 -5 16 -30 35 -58 l34 -50 -37 -13 c-100 -36 -131 -61
-113 -91 7 -10 19 -3 51 28 59 57 81 61 125 22 20 -17 41 -31 48 -31 12 0 -42
49 -55 50 -5 0 -8 5 -8 10 0 6 13 10 28 10 23 0 35 -9 61 -50 34 -52 62 -79
40 -39 -6 13 -24 39 -38 58 l-25 33 58 -6 c53 -5 62 -10 93 -46 19 -22 40 -40
46 -40 7 1 -3 13 -20 29 -39 33 -42 45 -8 39 19 -4 23 -2 15 7 -8 9 -1 20 26
40 19 15 33 30 29 33 -3 3 -22 -11 -43 -31 -36 -35 -62 -47 -62 -28 0 5 16 23
37 40 20 17 31 31 25 31 -6 0 -27 -16 -48 -35 -33 -32 -64 -45 -64 -29 0 4 14
20 30 36 17 15 30 34 30 41 -1 6 -19 -8 -41 -32 -45 -50 -62 -49 -30 2 11 19
21 37 21 41 0 16 -22 -8 -40 -45 -13 -25 -27 -39 -40 -39 -28 0 -25 9 17 52
20 21 32 38 27 38 -6 0 -19 -9 -29 -20 -10 -11 -22 -17 -27 -14 -5 3 1 17 13
30 29 31 20 39 -12 11 -38 -32 -69 -96 -33 -66 14 12 16 11 13 -6 -8 -37 -42
-24 -67 25 -19 40 -63 83 -62 63z"/>
<path d="M5217 14343 c-11 -11 -17 -13 -17 -5 0 20 -17 14 -55 -19 -42 -38
-40 -50 4 -18 33 24 46 22 35 -5 -3 -9 -15 -16 -27 -16 -20 0 -20 0 -1 -21 10
-11 28 -25 39 -30 11 -6 7 1 -10 15 -19 17 -25 26 -15 26 8 0 28 19 44 41 30
42 32 60 3 32z"/>
<path d="M5277 14333 c-20 -14 -37 -30 -37 -34 0 -24 78 -16 95 10 4 8 -2 8
-21 1 -38 -15 -44 -2 -11 26 38 32 21 31 -26 -3z"/>
<path d="M4970 14269 c0 -8 7 -24 15 -35 11 -14 14 -15 14 -4 0 8 -6 24 -14
34 -11 15 -15 16 -15 5z"/>
<path d="M5008 14264 c6 -11 19 -27 28 -35 16 -13 16 -12 6 7 -6 11 -19 27
-28 35 -16 13 -16 12 -6 -7z"/>
<path d="M5217 14271 c-17 -6 -16 -8 8 -19 14 -7 36 -12 48 -11 19 0 18 2 -7
11 -21 8 -25 13 -15 19 12 7 11 9 -1 8 -8 0 -23 -4 -33 -8z"/>
<path d="M5122 14235 c15 -16 30 -26 33 -23 4 3 -9 16 -27 28 l-33 23 27 -28z"/>
<path d="M4853 14043 c9 -2 25 -2 35 0 9 3 1 5 -18 5 -19 0 -27 -2 -17 -5z"/>
<path d="M4953 14033 c26 -2 67 -2 90 0 23 2 2 3 -48 3 -49 0 -68 -1 -42 -3z"/>
<path d="M4410 13895 c0 -43 1 -45 28 -44 23 2 24 2 5 6 -13 2 -23 11 -23 18
0 7 10 16 23 18 l22 4 -22 2 c-33 2 -29 29 5 34 25 4 25 4 -5 6 -33 1 -33 0
-33 -44z"/>
<path d="M4501 13926 c-7 -8 -11 -27 -9 -43 2 -23 8 -29 36 -31 29 -3 32 -1
32 22 0 18 -5 26 -17 25 -11 0 -13 -3 -5 -6 22 -9 13 -33 -13 -33 -21 0 -25 5
-25 30 0 22 6 33 23 40 15 6 17 9 6 9 -9 1 -22 -5 -28 -13z"/>
<path d="M4632 13903 c-2 -35 -6 -42 -24 -46 l-23 -4 23 -2 c27 -1 35 15 29
61 -3 30 -4 30 -5 -9z"/>
<path d="M4708 13930 c13 -6 22 -19 23 -32 1 -18 2 -19 6 -5 6 22 -14 47 -36
46 -11 0 -9 -3 7 -9z"/>
<path d="M4760 13895 c0 -25 4 -45 9 -45 5 0 7 9 4 20 -4 16 0 20 21 20 30 0
36 -26 9 -34 -14 -4 -13 -4 2 -3 19 2 23 25 16 80 -1 4 -14 7 -31 7 -29 0 -30
-2 -30 -45z m55 20 c0 -5 -10 -11 -22 -13 -16 -2 -23 2 -23 13 0 11 7 15 23
13 12 -2 22 -7 22 -13z"/>
<path d="M4860 13932 c0 -6 9 -8 21 -5 12 4 25 0 31 -8 8 -12 9 -11 5 1 -4 17
-57 27 -57 12z"/>
<path d="M4981 13893 c0 -36 3 -43 9 -28 4 11 6 30 3 43 -4 17 -1 22 15 22 11
0 23 -6 25 -12 3 -8 6 -6 6 5 1 12 -7 17 -29 17 -29 0 -30 -1 -29 -47z"/>
<path d="M5077 13933 c-4 -3 -7 -20 -7 -37 0 -17 4 -26 8 -20 4 7 18 14 32 17
25 4 25 4 -2 6 -17 0 -28 7 -28 15 0 8 12 17 28 19 l27 4 -26 2 c-14 0 -29 -2
-32 -6z"/>
<path d="M5160 13928 c0 -9 7 -19 16 -22 15 -6 15 -4 3 11 -7 10 -15 20 -16
22 -2 2 -3 -3 -3 -11z"/>
<path d="M5212 13905 c-2 -30 -5 -36 -12 -25 -5 8 -10 11 -10 5 0 -16 18 -40
25 -33 3 3 5 26 2 49 l-4 44 -1 -40z"/>
<path d="M5250 13896 c0 -44 1 -46 30 -46 24 0 31 5 36 27 9 34 -6 57 -40 61
-25 3 -26 1 -26 -42z m55 -1 c0 -23 -5 -31 -22 -33 -20 -3 -23 1 -23 33 0 32
3 36 23 33 17 -2 22 -10 22 -33z"/>
<path d="M5340 13915 c0 -22 4 -25 33 -24 30 2 30 2 5 6 -16 2 -28 10 -28 18
0 8 12 16 28 18 25 4 25 4 -5 6 -29 1 -33 -2 -33 -24z"/>
<path d="M5448 13933 c12 -2 22 -9 22 -14 0 -6 5 -7 10 -4 21 13 9 25 -22 24
-24 -1 -27 -3 -10 -6z"/>
<path d="M5533 13933 c9 -2 23 -2 30 0 6 3 -1 5 -18 5 -16 0 -22 -2 -12 -5z"/>
<path d="M5603 13924 c-7 -18 4 -31 30 -36 25 -4 17 -23 -10 -23 -13 1 -23 -3
-23 -7 0 -14 58 -9 63 6 7 17 -11 36 -35 36 -10 0 -18 7 -18 16 0 12 7 15 25
12 13 -3 22 -1 19 3 -9 15 -44 10 -51 -7z"/>
<path d="M4332 13893 c-2 -41 -1 -43 26 -42 22 1 23 2 5 6 -17 3 -23 13 -26
41 l-4 37 -1 -42z"/>
<path d="M4674 13890 c1 -26 6 -36 20 -38 10 -2 22 0 28 6 6 6 1 8 -16 5 -22
-5 -25 -1 -29 28 l-4 34 1 -35z"/>
<path d="M5521 13904 c0 -11 3 -14 6 -6 3 7 2 16 -1 19 -3 4 -6 -2 -5 -13z"/>
<path d="M4860 13898 c0 -4 11 -8 25 -8 34 0 32 -27 -2 -33 -27 -5 -27 -5 2
-3 22 1 31 6 33 22 2 17 -3 22 -27 26 -17 3 -31 1 -31 -4z"/>
<path d="M5016 13892 c6 -4 14 -14 17 -22 4 -10 6 -8 6 8 1 15 -5 22 -16 22
-11 0 -14 -3 -7 -8z"/>
<path d="M5548 13893 c7 -3 16 -2 19 1 4 3 -2 6 -13 5 -11 0 -14 -3 -6 -6z"/>
<path d="M5442 13878 c-20 -20 -14 -28 21 -27 31 2 31 2 4 6 -23 4 -26 7 -16
19 14 17 8 19 -9 2z"/>
<path d="M5520 13868 c0 -13 7 -18 28 -17 21 1 22 2 7 6 -11 3 -23 10 -27 17
-5 7 -8 5 -8 -6z"/>
<path d="M5083 13853 c9 -2 25 -2 35 0 9 3 1 5 -18 5 -19 0 -27 -2 -17 -5z"/>
<path d="M5353 13853 c9 -2 25 -2 35 0 9 3 1 5 -18 5 -19 0 -27 -2 -17 -5z"/>
<path d="M4591 13784 c0 -11 3 -14 6 -6 3 7 2 16 -1 19 -3 4 -6 -2 -5 -13z"/>
<path d="M4898 13793 c7 -3 16 -2 19 1 4 3 -2 6 -13 5 -11 0 -14 -3 -6 -6z"/>
<path d="M5031 13784 c0 -11 3 -14 6 -6 3 7 2 16 -1 19 -3 4 -6 -2 -5 -13z"/>
<path d="M5110 13768 c0 -18 4 -28 8 -22 4 6 14 14 22 17 11 4 11 6 -4 6 -12
1 -16 6 -12 16 3 8 1 15 -4 15 -6 0 -10 -15 -10 -32z"/>
<path d="M5308 13793 c6 -2 18 -2 25 0 6 3 1 5 -13 5 -14 0 -19 -2 -12 -5z"/>
<path d="M5423 13765 c0 -22 2 -30 4 -17 2 12 2 30 0 40 -3 9 -5 -1 -4 -23z"/>
<path d="M4713 13780 c2 -8 12 -16 23 -17 13 -2 15 -1 4 4 -8 3 -19 11 -23 17
-6 7 -7 6 -4 -4z"/>
<path d="M5230 13781 c0 -10 19 -25 25 -20 1 2 -3 10 -11 17 -8 7 -14 8 -14 3z"/>
<path d="M4891 13754 c0 -11 3 -14 6 -6 3 7 2 16 -1 19 -3 4 -6 -2 -5 -13z"/>
<path d="M4555 13740 c3 -5 8 -10 11 -10 2 0 4 5 4 10 0 6 -5 10 -11 10 -5 0
-7 -4 -4 -10z"/>
<path d="M4788 13673 c7 -3 16 -2 19 1 4 3 -2 6 -13 5 -11 0 -14 -3 -6 -6z"/>
<path d="M4838 13673 c7 -3 16 -2 19 1 4 3 -2 6 -13 5 -11 0 -14 -3 -6 -6z"/>
<path d="M5228 13673 c7 -3 16 -2 19 1 4 3 -2 6 -13 5 -11 0 -14 -3 -6 -6z"/>
<path d="M5338 13673 c7 -3 16 -2 19 1 4 3 -2 6 -13 5 -11 0 -14 -3 -6 -6z"/>
<path d="M4891 13644 c0 -11 3 -14 6 -6 3 7 2 16 -1 19 -3 4 -6 -2 -5 -13z"/>
<path d="M5128 13653 c7 -3 16 -2 19 1 4 3 -2 6 -13 5 -11 0 -14 -3 -6 -6z"/>
<path d="M4845 13114 c-22 -2 -56 -7 -75 -11 -33 -6 -33 -6 -10 -12 14 -4 25
-13 26 -21 2 -34 5 -40 16 -37 6 1 14 -12 18 -29 8 -37 19 -56 29 -50 14 9 32
-12 37 -44 3 -18 2 -30 -4 -26 -5 3 -7 -6 -4 -20 3 -16 7 -21 12 -14 5 8 9 7
13 -4 3 -8 2 -18 -3 -21 -6 -4 -10 -11 -10 -16 0 -6 5 -7 10 -4 6 3 10 -3 10
-14 0 -11 5 -23 10 -26 6 -4 8 -10 6 -14 -3 -4 1 -25 9 -47 15 -43 19 -100 8
-107 -5 -2 -3 -3 3 -1 6 1 12 -8 12 -22 0 -24 -17 -35 -19 -11 0 6 -7 -9 -16
-35 -10 -32 -20 -45 -29 -41 -8 3 -14 0 -14 -6 0 -6 6 -11 14 -11 8 0 22 -10
30 -22 10 -14 16 -17 16 -8 0 9 7 7 23 -8 13 -12 28 -22 34 -22 7 0 13 -10 15
-22 5 -36 -8 -112 -21 -116 -6 -2 -11 -11 -12 -20 0 -14 -2 -13 -9 3 -5 11 -9
15 -9 10 -1 -6 -21 -12 -46 -13 -32 -1 -44 2 -39 10 4 6 3 8 -3 5 -6 -4 -58 4
-114 17 -133 31 -194 44 -244 52 l-40 7 30 7 c17 4 48 17 70 27 51 25 124 49
197 63 31 6 62 18 68 25 7 8 16 12 21 9 5 -3 9 2 9 11 0 9 -4 13 -10 10 -5 -3
-10 2 -11 12 0 10 -3 13 -6 6 -2 -7 -9 -13 -15 -13 -6 0 -7 8 -4 17 4 10 4 14
0 10 -4 -4 -13 1 -20 11 -8 9 -14 12 -14 5 0 -6 5 -15 10 -18 6 -4 8 -10 5
-15 -3 -5 -14 -1 -24 9 -16 16 -35 17 -169 16 -95 -2 -157 -7 -165 -14 -8 -6
-27 -12 -43 -14 -39 -3 -83 -39 -94 -76 -10 -36 7 -101 27 -101 7 0 13 -4 13
-8 0 -5 9 -19 20 -32 l20 -23 10 27 c5 15 14 25 20 21 11 -7 2 -35 -11 -35 -5
0 -9 -7 -9 -15 0 -8 -5 -15 -11 -15 -5 0 -8 -4 -5 -9 4 -5 0 -11 -6 -14 -10
-3 -8 -8 4 -18 9 -8 24 -37 33 -66 28 -85 117 -153 203 -153 28 0 74 29 66 41
-5 9 9 13 34 10 6 -1 12 3 12 9 0 5 14 10 30 10 25 0 30 4 30 23 -1 22 -1 22
-16 2 -10 -13 -17 -16 -22 -9 -4 7 -41 11 -95 10 -48 -1 -80 2 -70 6 15 5 13
7 -7 7 -18 1 -21 4 -12 10 11 7 11 9 -2 14 -36 14 -11 77 40 103 33 18 37 17
31 0 -9 -24 12 -84 36 -101 30 -21 84 -19 117 5 16 11 31 16 34 11 4 -5 0 -12
-6 -14 -8 -3 -6 -6 5 -6 24 -1 22 -21 -3 -21 -11 0 -20 -4 -20 -8 0 -12 111
-14 124 -3 21 18 106 14 137 -5 6 -3 15 -1 19 5 5 9 15 3 33 -18 24 -29 46
-43 32 -21 -3 6 -1 10 4 10 6 0 11 -3 11 -7 1 -5 5 -27 9 -50 6 -29 5 -44 -3
-47 -7 -3 -7 -5 2 -5 6 -1 12 -10 12 -21 0 -11 4 -20 9 -20 5 0 11 -9 14 -20
3 -11 1 -18 -3 -15 -5 3 -8 -15 -7 -40 1 -25 5 -45 8 -45 3 0 5 -16 3 -36 -1
-20 4 -53 11 -75 10 -26 11 -39 3 -39 -7 0 -6 -5 2 -15 6 -8 13 -34 15 -57 2
-24 4 -45 5 -48 1 -3 1 -9 0 -15 -5 -26 -4 -115 1 -115 4 0 9 -18 11 -40 3
-34 1 -40 -17 -41 -17 -1 -17 -2 -2 -6 23 -6 22 -34 -3 -40 -11 -3 -20 -10
-20 -15 0 -6 9 -8 21 -5 16 4 18 3 9 -8 -7 -8 -17 -13 -23 -12 -7 1 -11 -8
-10 -21 2 -13 -1 -21 -7 -17 -6 3 -10 -1 -10 -9 0 -11 -10 -16 -32 -17 -18 -1
-25 -3 -16 -6 9 -2 16 -13 15 -24 -2 -24 -14 -25 -20 -1 -4 14 -6 14 -12 -5
-4 -13 -11 -20 -16 -17 -5 3 -12 -3 -16 -13 -11 -30 -54 -82 -73 -88 -10 -3
-20 -15 -23 -25 -4 -14 -10 -18 -22 -14 -14 6 -16 3 -11 -14 6 -17 3 -20 -18
-18 -14 2 -27 -2 -30 -9 -3 -8 4 -10 20 -7 14 2 24 0 24 -7 0 -7 -4 -9 -10 -6
-5 3 -15 -3 -22 -15 -7 -11 -19 -20 -26 -20 -20 0 -45 -29 -39 -44 4 -9 -5
-18 -24 -25 -26 -9 -34 -20 -30 -44 0 -4 -2 -6 -6 -5 -5 2 -24 -9 -44 -25 -20
-15 -40 -27 -45 -27 -5 -1 -25 -14 -44 -30 -19 -17 -42 -30 -52 -30 -10 0 -26
-8 -35 -17 -10 -10 -33 -18 -51 -18 -19 0 -36 -3 -38 -6 -2 -4 -16 -5 -31 -3
-16 2 -75 5 -133 6 -97 2 -150 13 -150 31 0 4 -6 7 -13 7 -18 0 -50 40 -53 66
-1 12 -12 41 -24 64 -12 23 -17 39 -11 36 5 -4 12 -2 15 3 4 5 -10 15 -29 21
-29 10 -35 16 -35 40 0 16 -4 32 -10 35 -13 8 -13 25 1 25 22 0 36 -26 31 -58
-6 -47 13 -39 26 11 7 29 10 33 9 13 -2 -33 18 -47 25 -18 5 16 15 18 117 15
92 -3 117 -1 141 13 16 10 27 21 24 26 -3 4 2 8 10 8 8 0 21 6 28 13 7 6 26
19 42 27 16 8 42 27 59 43 16 15 38 27 48 27 26 0 26 50 -1 73 -11 9 -51 21
-88 27 -71 10 -218 54 -239 72 -7 6 -13 7 -13 2 0 -5 -4 -2 -10 6 -7 12 -13
12 -34 1 -29 -16 -88 -8 -106 14 -7 8 -18 15 -25 15 -16 0 -65 -43 -65 -57 0
-6 -12 -14 -26 -17 -15 -4 -32 -13 -39 -19 -14 -14 -10 -70 8 -106 10 -19 8
-25 -8 -37 -12 -9 -21 -11 -23 -4 -2 5 -10 10 -18 10 -8 0 -14 6 -14 14 0 8
-6 16 -13 19 -18 7 -60 91 -59 121 0 14 -4 26 -9 26 -5 0 -5 7 -2 17 4 10 2
14 -4 10 -6 -4 -8 3 -5 20 3 16 1 24 -5 20 -6 -4 -9 4 -6 21 3 22 2 23 -5 7
-8 -18 -9 -17 -14 8 -3 14 -3 29 1 32 8 9 7 49 -1 55 -4 3 -10 29 -13 58 -2
29 -12 63 -21 77 -11 17 -12 25 -4 25 7 0 6 6 -4 16 -9 8 -16 24 -16 35 0 10
-4 19 -8 19 -4 0 -7 20 -6 45 1 25 -2 42 -7 40 -10 -7 -22 54 -23 115 -1 25
-5 48 -9 51 -10 7 8 122 22 146 10 17 10 17 11 1 0 -10 7 -18 15 -18 7 0 18
-7 23 -17 5 -9 16 -14 24 -10 8 3 21 1 28 -3 8 -5 19 -6 25 -2 5 4 28 8 50 8
69 2 145 16 139 26 -3 5 1 20 10 33 19 29 19 32 4 32 -55 2 -158 12 -180 18
-38 10 -57 73 -32 110 9 14 20 25 24 25 5 0 15 3 23 6 13 4 14 -2 10 -33 -4
-32 0 -45 20 -69 24 -29 30 -31 92 -29 36 1 68 5 72 8 3 4 0 21 -8 39 -21 51
-21 62 2 42 10 -9 19 -13 19 -8 1 5 9 -6 18 -24 18 -33 22 -109 7 -132 -5 -8
-3 -11 5 -8 7 2 19 24 27 49 18 59 22 279 5 279 -4 0 -13 12 -19 28 -36 78
-156 172 -221 172 -18 0 -82 50 -65 50 4 0 3 4 -4 8 -17 11 -19 72 -4 100 10
18 10 26 0 38 -9 11 -9 14 1 14 10 0 10 3 1 14 -8 10 -9 16 -1 21 6 3 9 22 6
41 -2 26 1 37 15 45 23 12 25 29 4 29 -22 0 -18 18 6 25 11 4 19 9 17 11 -13
12 -344 -97 -476 -157 -26 -12 -76 -35 -112 -51 -170 -78 -450 -228 -467 -251
-5 -7 -19 -43 -32 -82 -28 -83 -36 -101 -128 -270 -79 -145 -88 -168 -101
-275 -6 -46 -25 -115 -51 -180 -38 -95 -103 -320 -95 -329 6 -6 204 20 261 35
59 15 93 37 93 60 0 7 -14 28 -31 46 -78 84 -51 128 106 168 140 36 515 55
515 26 0 -8 -14 -66 -30 -129 -33 -128 -36 -147 -15 -102 20 45 18 8 -6 -81
-11 -43 -31 -119 -44 -169 -13 -50 -20 -91 -14 -93 5 -2 9 -18 9 -35 0 -41 20
-80 43 -83 21 -3 21 0 1 32 -16 24 -16 27 13 67 32 43 53 57 53 35 0 -7 12
-35 25 -63 14 -27 25 -65 25 -82 0 -18 4 -33 8 -33 9 0 71 -83 90 -121 12 -23
10 -41 -22 -156 -20 -72 -61 -202 -90 -289 -58 -171 -92 -292 -110 -391 l-11
-63 -80 35 -80 35 -22 -27 c-33 -41 -119 -211 -157 -310 -31 -81 -41 -96 -132
-191 -79 -82 -114 -110 -174 -141 -73 -37 -76 -40 -95 -94 -10 -31 -16 -59
-12 -63 11 -12 165 -23 327 -23 233 -1 370 19 595 89 126 39 223 47 385 30
168 -17 179 -12 106 44 -31 25 -93 69 -139 99 -73 49 -106 81 -156 151 -14 19
-12 19 57 13 78 -6 144 -31 200 -75 47 -37 122 -75 192 -97 43 -14 105 -19
288 -22 229 -5 233 -5 251 16 11 12 33 26 50 31 30 8 38 1 32 -32 -1 -11 73
-9 217 6 142 14 363 5 487 -20 44 -8 113 -31 154 -50 106 -49 183 -65 399 -84
62 -5 141 -17 174 -26 59 -17 63 -17 167 7 137 30 312 34 354 6 43 -28 35 -57
-33 -116 -46 -40 -60 -59 -60 -80 0 -57 73 -94 225 -111 89 -11 124 -20 180
-48 91 -44 131 -46 183 -7 72 54 147 117 150 125 2 4 -17 37 -42 72 -24 35
-48 77 -51 93 -4 17 -15 53 -25 80 -22 58 -51 171 -52 200 -1 24 -24 115 -44
170 -8 22 -12 53 -10 70 2 16 -3 35 -10 43 -9 9 -12 23 -7 40 3 15 6 31 6 37
0 16 -54 189 -63 200 -54 71 -170 384 -185 502 -5 34 -36 124 -56 163 -11 19
-19 39 -19 44 0 5 -16 43 -36 84 -57 118 -87 247 -57 240 4 -1 20 2 35 6 24 7
25 10 13 22 -18 19 -39 18 -31 -1 4 -10 -1 -15 -14 -15 -18 0 -20 5 -14 43 8
45 18 57 49 55 17 -1 17 -1 -2 -5 -13 -2 -23 -9 -23 -15 0 -12 78 -2 95 12 23
19 24 -3 2 -26 -17 -18 -31 -22 -57 -20 -19 2 -25 1 -12 -1 12 -2 20 -7 18
-11 -2 -4 12 -7 33 -8 20 -1 28 1 18 3 -16 4 -13 9 14 29 19 13 41 22 50 19
10 -3 20 -1 24 5 7 12 42 14 49 2 2 -4 -3 -8 -12 -9 -47 -5 -83 -17 -94 -31
-11 -14 -10 -14 12 -8 14 5 60 16 103 25 43 9 76 18 74 21 -3 3 28 6 68 7 84
2 145 15 385 83 96 27 211 53 255 59 45 5 94 15 110 21 39 14 125 72 125 84 0
25 -97 204 -143 264 -39 51 -207 332 -207 347 0 1 -29 52 -64 113 -36 61 -84
152 -107 202 -31 67 -47 90 -61 90 -27 0 -35 -29 -57 -222 -23 -195 -44 -305
-66 -348 -33 -63 -40 -49 -145 268 -49 150 -102 302 -118 339 -17 38 -40 110
-53 160 l-24 92 -101 46 c-56 25 -103 45 -105 45 -2 0 -6 -39 -7 -87 -2 -51
-14 -126 -28 -178 -13 -49 -38 -151 -54 -226 -16 -75 -40 -169 -53 -210 l-24
-73 -27 175 c-41 269 -54 335 -127 641 l-21 87 -61 20 c-232 75 -508 133 -798
166 -130 15 -523 27 -604 19z m155 -536 c0 -5 -6 -6 -12 -2 -8 5 -7 0 2 -11
13 -16 13 -18 0 -13 -8 2 -16 14 -18 26 -3 16 1 20 12 16 9 -3 16 -10 16 -16z
m-35 -48 c-3 -5 -14 -10 -23 -9 -14 0 -13 2 3 9 27 11 27 11 20 0z m-1249
-155 c-3 -8 -1 -15 3 -15 5 0 11 5 13 12 6 18 93 10 146 -13 84 -37 92 -42 92
-55 0 -11 -6 -11 -27 -3 -23 9 -136 14 -170 8 -24 -4 -39 3 -48 24 -6 13 -18
21 -30 20 -11 -1 -15 0 -8 3 7 3 9 12 6 20 -3 9 1 14 12 14 11 0 15 -5 11 -15z
m780 -56 c3 -5 -9 -9 -25 -9 -20 0 -31 5 -31 14 0 15 46 11 56 -5z m-512 -64
c28 -28 17 -36 -12 -10 -16 14 -37 32 -48 41 -17 13 -16 13 13 0 17 -9 38 -23
47 -31z m10 29 c3 -8 2 -12 -4 -9 -6 3 -10 10 -10 16 0 14 7 11 14 -7z m471 6
c3 -5 -1 -10 -10 -10 -9 0 -13 5 -10 10 3 6 8 10 10 10 2 0 7 -4 10 -10z m255
-61 c0 -5 -4 -8 -9 -4 -5 3 -12 1 -16 -5 -8 -13 -25 -13 -25 -1 0 8 16 16 43
20 4 0 7 -4 7 -10z m-236 -155 c5 -14 4 -15 -9 -4 -17 14 -19 20 -6 20 5 0 12
-7 15 -16z m2323 -520 c-3 -3 -12 -4 -19 -1 -8 3 -5 6 6 6 11 1 17 -2 13 -5z
m-84 -102 c-18 -5 -27 3 -18 17 4 7 10 7 20 -2 11 -10 11 -13 -2 -15z m-76
-84 c-3 -7 -5 -2 -5 12 0 14 2 19 5 13 2 -7 2 -19 0 -25z m30 -5 c-3 -10 -5
-4 -5 12 0 17 2 24 5 18 2 -7 2 -21 0 -30z m-80 -65 c-3 -8 -6 -5 -6 6 -1 11
2 17 5 13 3 -3 4 -12 1 -19z m129 -34 c-3 -8 -16 -15 -28 -15 -17 -1 -18 -2
-5 -6 21 -5 23 -23 2 -23 -8 0 -15 5 -15 10 0 6 -10 11 -22 11 l-23 2 23 4
c15 3 22 11 22 28 0 14 7 25 18 27 20 5 36 -17 28 -38z m61 -6 c-3 -8 -6 -5
-6 6 -1 11 2 17 5 13 3 -3 4 -12 1 -19z m113 -8 c0 -5 -4 -10 -10 -10 -5 0
-10 5 -10 10 0 6 5 10 10 10 6 0 10 -4 10 -10z m-272 -31 c-3 -8 -7 -3 -11 10
-4 17 -3 21 5 13 5 -5 8 -16 6 -23z m219 -1 c-3 -8 -6 -5 -6 6 -1 11 2 17 5
13 3 -3 4 -12 1 -19z m-240 -10 c-3 -8 -6 -5 -6 6 -1 11 2 17 5 13 3 -3 4 -12
1 -19z m-3322 -33 c-4 -45 -22 -91 -31 -82 -17 16 11 127 31 127 3 0 3 -20 0
-45z m3457 10 c0 -14 -29 -31 -38 -22 -9 8 16 39 28 35 5 -2 10 -8 10 -13z
m198 5 c0 -5 -2 -10 -4 -10 -3 0 -8 5 -11 10 -3 6 -1 10 4 10 6 0 11 -4 11
-10z m-318 -32 c-9 -9 -12 -7 -12 12 0 19 3 21 12 12 9 -9 9 -15 0 -24z m43
22 c-3 -5 -11 -10 -16 -10 -6 0 -7 5 -4 10 3 6 11 10 16 10 6 0 7 -4 4 -10z
m166 -21 c8 0 5 -4 -6 -8 -25 -10 -53 -2 -35 9 7 4 9 14 6 21 -4 8 -1 6 7 -3
8 -10 20 -18 28 -19z m42 11 c3 -11 1 -18 -4 -14 -5 3 -9 12 -9 20 0 20 7 17
13 -6z m-3636 -92 c-3 -8 -6 -5 -6 6 -1 11 2 17 5 13 3 -3 4 -12 1 -19z m238
-103 c38 -106 45 -152 15 -93 -38 72 -94 265 -60 207 5 -9 25 -60 45 -114z
m712 65 c-7 -19 -17 -28 -25 -25 -8 3 -18 5 -23 5 -15 0 -10 27 6 34 10 4 15
-1 16 -17 1 -20 2 -20 6 -2 8 38 13 46 22 41 5 -4 5 -18 -2 -36z m52 1 c1 20
35 31 50 16 8 -8 11 -8 11 1 0 20 26 13 54 -14 14 -15 26 -23 26 -18 0 5 4 3
8 -3 6 -10 17 -8 45 7 44 24 47 24 47 7 0 -15 -70 -42 -91 -35 -8 3 -26 1 -42
-3 -16 -5 -25 -4 -22 2 7 11 1 11 -47 0 -24 -6 -38 -5 -38 1 0 5 -4 6 -10 3
-5 -3 -10 1 -10 10 0 9 -4 13 -10 10 -13 -8 -13 1 2 28 l12 22 7 -25 c4 -14 7
-18 8 -9z m311 20 c0 -8 -30 -24 -39 -21 -2 1 -8 -4 -12 -12 -6 -9 -9 -7 -9 9
0 20 5 23 53 32 4 0 7 -3 7 -8z m-150 -5 c0 -3 -4 -8 -10 -11 -5 -3 -10 -1
-10 4 0 6 5 11 10 11 6 0 10 -2 10 -4z m-866 -32 c3 -8 2 -12 -4 -9 -6 3 -10
10 -10 16 0 14 7 11 14 -7z m440 -9 c-4 -15 -2 -25 5 -25 6 0 11 4 11 10 0 5
7 7 15 4 8 -4 12 -10 9 -15 -3 -5 1 -9 8 -10 7 0 4 -4 -7 -9 -14 -6 -15 -9 -5
-10 8 0 29 -7 45 -15 l30 -13 -40 5 c-81 11 -109 39 -85 84 15 27 22 24 14 -6z
m1233 -547 c-3 -8 -6 -5 -6 6 -1 11 2 17 5 13 3 -3 4 -12 1 -19z m-43 -26 c-6
-4 -10 -24 -10 -44 0 -38 9 -45 54 -39 9 2 12 -14 10 -58 -1 -34 -6 -61 -10
-61 -4 0 -8 5 -8 11 0 5 -5 7 -10 4 -11 -7 12 -35 29 -35 15 0 14 -9 -4 -26
-8 -8 -12 -21 -8 -29 3 -11 1 -13 -10 -9 -8 3 -18 1 -22 -5 -3 -6 1 -11 9 -11
9 0 16 -4 16 -10 0 -5 -7 -10 -16 -10 -13 0 -14 -3 -4 -15 8 -10 10 -27 4 -52
-4 -21 -8 -45 -8 -55 -1 -9 -4 -20 -8 -24 -13 -12 -9 -25 6 -22 8 2 15 -1 15
-7 1 -5 -5 -11 -12 -11 -6 -1 -16 -2 -21 -3 -6 0 -5 -6 1 -12 9 -9 8 -15 -2
-25 -7 -8 -11 -23 -8 -36 5 -17 3 -20 -10 -15 -10 4 -17 2 -17 -3 0 -6 6 -10
14 -10 11 0 14 -10 11 -40 -4 -48 -12 -63 -28 -54 -8 5 -8 3 1 -7 18 -19 15
-34 -4 -18 -13 10 -17 10 -24 -1 -4 -7 -6 -19 -3 -27 3 -8 -2 -13 -16 -13 -23
0 -29 -25 -8 -33 6 -3 -3 -5 -21 -4 -18 0 -28 3 -22 7 7 4 10 16 8 26 -2 14
-12 19 -33 19 -31 0 -56 14 -48 28 4 7 -21 4 -69 -10 -10 -2 -18 0 -18 6 0 6
5 12 10 12 6 1 14 2 19 3 5 0 13 5 18 10 4 5 -4 6 -19 2 -17 -4 -28 -2 -28 4
0 5 5 10 11 10 7 0 9 11 5 28 -3 15 -3 21 0 15 3 -7 12 -13 20 -13 9 0 13 4 9
9 -11 19 19 90 40 94 17 3 15 5 -9 12 -19 5 -31 4 -35 -4 -12 -19 -43 -2 -36
20 4 11 2 19 -4 19 -6 0 -11 -5 -11 -12 0 -9 -3 -9 -12 0 -13 13 6 42 28 42 8
0 14 5 14 10 0 6 -13 10 -28 10 -15 0 -33 5 -40 12 -9 9 -12 9 -12 -1 0 -7 -5
-9 -11 -5 -8 4 -8 9 0 17 17 17 13 27 -11 28 l-23 2 23 4 c12 2 22 12 22 21 0
12 3 13 12 4 19 -19 28 -14 28 12 0 15 7 27 19 31 13 4 18 13 15 28 -2 12 -2
16 2 10 9 -19 26 -15 52 11 20 22 21 26 7 39 -19 19 -20 34 -2 18 8 -6 17 -8
20 -4 4 3 7 -5 7 -18 0 -13 4 -19 8 -13 4 6 14 14 22 17 12 4 12 6 -2 6 -12 1
-15 6 -11 17 3 8 12 13 19 10 28 -11 23 13 -8 40 -28 23 -29 26 -10 22 17 -5
22 -2 22 14 0 11 4 16 11 13 6 -4 8 -13 5 -21 -4 -11 6 -14 47 -12 50 1 50 2
10 5 -24 2 -43 8 -43 14 0 5 11 7 25 3 15 -4 25 -2 25 5 0 6 -7 11 -16 11 -8
0 -12 5 -9 10 9 14 62 12 68 -2 3 -7 6 -4 6 8 1 17 -5 20 -40 19 -23 -1 -44
-7 -50 -15 -7 -12 -9 -12 -9 3 0 11 9 21 20 24 11 3 20 14 20 25 0 13 14 25
43 38 42 20 72 27 51 12z m66 -17 c12 -14 9 -18 -7 -12 -5 1 -7 5 -5 10 4 13
-16 8 -21 -5 -2 -7 -8 -9 -13 -5 -5 4 -2 12 6 17 20 13 26 12 40 -5z m-16 -44
c7 -11 -14 -20 -31 -13 -7 2 -13 8 -13 13 0 12 37 12 44 0z m-354 -251 c0 -5
-7 -10 -16 -10 -8 0 -12 5 -9 10 3 6 10 10 16 10 5 0 9 -4 9 -10z m-63 -42
c-3 -7 -5 -2 -5 12 0 14 2 19 5 13 2 -7 2 -19 0 -25z m420 -43 c0 -8 -4 -15
-9 -15 -4 0 -8 7 -8 15 0 8 4 15 8 15 5 0 9 -7 9 -15z m-394 -92 c-7 -2 -19
-2 -25 0 -7 3 -2 5 12 5 14 0 19 -2 13 -5z m357 -67 c0 -3 -4 -8 -10 -11 -5
-3 -10 -1 -10 4 0 6 5 11 10 11 6 0 10 -2 10 -4z m-300 -16 c0 -5 -2 -10 -4
-10 -3 0 -8 5 -11 10 -3 6 -1 10 4 10 6 0 11 -4 11 -10z m323 -25 c-3 -9 -8
-14 -10 -11 -3 3 -2 9 2 15 9 16 15 13 8 -4z m-323 -11 c0 -8 -5 -12 -10 -9
-6 4 -8 11 -5 16 9 14 15 11 15 -7z m-73 -136 c-3 -8 -6 -5 -6 6 -1 11 2 17 5
13 3 -3 4 -12 1 -19z m100 -14 c-3 -3 -12 -4 -19 -1 -8 3 -5 6 6 6 11 1 17 -2
13 -5z m213 -4 c0 -5 -5 -10 -11 -10 -5 0 -7 5 -4 10 3 6 8 10 11 10 2 0 4 -4
4 -10z m-50 -118 c0 -15 -2 -15 -10 -2 -13 20 -13 33 0 25 6 -3 10 -14 10 -23z
m13 -129 c-7 -2 -19 -2 -25 0 -7 3 -2 5 12 5 14 0 19 -2 13 -5z"/>
<path d="M5116 10387 c3 -10 9 -15 12 -12 3 3 0 11 -7 18 -10 9 -11 8 -5 -6z"/>
<path d="M5185 10300 c3 -5 8 -10 11 -10 2 0 4 5 4 10 0 6 -5 10 -11 10 -5 0
-7 -4 -4 -10z"/>
<path d="M5135 10080 c-3 -5 -1 -10 4 -10 6 0 11 5 11 10 0 6 -2 10 -4 10 -3
0 -8 -4 -11 -10z"/>
<path d="M5042 10044 c-7 -8 -8 -14 -3 -14 10 0 25 19 20 25 -2 1 -10 -3 -17
-11z"/>
<path d="M4850 12936 c0 -9 5 -16 10 -16 6 0 10 4 10 9 0 6 -4 13 -10 16 -5 3
-10 -1 -10 -9z"/>
<path d="M4887 12758 c6 -7 13 -20 16 -28 4 -10 6 -8 6 6 1 12 -6 25 -15 28
-13 5 -14 3 -7 -6z"/>
<path d="M4886 12517 c3 -10 9 -15 12 -12 3 3 0 11 -7 18 -10 9 -11 8 -5 -6z"/>
<path d="M4020 12090 c0 -5 5 -10 10 -10 6 0 10 5 10 10 0 6 -4 10 -10 10 -5
0 -10 -4 -10 -10z"/>
<path d="M2029 11915 c-57 -55 -106 -103 -109 -106 -3 -4 -45 -49 -93 -102
-128 -139 -337 -400 -337 -422 0 -13 278 2 450 24 91 12 196 24 233 27 55 5
67 9 63 21 -3 8 -13 71 -22 141 -26 209 -65 473 -74 496 -7 19 -17 12 -111
-79z"/>
<path d="M3951 11601 c-13 -46 -3 -82 36 -123 14 -14 22 -31 18 -38 -4 -6 -1
-17 5 -25 15 -19 31 -19 24 -2 -5 13 10 16 106 17 19 0 54 8 77 17 39 14 46
14 83 -1 63 -25 107 -21 141 13 21 22 29 39 29 66 0 31 -2 34 -14 23 -7 -8
-16 -23 -20 -34 -6 -20 -9 -20 -59 -8 -28 8 -78 23 -109 35 -34 13 -65 18 -75
14 -15 -6 -87 -9 -140 -6 -21 2 -73 52 -73 72 0 32 -16 21 -29 -20z"/>
<path d="M3231 11359 c-14 -42 -7 -49 9 -9 7 17 10 33 8 36 -3 3 -11 -9 -17
-27z"/>
<path d="M1402 11155 c-65 -74 -223 -346 -326 -560 -103 -215 -216 -512 -270
-712 l-23 -83 92 0 c51 0 134 -3 185 -7 79 -5 92 -4 85 8 -14 24 50 -44 80
-84 15 -21 25 -40 22 -43 -3 -3 -22 -1 -44 5 -54 15 -62 14 -75 -14 -15 -33
-66 -55 -127 -55 -40 0 -55 -5 -73 -24 -25 -26 -60 -39 -155 -57 -35 -6 -63
-16 -63 -21 0 -5 12 -7 28 -4 15 3 61 10 102 17 49 8 85 20 106 35 17 13 46
26 65 30 19 3 69 17 112 32 l78 26 62 -21 c48 -16 67 -28 84 -54 12 -19 32
-47 44 -62 21 -27 21 -32 10 -97 -10 -56 -16 -68 -31 -67 -9 0 -38 -10 -63
-23 -41 -22 -50 -23 -80 -12 -47 17 -77 15 -116 -8 -25 -16 -43 -20 -75 -15
-27 4 -60 0 -96 -12 -47 -15 -55 -22 -56 -43 -1 -33 -42 -77 -80 -86 -34 -8
-71 -34 -129 -90 l-43 -41 -8 -139 c-5 -77 -8 -236 -8 -354 5 -706 154 -1352
464 -2012 15 -31 31 -35 49 -14 6 8 33 19 59 26 57 14 72 26 72 55 0 29 27 40
138 56 83 11 95 11 127 -4 33 -16 38 -16 66 -1 28 14 34 14 70 0 52 -21 49
-21 107 19 28 19 72 39 97 45 25 6 70 26 99 46 31 20 72 38 96 41 62 9 147
-15 173 -48 12 -15 51 -39 85 -54 55 -23 68 -24 98 -15 19 6 34 18 34 26 0 17
-72 53 -175 88 -130 43 -143 61 -33 46 37 -6 90 -20 118 -33 49 -23 55 -23
123 -11 147 26 153 25 267 -68 109 -89 112 -91 210 -137 41 -19 94 -56 143
-101 42 -40 77 -68 77 -63 -1 10 -35 72 -75 136 -18 28 -37 47 -48 47 -10 0
-36 12 -57 28 -35 24 -40 33 -45 82 -5 38 -17 71 -41 108 -19 28 -31 52 -26
52 13 0 66 -61 92 -105 51 -86 123 -165 159 -175 19 -5 51 -26 71 -45 32 -31
43 -36 75 -33 l37 3 -22 28 c-34 43 -12 47 23 4 31 -36 34 -37 98 -37 73 0 79
3 187 96 73 63 152 85 227 64 52 -15 135 -7 210 20 188 67 265 80 331 55 l46
-18 -6 -56 c-3 -31 -10 -135 -16 -231 -6 -96 -14 -191 -18 -210 l-8 -35 -89
-6 c-74 -5 -107 -14 -185 -47 -151 -63 -343 -119 -455 -132 -166 -18 -150 -7
-163 -113 -10 -81 -16 -98 -50 -147 -21 -30 -46 -76 -56 -102 -15 -42 -21 -47
-56 -53 -31 -5 -48 -17 -81 -56 -24 -29 -49 -49 -61 -49 -17 0 -172 64 -187
76 -2 2 3 12 12 22 25 27 21 38 -20 59 -34 18 -38 25 -41 61 -2 32 0 42 12 42
9 0 16 -12 18 -32 3 -29 7 -33 38 -38 48 -8 60 -17 76 -56 15 -36 43 -45 64
-19 20 24 7 47 -39 72 -25 13 -47 26 -50 30 -12 12 55 -9 103 -33 55 -27 76
-21 56 17 -11 19 -10 24 6 36 10 7 22 13 28 13 6 0 6 4 -1 11 -6 6 -51 13
-100 16 -48 3 -95 9 -104 14 -28 14 -49 74 -49 138 0 48 -4 65 -20 81 -33 33
-65 25 -117 -30 -26 -27 -53 -50 -61 -50 -8 0 -30 16 -49 35 -20 20 -38 33
-41 30 -4 -3 -18 -27 -32 -53 -30 -55 -62 -75 -96 -60 -13 6 -24 14 -24 18 0
13 -77 90 -89 90 -7 0 -33 -20 -57 -45 -25 -26 -57 -48 -74 -51 -49 -10 -52
-7 115 -119 54 -37 105 -74 111 -83 6 -9 17 -41 24 -72 22 -104 45 -163 73
-192 38 -38 156 -107 203 -119 73 -18 111 -41 148 -85 59 -70 152 -107 361
-143 98 -17 104 -19 55 -20 -178 -3 -377 45 -535 127 -188 98 -279 183 -379
354 -46 79 -97 148 -157 213 -49 54 -94 106 -99 116 -18 33 -169 65 -185 39
-6 -10 45 -40 70 -40 8 0 15 -5 15 -11 0 -18 -74 -4 -149 26 -74 30 -81 30
-211 -17 -52 -19 -104 -32 -115 -30 -17 3 -15 -1 10 -28 51 -55 176 -155 265
-212 97 -63 156 -94 255 -133 100 -40 126 -58 268 -191 238 -221 374 -303 597
-360 141 -36 133 -41 -35 -19 -264 35 -551 98 -769 169 -60 20 -110 36 -113
36 -2 0 13 -15 34 -32 21 -18 40 -35 43 -38 40 -43 307 -240 419 -310 l84 -52
141 17 c146 17 287 43 391 71 51 14 72 15 140 6 161 -23 262 -45 453 -98 278
-77 304 -85 299 -90 -9 -10 -185 18 -307 47 -315 77 -421 87 -610 59 -80 -12
-215 -27 -300 -34 l-155 -11 92 -52 c279 -159 466 -239 670 -288 199 -48 288
-59 488 -59 203 0 347 20 480 66 125 43 450 170 460 179 5 5 16 9 25 9 8 0 74
29 146 64 150 73 188 107 254 224 74 133 122 216 149 257 45 68 45 68 30 60
-24 -14 -102 -77 -154 -124 l-50 -46 -3 43 c-2 23 -7 42 -12 42 -6 0 -27 -26
-47 -57 -36 -53 -38 -55 -41 -30 -5 38 23 127 52 170 23 33 23 37 7 37 -29 0
-33 13 -10 31 21 16 21 16 -19 36 -32 16 -43 17 -57 7 -9 -7 -53 -22 -98 -34
-45 -12 -101 -33 -124 -47 -27 -16 -50 -22 -63 -18 -11 3 -35 1 -54 -6 -24 -9
-42 -10 -57 -3 l-21 10 26 31 c31 37 32 47 6 73 -13 13 -33 20 -59 20 -37 0
-40 2 -43 33 l-3 32 -72 -73 c-40 -40 -77 -70 -83 -67 -6 4 -8 21 -5 38 3 18
7 58 8 90 4 69 1 70 -92 22 -37 -19 -78 -35 -92 -35 -18 0 -35 -14 -63 -51
-34 -46 -64 -102 -64 -121 -1 -4 3 -21 8 -38 12 -42 -12 -119 -49 -154 -42
-40 -132 -54 -253 -38 -115 14 -171 33 -264 88 -62 37 -168 80 -239 98 -11 3
14 3 55 0 47 -3 71 -2 65 4 -26 24 -143 120 -170 138 -16 12 -59 33 -95 47
-44 18 -57 27 -40 27 41 0 163 -64 294 -154 217 -149 313 -189 461 -190 114
-1 145 11 198 77 l31 38 -37 30 c-38 31 -63 93 -53 129 4 11 9 30 12 42 6 20
4 21 -50 14 -64 -7 -70 2 -38 56 13 23 14 32 5 35 -38 13 2 66 80 108 43 23
46 32 12 41 -33 8 -123 -34 -178 -85 -59 -54 -95 -57 -45 -3 13 13 32 42 43
64 11 23 38 54 60 69 39 28 44 29 198 32 155 4 158 4 185 30 16 15 39 27 53
27 14 0 36 11 49 25 14 15 55 34 108 51 80 25 86 25 98 9 14 -19 39 -21 95
-10 37 7 64 -2 159 -56 30 -17 47 -18 121 -13 102 8 154 -8 73 -21 -27 -5 -85
-10 -129 -12 -44 -2 -103 -5 -131 -6 -38 -1 -57 3 -71 16 -14 12 -29 15 -49
11 -22 -4 -41 3 -77 25 -26 17 -52 31 -56 31 -14 0 -23 -32 -11 -44 16 -16 12
-26 -16 -36 -25 -10 -25 -30 0 -30 7 0 42 -9 76 -20 91 -29 256 -28 318 1 35
18 56 21 107 17 49 -4 65 -2 69 8 7 19 227 11 285 -11 23 -8 58 -22 80 -29 33
-13 49 -13 122 0 192 33 283 29 392 -21 63 -29 46 -30 -94 -9 -116 18 -194 14
-304 -14 -87 -23 -66 -35 44 -26 65 6 95 2 216 -27 130 -31 153 -33 315 -34
153 -1 191 -5 305 -30 111 -24 150 -28 268 -27 75 0 137 -1 137 -4 0 -3 -16
-12 -37 -20 -64 -27 -206 -21 -383 16 -154 33 -155 33 -220 17 -52 -13 -79
-15 -131 -7 -85 12 -303 58 -335 71 -37 13 -94 11 -100 -4 -5 -13 70 -96 112
-123 11 -8 47 -19 80 -25 32 -6 100 -31 149 -56 156 -78 412 -129 610 -121 97
4 121 9 203 42 82 32 107 37 225 45 88 6 169 19 242 38 95 24 127 28 235 27
94 -1 143 -7 195 -22 l70 -21 19 22 c11 12 39 43 63 69 24 26 43 51 43 57 0 9
-146 69 -268 110 -73 25 -245 44 -317 35 -27 -3 -77 -13 -110 -21 -38 -10
-113 -17 -205 -18 -95 -1 -167 -8 -210 -18 -69 -18 -211 -22 -245 -7 -11 5
-17 9 -13 9 93 9 392 59 478 79 157 37 308 36 650 -6 140 -18 278 -34 305 -37
l51 -6 55 63 c72 82 165 199 214 268 104 148 155 221 155 226 0 3 19 36 43 72
127 197 277 491 361 707 26 66 53 136 61 155 70 174 166 521 195 702 11 73 25
147 30 163 12 41 37 237 46 364 l7 104 -21 -21 c-12 -12 -22 -31 -22 -41 0
-11 -4 -23 -10 -26 -5 -3 -10 -1 -10 4 0 6 -3 10 -7 9 -5 0 -15 1 -23 5 -8 3
-28 9 -45 13 l-30 8 34 4 c20 2 37 -2 42 -9 13 -21 37 -19 32 2 -3 11 0 26 7
34 7 9 10 18 7 21 -3 3 -13 -7 -22 -23 l-16 -28 6 28 c3 17 2 26 -4 23 -5 -3
-12 0 -15 6 -3 7 -4 1 -2 -14 3 -26 1 -28 -35 -28 -22 0 -39 -5 -39 -11 0 -6
-16 1 -36 16 -31 24 -42 27 -82 21 -25 -3 -61 -12 -79 -18 -28 -10 -38 -9 -62
5 -30 18 -68 13 -143 -20 -46 -19 -48 -38 -8 -61 38 -21 35 -43 -7 -54 -17 -4
-43 -22 -57 -38 -31 -37 -24 -68 21 -89 18 -8 37 -29 49 -55 12 -25 31 -46 49
-55 34 -16 48 -32 71 -78 17 -34 49 -44 71 -22 14 14 32 4 43 -27 8 -20 16
-24 44 -22 35 2 70 -17 60 -33 -3 -5 -10 -7 -15 -3 -5 3 -15 1 -22 -4 -11 -9
-106 -43 -108 -39 0 1 -2 10 -4 20 -7 36 -27 49 -66 43 -33 -5 -37 -3 -43 19
-4 16 -13 25 -26 25 -13 0 -20 7 -20 19 0 29 -31 57 -78 70 -58 16 -78 48 -61
96 11 31 11 37 -1 45 -27 17 -56 11 -70 -15 l-14 -25 -26 25 c-31 30 -56 32
-62 7 -4 -16 -19 -20 -83 -25 -68 -6 -82 -4 -111 14 -40 24 -69 18 -78 -15 -3
-13 -22 -33 -41 -45 -36 -21 -44 -50 -25 -96 6 -16 0 -27 -31 -56 -58 -55 -55
-88 17 -156 52 -50 58 -53 108 -53 43 0 57 -5 75 -24 21 -22 22 -29 12 -57
-22 -63 -16 -75 59 -124 79 -50 103 -54 160 -25 68 35 88 85 50 125 l-21 22
83 6 c152 12 164 11 177 -22 7 -16 11 -46 9 -67 -3 -38 -4 -39 -48 -44 -35 -4
-46 -9 -48 -25 -2 -11 -8 -24 -13 -30 -5 -5 -9 -19 -9 -31 0 -39 -141 -110
-276 -138 -31 -7 -32 -5 -73 72 -41 80 -53 92 -95 92 -33 0 -46 -19 -46 -67 0
-35 -3 -43 -19 -43 -28 0 -112 48 -150 86 -52 52 -73 42 -27 -12 99 -117 138
-166 134 -169 -2 -2 -87 -11 -188 -21 -120 -10 -332 -18 -600 -21 -228 -2
-416 -6 -418 -8 -5 -4 191 -17 204 -13 7 1 11 -1 10 -7 0 -5 -9 -8 -18 -7 -25
4 -22 -14 4 -32 20 -14 20 -17 6 -33 -22 -25 -29 -73 -11 -73 7 0 16 7 19 15
9 24 24 17 24 -10 0 -14 -3 -25 -7 -25 -5 0 -8 -18 -8 -40 -1 -28 3 -40 13
-40 10 0 13 11 10 40 -2 28 0 40 9 40 7 0 13 -12 13 -26 0 -14 4 -23 8 -20 5
3 19 -6 30 -19 12 -14 29 -25 37 -25 16 0 21 -26 6 -32 -4 -1 -2 -19 5 -38
l13 -35 -5 38 c-5 30 -3 37 10 37 17 0 22 -15 8 -24 -4 -3 -6 -26 -3 -53 l6
-48 65 0 c36 -1 57 1 48 3 -12 2 -18 13 -18 33 0 17 -4 28 -9 25 -5 -3 -7 -15
-4 -26 3 -11 0 -20 -6 -20 -6 0 -11 12 -11 28 0 21 -2 24 -10 12 -8 -13 -10
-13 -10 2 0 9 -5 20 -11 24 -8 4 -9 0 -4 -15 3 -11 3 -31 -1 -43 -7 -22 -7
-22 -14 -3 -7 19 -6 46 6 103 2 12 11 22 19 22 11 0 14 -7 9 -24 -3 -14 -3
-29 0 -34 7 -12 46 -4 46 9 0 14 -28 11 -33 -3 -3 -7 -6 -4 -6 7 -1 33 79 69
95 43 3 -5 9 -6 14 -3 5 3 11 1 15 -5 13 -21 23 -9 22 25 -1 22 -6 35 -14 35
-7 0 -13 -7 -13 -15 0 -17 -16 -20 -25 -5 -3 5 -13 6 -23 3 -15 -6 -15 -5 -2
8 22 22 56 39 78 39 18 0 19 -6 16 -57 -1 -32 1 -62 6 -68 14 -17 23 -95 11
-95 -6 0 -11 17 -11 38 0 48 -12 67 -36 57 -17 -8 -17 -9 4 -12 29 -6 29 -31
0 -35 -33 -4 -37 -45 -6 -57 13 -4 29 -6 36 -3 7 2 19 -4 27 -14 11 -15 16
-17 26 -6 11 10 10 12 -4 12 -9 0 -17 5 -17 10 0 6 7 10 15 10 9 0 15 9 15 24
0 13 3 31 6 40 3 9 2 16 -4 16 -6 0 -15 -12 -20 -27 l-10 -28 -1 33 c-1 20 5
35 14 38 8 4 15 13 15 21 0 8 5 11 10 8 15 -9 80 14 81 28 0 7 4 2 9 -10 5
-13 17 -23 26 -23 16 0 16 2 -1 20 -28 31 -10 35 20 4 16 -16 23 -30 17 -32
-6 -2 -8 -10 -5 -19 5 -12 1 -14 -17 -8 -15 5 -20 4 -16 -4 8 -12 45 -15 70
-5 23 9 22 64 -1 64 -29 1 -53 24 -42 41 7 11 9 11 9 -3 0 -11 8 -18 19 -18
11 0 22 8 24 18 3 10 5 5 6 -12 1 -25 4 -28 26 -24 28 6 43 -8 27 -24 -6 -6
-8 -17 -5 -24 3 -9 -2 -14 -13 -14 -15 0 -16 -2 -5 -9 18 -12 41 10 41 40 0
17 3 19 14 10 7 -6 21 -9 30 -5 12 4 16 0 16 -15 0 -25 15 -28 24 -5 4 12 10
13 19 6 6 -6 15 -10 19 -9 3 1 9 -1 13 -4 3 -4 -6 -10 -21 -13 -30 -8 -75 -36
-57 -36 6 0 24 5 39 10 41 16 42 2 1 -15 -37 -15 -48 -37 -25 -51 7 -5 9 -2 5
9 -4 11 2 17 23 22 16 4 34 4 40 0 7 -4 9 2 4 19 -3 15 -2 26 4 26 19 0 24 34
6 47 -14 10 -14 13 -3 13 22 0 42 -17 35 -29 -4 -6 -3 -11 2 -11 6 0 7 -14 1
-37 -5 -21 -9 -41 -9 -44 0 -11 42 -21 78 -19 23 1 32 -3 32 -14 0 -15 -31
-15 -78 0 -20 6 -63 -7 -56 -17 3 -5 -2 -9 -11 -9 -11 0 -15 5 -11 16 3 8 2
12 -4 9 -6 -3 -10 -13 -10 -22 0 -12 7 -14 33 -9 17 4 34 11 35 16 2 6 8 10
13 10 6 0 8 -4 5 -8 -3 -5 5 -8 17 -8 24 1 25 -5 12 -71 -6 -33 -5 -35 9 -24
13 11 16 11 16 0 0 -11 2 -11 10 1 8 12 10 12 10 -5 l1 -20 15 20 c11 14 15
15 13 5 -1 -8 1 -22 5 -31 10 -22 -19 -89 -38 -89 -36 0 -13 -18 31 -25 26 -4
64 -14 85 -22 34 -13 36 -17 22 -27 -14 -11 -10 -15 27 -29 24 -9 60 -20 79
-26 35 -10 35 -10 5 -10 -46 1 -48 0 -34 -18 8 -9 13 -19 11 -22 -2 -3 1 -7 7
-9 6 -2 11 7 12 20 1 21 2 21 7 3 4 -11 13 -20 20 -20 6 0 12 -4 12 -10 -1 -5
-10 -9 -20 -7 -11 2 -20 -2 -20 -8 0 -6 5 -8 13 -4 9 6 8 3 -1 -9 -12 -14 -9
-16 32 -12 49 4 60 -3 50 -30 -5 -12 -14 -15 -38 -10 -57 12 -121 39 -179 78
-69 45 -88 52 -187 67 -41 6 -78 16 -82 23 -14 23 -19 -3 -25 -139 -5 -141 9
-283 43 -429 7 -33 14 -66 14 -74 0 -12 -44 -13 -283 -8 -155 3 -306 11 -335
18 -61 13 -71 24 -107 127 -39 112 -58 234 -60 387 -2 146 -12 198 -48 247
-33 44 -91 76 -162 89 l-66 13 7 170 c7 193 0 251 -48 355 l-29 64 -77 -6
c-42 -3 -160 -22 -262 -42 -193 -37 -428 -75 -469 -75 -13 0 -104 -38 -201
-85 -97 -46 -232 -104 -301 -129 -113 -40 -268 -103 -311 -126 -22 -12 -24 -7
-33 60 -4 30 -17 82 -30 115 -13 33 -25 90 -28 126 -6 65 -5 68 30 113 20 26
33 50 29 54 -4 4 -24 12 -44 17 l-36 10 -13 85 c-22 149 -19 172 27 218 30 30
40 35 40 22 0 -27 11 -51 20 -45 5 3 11 1 15 -5 3 -5 1 -10 -4 -10 -6 0 -11
-4 -11 -10 0 -19 46 -10 66 13 28 31 46 76 39 98 -7 21 -13 23 -34 10 -11 -7
-18 -3 -27 15 -17 31 -8 60 12 43 12 -10 13 -8 8 6 -5 13 -4 16 4 11 15 -9 16
-36 1 -36 -5 0 -7 -5 -3 -11 5 -8 9 -8 14 1 4 6 34 14 66 16 32 3 80 9 106 14
26 5 147 17 270 25 461 33 560 64 480 149 -56 59 -61 94 -18 126 62 45 193 69
452 80 356 16 443 47 605 213 64 65 118 111 156 131 71 38 77 59 32 111 -47
53 -105 80 -247 116 -31 7 -62 27 -106 69 -35 32 -77 61 -94 64 -45 10 -103
-9 -148 -50 -172 -156 -222 -192 -314 -224 -163 -56 -337 -142 -403 -198 -9
-8 -19 -13 -22 -11 -2 3 -16 47 -30 99 -56 201 -77 255 -130 335 -29 44 -61
94 -71 112 -33 54 -157 129 -299 179 -78 28 -93 37 -185 120 -105 95 -115 93
-239 -61 -106 -132 -128 -167 -172 -280 -30 -78 -38 -81 -111 -46 l-38 18 0
-32 c0 -64 -10 -93 -31 -88 -24 7 -24 9 1 40 11 14 20 40 20 57 0 24 8 38 30
54 34 25 50 83 30 107 -9 10 -9 15 -1 15 14 0 14 37 0 46 -6 3 -16 1 -22 -5
-19 -19 -25 -12 -21 22 1 17 3 34 4 37 0 3 7 -4 15 -14 15 -20 15 -20 16 0 8
101 -33 179 -99 189 -20 4 -48 8 -63 11 -19 4 -32 -3 -52 -26 -15 -16 -34 -30
-42 -30 -8 0 -15 -6 -15 -12 0 -7 -16 -28 -34 -46 -60 -58 -58 -127 8 -222 20
-29 36 -57 36 -64 1 -18 30 26 30 45 0 9 -8 27 -19 40 -10 13 -21 35 -25 49
-3 14 -3 19 0 12 3 -6 10 -10 15 -6 5 3 9 -4 9 -15 0 -12 5 -21 10 -21 6 0 10
6 10 14 0 22 19 30 35 16 16 -13 18 -9 16 25 -1 25 38 75 46 58 2 -7 13 -13
24 -13 23 0 25 -18 3 -27 -12 -4 -14 -14 -9 -47 4 -22 10 -45 13 -51 9 -13 4
-40 -13 -73 -13 -24 -13 -27 2 -33 12 -4 13 -8 5 -13 -7 -4 -12 -20 -12 -35 0
-35 -24 -60 -34 -35 -3 8 -6 39 -6 67 0 29 -7 60 -15 71 -13 17 -14 15 -17
-20 -2 -22 0 -55 3 -76 5 -30 3 -35 -9 -30 -9 3 -6 -4 7 -17 l22 -22 -43 -40
c-42 -39 -42 -40 -15 -36 16 2 34 -1 40 -7 7 -7 20 -15 31 -19 16 -6 18 -14
13 -58 -5 -37 -3 -48 6 -42 8 5 8 2 -1 -9 -10 -13 -12 -70 -10 -256 2 -132 0
-243 -4 -247 -4 -4 -38 -10 -75 -12 -57 -4 -71 -2 -90 14 -17 15 -19 23 -11
31 7 7 18 12 25 12 11 0 11 4 2 22 -9 17 -9 24 5 33 9 7 16 19 16 28 0 8 6 17
13 20 9 3 9 9 -1 26 -9 16 -9 21 0 21 9 0 9 3 1 11 -8 8 -8 20 -2 36 13 34 20
391 7 399 -5 3 -9 29 -8 58 3 73 1 88 -10 81 -6 -4 -8 -11 -5 -16 4 -5 1 -9
-4 -9 -6 0 -11 4 -11 9 0 14 -60 -3 -110 -32 -25 -13 -64 -30 -87 -36 l-41
-11 2 -53 c1 -29 5 -57 9 -63 9 -15 -15 -107 -29 -111 -24 -8 -63 43 -85 112
-12 38 -50 126 -83 195 -34 69 -75 169 -91 223 -26 85 -33 97 -52 97 -13 0
-85 -29 -161 -64 -348 -162 -626 -213 -1147 -210 -175 1 -249 15 -438 84 -119
44 -174 82 -212 149 -24 43 -41 60 -85 83 -79 41 -110 78 -110 131 0 24 7 52
15 63 22 30 17 48 -18 64 -28 13 -32 20 -35 59 -2 25 3 60 12 80 8 20 23 65
31 101 9 36 23 84 31 107 15 48 13 150 -6 198 -6 17 -23 42 -36 56 l-25 26 24
7 c19 4 24 11 20 26 -3 11 0 26 6 34 18 22 -3 66 -32 66 -53 0 -81 -45 -56
-92 9 -16 6 -24 -13 -45 -21 -22 -23 -36 -28 -151 -5 -122 -2 -136 25 -145 14
-5 9 -101 -9 -172 -9 -32 -16 -85 -16 -117 l0 -58 -42 7 c-24 3 -73 7 -110 7
-36 1 -64 4 -62 8 2 3 -9 16 -25 28 -19 13 -28 26 -24 36 4 10 -2 17 -17 21
-22 6 -22 8 -15 109 13 193 0 225 -130 314 -61 43 -80 64 -119 128 -25 42 -55
92 -67 110 -17 26 -18 31 -5 26 9 -3 19 -17 22 -30 3 -13 10 -21 15 -18 5 3 1
20 -11 38 -23 38 -24 46 -9 46 5 0 8 -3 6 -7 -3 -5 2 -15 11 -23 14 -13 15
-12 9 3 -3 9 -2 17 3 17 14 0 12 -64 -2 -78 -9 -9 -8 -12 5 -12 9 0 18 8 18
18 1 9 3 28 4 42 2 14 -1 33 -6 42 -10 19 33 78 57 78 7 0 11 6 8 14 -4 10 3
16 18 19 16 3 15 4 -5 2 -45 -3 -41 12 5 18 22 3 53 15 69 26 22 16 28 18 33
6 3 -9 0 -12 -10 -8 -7 3 -14 0 -14 -6 0 -6 9 -11 20 -11 11 0 20 5 20 11 0 5
5 7 10 4 20 -12 -19 -37 -47 -31 -23 6 -24 6 -10 -9 11 -11 25 -13 43 -9 21 6
25 4 19 -7 -8 -12 -6 -12 9 0 13 11 20 11 28 3 15 -15 48 -16 48 -2 0 6 -9 10
-20 10 -11 0 -20 5 -20 10 0 15 29 12 46 -4 8 -8 14 -22 14 -31 0 -15 1 -15
16 -1 20 21 64 21 64 1 0 -8 -9 -15 -20 -15 -11 0 -20 -4 -20 -10 0 -5 7 -10
15 -10 8 0 15 -4 15 -10 0 -5 9 -10 20 -10 11 0 20 4 20 10 0 5 -7 7 -15 4
-24 -9 -18 16 10 42 32 29 32 38 -1 30 -17 -5 -25 -3 -22 4 2 6 6 10 9 8 3 -2
13 3 22 10 13 11 16 9 22 -16 5 -24 10 -29 27 -24 19 5 19 6 4 17 -9 7 -16 17
-16 22 0 15 29 37 37 29 4 -4 1 -11 -6 -15 -10 -6 -10 -10 -2 -16 21 -12 41
15 35 48 -4 27 -3 29 6 14 6 -9 10 -26 8 -37 -2 -10 1 -18 7 -17 5 1 8 12 7
25 -2 12 1 22 7 22 6 0 11 -10 12 -22 1 -17 3 -14 9 9 4 18 12 39 17 45 15 20
24 50 13 43 -6 -3 -10 -12 -10 -19 0 -15 -47 -42 -57 -33 -9 9 1 18 24 21 12
2 18 11 18 27 0 14 5 23 13 22 6 -2 12 1 12 6 0 5 14 8 31 7 19 0 34 5 37 13
3 10 -2 12 -21 7 l-26 -6 17 30 c11 20 18 25 20 15 4 -20 32 -20 32 0 0 8 -5
15 -11 15 -5 0 -7 5 -4 10 12 19 36 11 33 -12 -2 -11 3 -23 10 -25 21 -8 13
38 -10 58 l-23 18 37 1 c20 0 39 -6 41 -12 3 -7 6 -8 6 -3 1 15 -11 30 -34 43
-18 11 -18 11 9 12 16 0 26 3 23 7 -7 6 23 27 56 39 9 3 17 10 17 15 0 5 7 9
15 9 8 0 15 5 15 10 0 12 -27 13 -34 1 -10 -15 -46 -20 -46 -6 0 7 16 16 35
19 21 4 35 13 35 21 0 8 5 15 10 15 6 0 10 -10 10 -22 0 -19 2 -20 10 -8 5 8
10 27 10 43 0 15 4 27 9 27 5 0 7 -9 4 -20 -4 -17 -1 -20 23 -19 26 1 26 2 7
7 -16 5 -20 11 -13 21 6 11 12 12 22 4 13 -10 58 -1 58 12 0 4 -4 3 -10 0 -5
-3 -10 0 -10 9 0 8 -5 16 -11 18 -7 2 -5 9 5 17 14 12 16 12 10 -3 -4 -10 -1
-16 9 -16 25 0 47 11 47 24 0 7 22 12 55 14 46 3 55 0 55 -13 0 -9 3 -15 8
-13 49 24 62 33 65 47 3 9 5 3 6 -13 1 -23 5 -27 21 -23 11 3 23 1 26 -4 3 -5
10 -7 15 -4 16 10 10 23 -13 28 -20 4 -19 4 5 6 15 0 27 -4 27 -10 0 -5 5 -7
10 -4 6 4 10 16 8 27 -2 12 3 23 11 26 10 3 12 -1 8 -17 -3 -14 0 -21 9 -21 8
0 11 6 8 15 -7 18 -4 18 32 2 33 -14 43 -37 16 -37 -15 -1 -15 -2 2 -12 15 -8
21 -8 24 0 2 7 11 12 20 13 14 0 13 2 -3 10 -17 8 -16 9 7 6 15 -2 25 0 22 4
-3 5 -1 9 5 9 5 0 13 -4 16 -10 13 -22 23 -8 31 43 5 34 9 45 13 32 3 -11 14
-21 24 -21 22 -2 22 12 0 25 -15 8 -14 9 7 9 14 0 41 3 60 5 19 3 41 5 48 6 7
1 11 5 8 10 -3 5 -26 6 -51 3 -43 -4 -45 -3 -45 21 0 24 2 26 52 24 50 -2 53
-4 59 -32 7 -30 7 -30 8 -3 1 25 4 27 37 24 19 -1 37 1 39 4 15 24 -466 35
-890 20 -562 -19 -569 -19 -514 10 25 14 59 68 59 96 0 33 -32 54 -99 65 l-61
11 2 51 3 51 -49 9 c-27 4 -68 19 -91 33 l-43 25 -40 -46z m1506 -340 c0 -31
-22 -28 -26 3 -2 14 2 22 11 22 9 0 15 -10 15 -25z m-201 -77 c-3 -8 -6 -5 -6
6 -1 11 2 17 5 13 3 -3 4 -12 1 -19z m20 -10 c-3 -8 -6 -5 -6 6 -1 11 2 17 5
13 3 -3 4 -12 1 -19z m66 3 c2 -10 1 -25 -4 -32 -6 -10 -9 -4 -9 19 0 36 5 42
13 13z m47 2 c0 -7 -9 -13 -20 -13 -11 0 -20 6 -20 13 0 7 9 13 20 13 11 0 20
-6 20 -13z m-200 -22 c0 -5 -11 -11 -25 -13 -17 -4 -25 -1 -25 8 0 8 11 14 25
14 14 0 25 -4 25 -9z m-225 -11 c3 -5 1 -10 -4 -10 -6 0 -11 5 -11 10 0 6 2
10 4 10 3 0 8 -4 11 -10z m80 -19 c-6 -5 -25 10 -25 20 0 5 6 4 14 -3 8 -7 12
-15 11 -17z m-222 -68 c-7 -2 -19 -2 -25 0 -7 3 -2 5 12 5 14 0 19 -2 13 -5z
m-426 -385 c-3 -8 -6 -5 -6 6 -1 11 2 17 5 13 3 -3 4 -12 1 -19z m-360 -20
c-3 -8 -6 -5 -6 6 -1 11 2 17 5 13 3 -3 4 -12 1 -19z m-91 -53 c-11 -8 -24
-15 -30 -15 -5 0 -1 7 10 15 10 8 24 14 29 14 6 0 1 -6 -9 -14z m242 -41 c19
-13 25 -14 39 -2 14 11 16 11 11 -2 -7 -23 -51 -24 -73 0 -22 24 -9 26 23 4z
m-321 -20 c-3 -3 -12 -4 -19 -1 -8 3 -5 6 6 6 11 1 17 -2 13 -5z m-69 -24 c-7
-10 -14 -17 -17 -15 -4 4 18 35 25 35 2 0 -1 -9 -8 -20z m3612 -1650 c0 -5 -4
-10 -10 -10 -5 0 -10 5 -10 10 0 6 5 10 10 10 6 0 10 -4 10 -10z m-1130 -13
c0 -7 -9 -18 -20 -25 -16 -10 -20 -10 -20 1 0 14 20 37 32 37 4 0 8 -6 8 -13z
m77 -9 c-3 -8 -6 -5 -6 6 -1 11 2 17 5 13 3 -3 4 -12 1 -19z m6 -48 c-3 -12
-8 -19 -11 -16 -5 6 5 36 12 36 2 0 2 -9 -1 -20z m-98 -10 c-28 -12 -37 -12
-30 0 3 6 16 10 28 9 21 0 21 -1 2 -9z m-25 -62 c0 -6 -3 -8 -7 -5 -3 4 -12
-1 -19 -11 -12 -15 -13 -15 -14 -1 0 9 3 19 7 22 11 11 33 8 33 -5z m-45 -31
c9 -10 10 -18 2 -32 -10 -19 -10 -19 -18 0 -16 42 -9 56 16 32z m1282 -39 c-3
-7 -5 -2 -5 12 0 14 2 19 5 13 2 -7 2 -19 0 -25z m-520 -10 c-3 -8 -6 -5 -6 6
-1 11 2 17 5 13 3 -3 4 -12 1 -19z m534 -40 c1 -52 6 -116 14 -160 4 -30 4
-48 -2 -48 -10 0 -33 138 -33 198 0 36 20 45 21 10z m-553 -92 c-2 -31 -6 -42
-15 -39 -15 6 -17 29 -3 38 6 3 10 15 10 26 0 10 2 19 5 19 2 0 4 -20 3 -44z
m262 -36 c0 -56 -40 -150 -80 -190 -12 -12 -40 -83 -40 -101 0 -15 -5 -19 -15
-15 -8 3 -22 -2 -31 -12 -16 -16 -17 -14 -10 28 4 24 12 50 18 57 10 12 4 17
-14 14 -11 -1 -10 3 4 36 6 15 12 30 13 33 11 34 28 63 32 53 2 -6 -6 -32 -18
-57 -32 -70 -16 -66 19 4 17 33 29 68 26 78 -4 10 -2 13 3 6 5 -7 14 -4 26 8
11 12 13 18 5 18 -7 0 0 12 15 25 29 26 47 32 47 15z m-280 -60 c-18 -11 -24
-6 -16 16 5 14 9 15 19 5 9 -9 9 -14 -3 -21z m-16 -87 c-2 -27 -7 -64 -10 -83
-11 -61 -17 -133 -15 -179 1 -27 -4 -48 -11 -53 -8 -6 -2 -7 17 -4 31 6 41 2
63 -25 11 -14 10 -20 -4 -34 -12 -12 -14 -19 -6 -24 8 -4 4 -20 -13 -49 -20
-36 -22 -47 -13 -73 11 -32 0 -57 -20 -45 -33 20 -44 310 -17 469 8 48 15 103
15 123 0 19 4 33 9 30 5 -3 7 -27 5 -53z m4824 -146 c12 -6 22 -14 22 -19 0
-15 -25 -7 -55 18 -31 25 -18 26 33 1z m-4380 -32 c-3 -3 -9 2 -12 12 -6 14
-5 15 5 6 7 -7 10 -15 7 -18z m3991 -14 c11 -21 28 -41 37 -45 9 -4 14 -9 10
-13 -3 -4 -17 4 -31 17 -19 18 -25 20 -25 8 0 -8 9 -23 20 -33 31 -28 24 -35
-30 -35 -39 0 -50 4 -50 16 0 11 6 13 19 9 28 -9 32 6 16 57 -13 44 -11 58 6
58 5 0 17 -17 28 -39z m-4292 -23 c-3 -8 -6 -5 -6 6 -1 11 2 17 5 13 3 -3 4
-12 1 -19z m920 -83 c8 -21 3 -23 -34 -18 -43 7 -44 33 -3 33 18 0 33 -6 37
-15z m3401 -36 c12 -5 22 -15 22 -24 0 -12 -13 -15 -59 -15 -32 0 -71 -2 -87
-5 -22 -4 -37 2 -64 25 l-35 30 68 -1 c37 -1 70 1 74 4 6 7 40 1 81 -14z
m-203 -39 c3 -5 1 -10 -4 -10 -6 0 -11 5 -11 10 0 6 2 10 4 10 3 0 8 -4 11
-10z m-3251 -106 c10 -25 -1 -29 -14 -5 -6 12 -7 21 -1 21 5 0 12 -7 15 -16z
m2080 -404 c-6 -6 -15 -5 -24 1 -13 9 -12 10 3 5 9 -3 17 0 17 6 0 6 3 8 7 5
4 -4 2 -12 -3 -17z m126 -10 c0 -5 -4 -10 -10 -10 -5 0 -10 5 -10 10 0 6 5 10
10 10 6 0 10 -4 10 -10z m-293 -52 c-3 -8 -6 -5 -6 6 -1 11 2 17 5 13 3 -3 4
-12 1 -19z m353 -4 c0 -8 -4 -12 -10 -9 -5 3 -10 10 -10 16 0 5 5 9 10 9 6 0
10 -7 10 -16z m-251 -32 c-1 -15 -2 -15 -6 1 -2 9 -9 14 -15 11 -7 -4 -8 -2
-4 5 10 15 26 4 25 -17z m41 2 c0 -8 -4 -14 -10 -14 -5 0 -10 9 -10 21 0 11 5
17 10 14 6 -3 10 -13 10 -21z m-2399 -6 c7 -13 16 -41 20 -63 4 -22 16 -62 27
-90 29 -73 50 -152 58 -221 l6 -60 -158 -91 c-88 -50 -178 -100 -201 -112 -42
-21 -188 -50 -198 -39 -7 7 42 323 59 378 8 25 23 79 35 120 12 41 25 82 30
90 12 24 89 62 171 87 100 29 136 29 151 1z m2259 11 c0 -8 5 -8 15 1 13 11
19 9 35 -10 26 -30 26 -60 0 -60 -16 0 -19 5 -13 30 3 19 1 30 -6 30 -6 0 -11
-6 -11 -14 0 -28 -16 -25 -27 5 -6 16 -7 29 -2 29 5 0 9 -5 9 -11z m280 1 c0
-5 -7 -7 -15 -4 -9 4 -18 -2 -24 -17 -5 -13 -10 -19 -10 -12 -2 24 12 43 30
43 10 0 19 -4 19 -10z m50 1 c0 -6 -4 -13 -10 -16 -5 -3 -10 1 -10 9 0 9 5 16
10 16 6 0 10 -4 10 -9z m54 -6 c-4 -8 -8 -15 -10 -15 -2 0 -4 7 -4 15 0 8 4
15 10 15 5 0 7 -7 4 -15z m523 -27 c-3 -7 -5 -2 -5 12 0 14 2 19 5 13 2 -7 2
-19 0 -25z m-400 6 c-3 -3 -12 -4 -19 -1 -8 3 -5 6 6 6 11 1 17 -2 13 -5z
m-231 -18 c3 -8 12 -12 19 -10 7 3 16 1 20 -5 4 -7 -7 -11 -29 -11 -29 0 -36
4 -36 20 0 23 18 27 26 6z m-102 -28 c6 -5 2 -8 -11 -8 -17 0 -20 4 -15 22 4
16 7 18 10 8 3 -8 10 -18 16 -22z m271 12 c3 -5 1 -10 -4 -10 -6 0 -11 5 -11
10 0 6 2 10 4 10 3 0 8 -4 11 -10z m102 -1 c-21 -12 -70 -14 -74 -4 -1 6 17
10 42 10 24 0 39 -3 32 -6z m687 -26 c4 -9 2 -21 -4 -27 -7 -7 -10 -7 -10 1 0
6 -3 18 -6 27 -3 9 -2 16 4 16 5 0 13 -8 16 -17z m-780 -18 c-21 -16 -54 -20
-54 -6 0 10 22 18 54 20 20 1 20 1 0 -14z m201 -25 c3 -5 1 -10 -4 -10 -6 0
-11 5 -11 10 0 6 2 10 4 10 3 0 8 -4 11 -10z m235 -22 c0 -19 -16 -5 -17 14
-2 18 0 20 7 8 5 -8 10 -18 10 -22z m-810 12 c0 -5 -5 -10 -11 -10 -5 0 -7 5
-4 10 3 6 8 10 11 10 2 0 4 -4 4 -10z m37 4 c-3 -3 -12 -4 -19 -1 -8 3 -5 6 6
6 11 1 17 -2 13 -5z m58 -4 c3 -5 -1 -10 -10 -10 -9 0 -13 5 -10 10 3 6 8 10
10 10 2 0 7 -4 10 -10z m255 -6 c0 -2 -7 -4 -15 -4 -8 0 -15 4 -15 10 0 5 7 7
15 4 8 -4 15 -8 15 -10z m-72 -35 c-2 -6 -8 -10 -13 -10 -5 0 -11 4 -13 10 -2
6 4 11 13 11 9 0 15 -5 13 -11z m522 -5 c0 -8 -5 -12 -10 -9 -6 4 -8 11 -5 16
9 14 15 11 15 -7z m-560 -109 c0 -8 -7 -15 -16 -15 -14 0 -14 3 -4 15 7 8 14
15 16 15 2 0 4 -7 4 -15z m624 -102 c-6 -22 -4 -25 10 -20 10 4 16 1 16 -7 0
-9 -8 -12 -24 -9 -22 5 -23 8 -14 34 13 36 21 38 12 2z m124 -89 c15 -4 22
-14 22 -30 0 -13 -10 -33 -22 -44 l-23 -21 -6 28 c-10 41 -10 73 -1 73 4 0 17
-3 30 -6z m122 -35 c0 -5 8 -5 18 -2 16 7 16 6 0 -11 -10 -9 -18 -25 -18 -34
0 -14 2 -15 10 -2 5 8 12 11 16 7 4 -4 3 -12 -2 -17 -13 -13 -59 2 -61 20 -1
8 -5 25 -8 36 -6 19 -3 21 19 17 14 -3 26 -9 26 -14z m-160 -54 c0 -8 -7 -15
-16 -15 -14 0 -14 3 -4 15 7 8 14 15 16 15 2 0 4 -7 4 -15z m125 -36 c5 -7 -5
-8 -32 -3 -51 9 -54 14 -10 14 20 0 39 -5 42 -11z m122 -185 c-3 -3 -12 -4
-19 -1 -8 3 -5 6 6 6 11 1 17 -2 13 -5z m30 -66 c-3 -7 -5 -2 -5 12 0 14 2 19
5 13 2 -7 2 -19 0 -25z m43 8 c0 -8 -6 -16 -14 -19 -10 -4 -12 0 -9 14 6 22
23 26 23 5z"/>
<path d="M6690 11116 c0 -2 7 -6 15 -10 8 -3 15 -1 15 4 0 6 -7 10 -15 10 -8
0 -15 -2 -15 -4z"/>
<path d="M3202 11080 c0 -14 2 -19 5 -12 2 6 2 18 0 25 -3 6 -5 1 -5 -13z"/>
<path d="M3915 11050 c-3 -5 -1 -10 4 -10 6 0 11 5 11 10 0 6 -2 10 -4 10 -3
0 -8 -4 -11 -10z"/>
<path d="M3305 10970 c3 -5 8 -10 11 -10 2 0 4 5 4 10 0 6 -5 10 -11 10 -5 0
-7 -4 -4 -10z"/>
<path d="M3320 10831 c0 -5 7 -12 16 -15 22 -9 24 -8 24 9 0 8 -9 15 -20 15
-11 0 -20 -4 -20 -9z"/>
<path d="M8120 10783 c-152 -50 -329 -68 -481 -48 -57 7 -177 42 -193 57 -23
19 -250 3 -297 -22 -9 -5 -26 -6 -37 -3 -11 3 -29 0 -39 -7 -16 -10 -15 -11 8
-6 32 7 44 -3 22 -19 -15 -11 -15 -12 1 -18 9 -4 16 -2 16 3 0 22 18 8 22 -17
3 -16 9 -36 13 -45 4 -11 3 -18 -4 -18 -6 0 -11 6 -11 14 0 34 -16 22 -17 -12
0 -25 2 -31 6 -18 5 12 10 16 14 9 4 -6 0 -18 -8 -27 -17 -16 -5 -29 17 -21
17 7 43 -20 34 -34 -4 -5 -3 -12 2 -15 4 -2 13 3 19 12 12 20 -1 67 -17 57 -5
-3 -10 -1 -10 4 0 6 5 11 11 11 17 0 39 -27 39 -49 0 -12 5 -21 10 -21 14 0
13 36 -2 60 -15 23 -1 41 15 19 12 -16 97 -35 97 -22 0 3 -7 14 -16 24 -12 13
-13 22 -5 36 8 14 10 15 11 2 0 -8 14 -28 31 -45 27 -24 30 -26 20 -6 -6 12
-16 22 -21 22 -6 0 -10 17 -9 38 0 27 2 32 8 18 8 -22 101 -48 137 -40 16 4
23 0 27 -15 3 -13 13 -21 25 -21 30 0 36 -17 12 -32 -26 -16 -26 -44 0 -58 12
-6 20 -7 20 -1 0 5 3 16 6 25 3 9 1 16 -4 16 -6 0 -13 -8 -15 -17 -4 -17 -5
-17 -6 0 -1 23 25 51 34 37 4 -6 4 -25 1 -43 l-6 -32 17 32 c16 32 16 33 -10
59 -27 27 -36 54 -17 54 6 0 10 -9 10 -20 0 -13 7 -20 20 -20 11 0 20 -4 20
-10 0 -5 7 -10 15 -10 8 0 15 -4 15 -10 0 -5 -7 -7 -15 -4 -12 5 -14 0 -9 -24
4 -21 2 -31 -10 -35 -9 -4 -16 -12 -16 -19 0 -9 3 -9 12 0 19 19 28 14 29 -15
l1 -28 8 30 c6 24 8 26 9 8 1 -16 7 -23 22 -23 12 0 19 -5 16 -12 -2 -7 -16
-12 -30 -12 -15 1 -27 -3 -27 -7 0 -5 9 -9 20 -9 22 0 27 -15 8 -23 -10 -4
-10 -6 -1 -6 6 -1 15 4 18 9 3 6 18 10 33 10 19 0 23 3 13 9 -9 6 -10 11 -3
15 7 4 16 -10 23 -33 10 -34 9 -42 -4 -55 -9 -9 -21 -16 -27 -16 -6 0 -8 -5
-4 -11 3 -6 15 -8 26 -6 26 7 37 -22 14 -39 -10 -7 -16 -19 -13 -26 4 -10 6
-10 6 0 1 6 10 12 22 12 17 0 20 4 16 23 -4 12 -2 28 2 36 6 9 12 4 21 -21 16
-40 17 -45 19 -59 1 -8 5 -8 15 0 9 8 16 8 20 2 9 -14 44 20 38 37 -5 16 13
16 26 -1 7 -8 7 -18 2 -27 -16 -25 -11 -38 19 -56 17 -10 28 -21 25 -26 -9
-14 7 -9 23 7 11 11 13 26 8 52 -6 34 -5 35 17 30 l23 -6 -25 21 -25 21 25 -8
c14 -4 32 -14 41 -21 22 -20 39 -17 39 5 0 14 6 19 20 18 22 -1 26 -17 8 -35
-16 -16 -2 -28 16 -13 8 7 12 19 9 27 -3 9 1 14 11 14 9 0 27 7 40 15 22 15
24 14 30 -10 5 -20 13 -25 36 -25 17 0 30 5 30 10 0 6 -7 10 -15 10 -8 0 -15
5 -15 10 0 6 7 10 15 10 8 0 15 -4 15 -10 0 -5 8 -10 18 -10 26 0 33 -10 21
-31 -8 -16 -6 -19 15 -19 14 0 28 -5 31 -11 4 -5 12 -8 18 -6 7 2 22 0 35 -4
16 -6 22 -5 22 6 0 8 9 15 20 15 12 0 20 -7 20 -16 0 -10 -6 -14 -15 -10 -9 3
-15 0 -15 -9 0 -9 10 -15 24 -15 21 0 24 4 22 33 0 21 3 31 12 30 19 -4 14 10
-15 43 -32 34 -77 93 -111 143 -37 55 -176 282 -197 324 -11 20 -22 37 -25 36
-3 -1 -39 -12 -80 -26z m-662 -18 c4 -5 -1 -5 -11 -2 -10 4 -34 7 -53 7 -19 0
-34 4 -34 8 0 11 87 -1 98 -13z m-124 -10 c-6 -16 -24 -21 -24 -7 0 11 11 22
21 22 5 0 6 -7 3 -15z m-172 -35 c-4 -40 12 -57 21 -22 2 9 3 7 2 -5 -1 -13 2
-23 6 -23 5 0 10 17 11 38 l1 37 4 -37 c3 -29 8 -36 20 -31 10 4 7 -3 -8 -18
-13 -13 -30 -23 -36 -21 -7 2 -13 -4 -13 -12 0 -8 -4 -18 -10 -21 -11 -7 -2
23 12 41 5 7 2 16 -7 24 -15 13 -22 90 -7 90 4 0 6 -18 4 -40z m38 36 c0 -3
-4 -8 -10 -11 -5 -3 -10 -1 -10 4 0 6 5 11 10 11 6 0 10 -2 10 -4z m40 -52 c0
-8 -5 -12 -10 -9 -6 4 -8 11 -5 16 9 14 15 11 15 -7z m393 9 c-7 -2 -19 -2
-25 0 -7 3 -2 5 12 5 14 0 19 -2 13 -5z m24 -19 c-3 -3 -12 -4 -19 -1 -8 3 -5
6 6 6 11 1 17 -2 13 -5z m-359 -43 c3 -8 -1 -12 -9 -9 -7 2 -15 10 -17 17 -3
8 1 12 9 9 7 -2 15 -10 17 -17z m402 -108 c0 -13 -3 -13 -15 -3 -8 7 -15 16
-15 21 0 5 7 6 15 3 8 -4 15 -13 15 -21z m180 -213 c0 -27 -4 -50 -8 -50 -4 0
-7 21 -5 48 2 56 2 52 8 52 3 0 5 -22 5 -50z m50 40 c0 -5 -8 -10 -17 -10 -15
0 -16 2 -3 10 19 12 20 12 20 0z m310 -10 c0 -5 -2 -10 -4 -10 -3 0 -8 5 -11
10 -3 6 -1 10 4 10 6 0 11 -4 11 -10z m-393 -47 c-3 -10 -5 -2 -5 17 0 19 2
27 5 18 2 -10 2 -26 0 -35z m355 22 c0 -5 -5 -11 -11 -13 -6 -2 -11 4 -11 13
0 9 5 15 11 13 6 -2 11 -8 11 -13z m-92 -30 c0 -15 -21 -12 -30 5 -11 20 -10
21 9 10 12 -6 21 -13 21 -15z m385 6 c3 -5 1 -12 -5 -16 -5 -3 -10 1 -10 9 0
18 6 21 15 7z m-585 -16 c0 -8 -4 -15 -10 -15 -5 0 -7 7 -4 15 4 8 8 15 10 15
2 0 4 -7 4 -15z m90 -5 c0 -11 -4 -20 -9 -20 -5 0 -7 9 -4 20 3 11 7 20 9 20
2 0 4 -9 4 -20z m407 -2 c-3 -8 -6 -5 -6 6 -1 11 2 17 5 13 3 -3 4 -12 1 -19z
m63 -3 c0 -8 -4 -15 -10 -15 -5 0 -7 7 -4 15 4 8 8 15 10 15 2 0 4 -7 4 -15z
m43 -12 c-7 -2 -19 -2 -25 0 -7 3 -2 5 12 5 14 0 19 -2 13 -5z m-499 -38 c-4
-8 -8 -15 -10 -15 -2 0 -4 7 -4 15 0 8 4 15 10 15 5 0 7 -7 4 -15z"/>
<path d="M6823 10753 c9 -2 23 -2 30 0 6 3 -1 5 -18 5 -16 0 -22 -2 -12 -5z"/>
<path d="M6871 10744 c0 -11 3 -14 6 -6 3 7 2 16 -1 19 -3 4 -6 -2 -5 -13z"/>
<path d="M6980 10756 c0 -2 14 -6 30 -8 17 -3 30 -1 30 4 0 4 -13 8 -30 8 -16
0 -30 -2 -30 -4z"/>
<path d="M3000 10734 c0 -8 5 -12 10 -9 6 3 10 10 10 16 0 5 -4 9 -10 9 -5 0
-10 -7 -10 -16z"/>
<path d="M2940 10725 c-16 -19 -1 -19 24 0 16 12 17 15 4 15 -8 0 -21 -7 -28
-15z"/>
<path d="M6945 10730 c3 -5 8 -10 11 -10 2 0 4 5 4 10 0 6 -5 10 -11 10 -5 0
-7 -4 -4 -10z"/>
<path d="M2874 10699 c-3 -6 -2 -14 2 -19 17 -16 89 -16 79 0 -4 6 -15 8 -26
5 -10 -4 -19 -2 -19 3 0 15 -28 23 -36 11z"/>
<path d="M7048 10693 c7 -3 16 -2 19 1 4 3 -2 6 -13 5 -11 0 -14 -3 -6 -6z"/>
<path d="M7060 10670 c0 -5 4 -10 9 -10 6 0 13 5 16 10 3 6 -1 10 -9 10 -9 0
-16 -4 -16 -10z"/>
<path d="M2690 10641 c0 -5 10 -11 23 -15 36 -9 42 -7 21 9 -21 16 -44 19 -44
6z"/>
<path d="M7030 10634 c0 -8 5 -12 10 -9 6 3 10 10 10 16 0 5 -4 9 -10 9 -5 0
-10 -7 -10 -16z"/>
<path d="M7440 10630 c0 -5 5 -10 10 -10 6 0 10 5 10 10 0 6 -4 10 -10 10 -5
0 -10 -4 -10 -10z"/>
<path d="M2670 10610 c0 -5 5 -10 11 -10 5 0 7 5 4 10 -3 6 -8 10 -11 10 -2 0
-4 -4 -4 -10z"/>
<path d="M7060 10611 c0 -5 7 -12 16 -15 24 -9 28 -7 14 9 -14 17 -30 20 -30
6z"/>
<path d="M7496 10610 c-19 -6 -19 -7 -1 -13 20 -8 29 -4 24 11 -2 5 -13 6 -23
2z"/>
<path d="M2720 10603 c8 -3 18 -11 22 -17 4 -6 10 -7 15 -3 9 10 -16 27 -37
26 -13 -1 -13 -1 0 -6z"/>
<path d="M2978 10603 c7 -3 16 -2 19 1 4 3 -2 6 -13 5 -11 0 -14 -3 -6 -6z"/>
<path d="M2818 10593 c7 -3 16 -2 19 1 4 3 -2 6 -13 5 -11 0 -14 -3 -6 -6z"/>
<path d="M7006 10585 c-3 -8 -1 -15 4 -15 6 0 10 7 10 15 0 8 -2 15 -4 15 -2
0 -6 -7 -10 -15z"/>
<path d="M7267 10580 c7 -25 19 -34 28 -20 3 5 1 10 -5 10 -7 0 -10 7 -6 15 3
9 0 15 -8 15 -9 0 -12 -7 -9 -20z"/>
<path d="M7527 10564 c5 -14 1 -15 -27 -9 -23 5 -30 4 -26 -4 4 -6 18 -11 31
-11 13 0 26 -6 28 -12 3 -7 6 2 6 20 1 17 -3 32 -9 32 -5 0 -7 -7 -3 -16z"/>
<path d="M8798 10542 l-86 -16 -32 -80 c-28 -68 -33 -98 -38 -189 -2 -59 -9
-110 -13 -113 -5 -3 -9 -13 -9 -22 0 -10 -11 -34 -24 -53 -22 -32 -32 -37 -78
-43 -29 -4 -73 -13 -98 -21 -25 -8 -91 -24 -148 -35 -179 -37 -215 -62 -289
-200 -83 -154 -186 -324 -253 -415 -56 -76 -81 -100 -158 -152 -78 -52 -203
-153 -190 -153 2 0 73 23 158 51 269 88 312 99 405 105 102 6 131 -4 154 -50
13 -28 14 -28 85 -23 39 3 114 13 167 21 116 19 403 36 477 29 105 -11 74 -57
-67 -99 -227 -67 -281 -85 -287 -96 -25 -39 141 -51 313 -22 111 19 143 14
143 -21 0 -14 -10 -35 -22 -47 l-22 -22 30 -20 c16 -12 49 -40 73 -63 24 -24
47 -43 50 -43 15 0 61 -25 61 -33 0 -5 -15 -6 -32 -3 l-33 6 30 -12 c17 -6 33
-16 37 -22 5 -8 11 -7 20 2 6 6 23 12 38 11 24 -1 24 -1 -4 -9 -26 -8 -45 -25
-46 -40 0 -3 20 -4 45 -2 44 4 45 3 51 -27 7 -34 24 -53 24 -27 0 9 7 16 16
16 11 0 15 6 11 20 -3 12 0 20 7 20 20 0 27 -12 14 -27 -6 -7 -8 -16 -4 -20 3
-3 6 -1 6 5 0 17 27 15 34 -3 3 -8 14 -15 24 -15 24 0 48 25 32 35 -5 3 -13
-1 -16 -9 -7 -18 -34 -22 -34 -6 0 6 7 10 15 10 8 0 15 7 15 15 0 8 6 14 13
13 18 -4 21 74 7 252 -40 540 -171 1067 -385 1553 -54 122 -39 115 -187 89z
m323 -1835 c-10 -9 -11 -8 -5 6 3 10 9 15 12 12 3 -3 0 -11 -7 -18z m46 17
c-3 -3 -12 -4 -19 -1 -8 3 -5 6 6 6 11 1 17 -2 13 -5z m51 -13 c9 -5 26 -12
36 -16 10 -3 17 -7 14 -10 -7 -7 -78 17 -78 27 0 10 6 10 28 -1z m82 -31 c0
-5 -2 -10 -4 -10 -3 0 -8 5 -11 10 -3 6 -1 10 4 10 6 0 11 -4 11 -10z m-60
-40 c0 -5 -4 -10 -10 -10 -5 0 -10 5 -10 10 0 6 5 10 10 10 6 0 10 -4 10 -10z
m90 2 c0 -13 -12 -22 -22 -16 -10 6 -1 24 13 24 5 0 9 -4 9 -8z"/>
<path d="M7290 10530 c-12 -8 -11 -10 8 -10 12 0 22 5 22 10 0 13 -11 13 -30
0z"/>
<path d="M6946 10515 c4 -8 7 -15 9 -15 2 0 5 7 9 15 3 9 0 15 -9 15 -9 0 -12
-6 -9 -15z"/>
<path d="M7020 10520 c-13 -8 -12 -10 3 -10 9 0 17 5 17 10 0 12 -1 12 -20 0z"/>
<path d="M7430 10520 c-8 -5 -10 -10 -5 -10 6 0 17 5 25 10 8 5 11 10 5 10 -5
0 -17 -5 -25 -10z"/>
<path d="M7250 10513 c0 -5 5 -15 10 -23 8 -12 10 -11 10 8 0 12 -4 22 -10 22
-5 0 -10 -3 -10 -7z"/>
<path d="M7560 10500 c0 -5 5 -10 10 -10 6 0 10 5 10 10 0 6 -4 10 -10 10 -5
0 -10 -4 -10 -10z"/>
<path d="M7520 10490 c0 -5 5 -10 11 -10 5 0 7 5 4 10 -3 6 -8 10 -11 10 -2 0
-4 -4 -4 -10z"/>
<path d="M7280 10480 c0 -5 5 -10 10 -10 6 0 10 5 10 10 0 6 -4 10 -10 10 -5
0 -10 -4 -10 -10z"/>
<path d="M7220 10456 c0 -9 5 -16 10 -16 6 0 10 4 10 9 0 6 -4 13 -10 16 -5 3
-10 -1 -10 -9z"/>
<path d="M7440 10461 c0 -5 7 -11 15 -15 8 -3 15 -1 15 3 0 5 -7 11 -15 15 -8
3 -15 1 -15 -3z"/>
<path d="M7553 10453 c9 -9 20 -13 24 -9 4 4 1 11 -7 16 -25 16 -35 11 -17 -7z"/>
<path d="M7375 10440 c-3 -6 1 -7 9 -4 18 7 21 14 7 14 -6 0 -13 -4 -16 -10z"/>
<path d="M7351 10424 c0 -11 3 -14 6 -6 3 7 2 16 -1 19 -3 4 -6 -2 -5 -13z"/>
<path d="M2090 10410 c0 -5 7 -10 15 -10 8 0 15 5 15 10 0 6 -7 10 -15 10 -8
0 -15 -4 -15 -10z"/>
<path d="M7688 10379 c-17 -18 -17 -19 1 -19 21 0 45 23 34 33 -9 10 -16 7
-35 -14z"/>
<path d="M2070 10350 c0 -5 5 -10 11 -10 5 0 7 5 4 10 -3 6 -8 10 -11 10 -2 0
-4 -4 -4 -10z"/>
<path d="M7646 10335 c-9 -26 -7 -32 5 -12 6 10 9 21 6 23 -2 3 -7 -2 -11 -11z"/>
<path d="M8250 10260 c-11 -7 -4 -10 28 -10 23 0 42 5 42 10 0 13 -50 13 -70
0z"/>
<path d="M8071 10234 c0 -11 3 -14 6 -6 3 7 2 16 -1 19 -3 4 -6 -2 -5 -13z"/>
<path d="M8560 10236 c0 -7 9 -16 21 -19 15 -4 19 -2 15 10 -3 8 -6 17 -6 19
0 2 -7 4 -15 4 -8 0 -15 -6 -15 -14z"/>
<path d="M7852 10215 c0 -16 2 -22 5 -12 2 9 2 23 0 30 -3 6 -5 -1 -5 -18z"/>
<path d="M7884 10226 c-4 -11 0 -24 10 -34 16 -16 17 -15 10 13 -9 38 -12 42
-20 21z"/>
<path d="M8471 10194 c0 -11 3 -14 6 -6 3 7 2 16 -1 19 -3 4 -6 -2 -5 -13z"/>
<path d="M8590 10200 c-12 -8 -11 -10 8 -10 12 0 22 5 22 10 0 13 -11 13 -30
0z"/>
<path d="M1971 10184 c0 -11 3 -14 6 -6 3 7 2 16 -1 19 -3 4 -6 -2 -5 -13z"/>
<path d="M8128 10193 c7 -3 16 -2 19 1 4 3 -2 6 -13 5 -11 0 -14 -3 -6 -6z"/>
<path d="M8561 10164 c0 -11 3 -14 6 -6 3 7 2 16 -1 19 -3 4 -6 -2 -5 -13z"/>
<path d="M7928 10163 c6 -2 18 -2 25 0 6 3 1 5 -13 5 -14 0 -19 -2 -12 -5z"/>
<path d="M1395 10040 c3 -5 10 -10 16 -10 5 0 9 5 9 10 0 6 -7 10 -16 10 -8 0
-12 -4 -9 -10z"/>
<path d="M1448 10043 c-10 -2 -15 -10 -11 -19 8 -20 31 -17 43 6 11 21 6 23
-32 13z"/>
<path d="M1510 10040 c-18 -11 -4 -42 17 -38 10 2 19 10 21 19 4 19 -19 31
-38 19z"/>
<path d="M1745 10040 c3 -5 8 -10 11 -10 2 0 4 5 4 10 0 6 -5 10 -11 10 -5 0
-7 -4 -4 -10z"/>
<path d="M1584 10005 c-7 -37 1 -58 14 -38 12 19 61 27 79 12 14 -12 15 -12
11 1 -4 11 -17 14 -47 13 -30 -1 -41 2 -41 13 0 8 10 14 23 15 21 0 21 1 2 9
-31 14 -34 12 -41 -25z"/>
<path d="M1325 9984 c-14 -21 -14 -24 0 -24 8 0 15 5 15 10 0 6 9 10 20 10 26
0 26 25 1 27 -11 1 -27 -9 -36 -23z"/>
<path d="M1305 9840 c3 -5 8 -10 11 -10 2 0 4 5 4 10 0 6 -5 10 -11 10 -5 0
-7 -4 -4 -10z"/>
<path d="M1335 9780 c10 -11 20 -20 22 -20 2 0 -1 9 -7 20 -6 11 -16 20 -22
20 -6 0 -3 -9 7 -20z"/>
<path d="M901 9775 c-18 -8 -40 -15 -48 -15 -17 0 -52 -39 -53 -58 0 -7 6 -30
12 -52 11 -34 17 -40 41 -40 34 0 120 37 112 49 -2 5 11 12 30 15 40 8 43 16
15 41 -11 10 -20 25 -20 33 0 16 -28 41 -45 41 -5 0 -25 -6 -44 -14z"/>
<path d="M4771 8704 c0 -11 3 -14 6 -6 3 7 2 16 -1 19 -3 4 -6 -2 -5 -13z"/>
<path d="M9185 8620 c3 -5 8 -10 11 -10 2 0 4 5 4 10 0 6 -5 10 -11 10 -5 0
-7 -4 -4 -10z"/>
<path d="M9195 8280 c-4 -6 -4 -14 -1 -17 3 -4 6 -1 6 6 0 8 5 7 16 -3 17 -18
49 -22 39 -5 -4 6 -10 8 -13 5 -3 -3 -13 1 -23 10 -12 11 -19 12 -24 4z"/>
<path d="M7030 6995 c-10 -12 -10 -19 -2 -27 9 -9 12 -8 12 5 0 9 8 21 18 26
15 9 15 10 1 11 -9 0 -22 -7 -29 -15z"/>
<path d="M7080 6990 c-13 -9 -13 -10 0 -9 8 0 24 4 35 9 l20 9 -20 0 c-11 0
-27 -4 -35 -9z"/>
<path d="M7146 6985 c4 -8 10 -15 15 -15 5 0 9 7 9 15 0 8 -7 15 -15 15 -9 0
-12 -6 -9 -15z"/>
<path d="M7110 6950 c-10 -7 -11 -10 -2 -10 6 0 12 -10 13 -22 l0 -23 11 23
c13 27 0 46 -22 32z"/>
<path d="M7040 6939 c0 -5 5 -7 10 -4 6 3 10 8 10 11 0 2 -4 4 -10 4 -5 0 -10
-5 -10 -11z"/>
<path d="M7170 6936 c0 -9 5 -16 10 -16 6 0 10 4 10 9 0 6 -4 13 -10 16 -5 3
-10 -1 -10 -9z"/>
<path d="M7102 6895 c0 -16 2 -22 5 -12 2 9 2 23 0 30 -3 6 -5 -1 -5 -18z"/>
<path d="M7150 6894 c0 -8 5 -12 10 -9 6 4 8 11 5 16 -9 14 -15 11 -15 -7z"/>
<path d="M7072 6865 c0 -16 2 -22 5 -12 2 9 2 23 0 30 -3 6 -5 -1 -5 -18z"/>
<path d="M7120 6870 c0 -5 5 -10 11 -10 5 0 7 5 4 10 -3 6 -8 10 -11 10 -2 0
-4 -4 -4 -10z"/>
<path d="M7195 6830 c3 -5 8 -10 11 -10 2 0 4 5 4 10 0 6 -5 10 -11 10 -5 0
-7 -4 -4 -10z"/>
<path d="M7177 6745 c-4 -8 -2 -17 3 -20 6 -4 10 2 10 12 0 15 2 16 10 3 5 -8
12 -11 15 -8 10 9 -4 28 -20 28 -7 0 -15 -7 -18 -15z"/>
<path d="M7761 6704 c0 -11 3 -14 6 -6 3 7 2 16 -1 19 -3 4 -6 -2 -5 -13z"/>
<path d="M7524 6694 c-4 -10 -13 -22 -19 -26 -14 -8 -8 -58 6 -58 5 0 9 11 9
25 0 14 4 25 9 25 14 0 23 32 12 43 -7 7 -13 4 -17 -9z"/>
<path d="M7962 6680 c-7 -11 -8 -20 -3 -20 5 0 12 6 14 13 4 9 8 8 17 -3 9
-13 11 -12 8 4 -4 27 -21 30 -36 6z"/>
<path d="M7298 6683 c6 -2 12 -17 13 -31 l0 -27 10 24 c10 24 -2 42 -26 40 -5
0 -4 -3 3 -6z"/>
<path d="M2060 6673 c-25 -5 -70 -40 -70 -55 0 -4 19 -8 43 -8 122 0 306 -59
437 -139 68 -42 88 -46 112 -24 25 22 102 22 167 -1 65 -24 67 -20 20 29 -50
51 -98 65 -221 65 -113 0 -258 39 -258 70 0 6 10 10 22 10 36 0 8 16 -57 33
-69 18 -158 27 -195 20z"/>
<path d="M8117 6667 c-4 -10 -7 -28 -6 -40 0 -21 1 -21 10 2 5 14 8 32 7 40
-3 13 -5 13 -11 -2z"/>
<path d="M7680 6644 c0 -8 5 -12 10 -9 6 4 8 11 5 16 -9 14 -15 11 -15 -7z"/>
<path d="M7730 6634 c0 -8 5 -12 10 -9 6 3 10 10 10 16 0 5 -4 9 -10 9 -5 0
-10 -7 -10 -16z"/>
<path d="M7830 6635 c6 -8 9 -19 5 -25 -4 -7 2 -6 14 2 20 12 20 14 4 26 -23
17 -38 15 -23 -3z"/>
<path d="M7907 6638 c-16 -12 -16 -14 2 -25 18 -11 19 -10 14 5 -5 14 -3 15 8
5 18 -18 48 -16 56 2 8 21 -6 33 -17 15 -7 -12 -12 -12 -22 -2 -15 15 -20 15
-41 0z"/>
<path d="M7281 6624 c0 -11 3 -14 6 -6 3 7 2 16 -1 19 -3 4 -6 -2 -5 -13z"/>
<path d="M7336 6632 c-2 -4 -1 -14 5 -22 7 -12 9 -10 9 8 0 23 -5 28 -14 14z"/>
<path d="M7130 6606 c-6 -9 -10 -21 -7 -28 4 -9 6 -7 6 4 1 9 7 18 14 21 6 2
9 7 6 11 -3 4 -12 0 -19 -8z"/>
<path d="M8057 6603 c-4 -3 -7 -13 -7 -22 1 -13 3 -12 15 3 8 11 15 14 15 8 0
-7 10 -12 23 -12 22 1 22 1 -3 15 -29 16 -34 17 -43 8z"/>
<path d="M7245 6590 c4 -6 11 -8 16 -5 14 9 11 15 -7 15 -8 0 -12 -5 -9 -10z"/>
<path d="M7310 6581 c0 -14 7 -19 25 -17 14 0 25 6 25 13 0 7 -7 10 -15 7 -8
-4 -15 -1 -15 5 0 6 -4 11 -10 11 -5 0 -10 -9 -10 -19z"/>
<path d="M7532 6570 c0 -19 2 -27 5 -17 2 9 2 25 0 35 -3 9 -5 1 -5 -18z"/>
<path d="M7708 6575 c5 -28 22 -44 22 -21 0 21 -11 46 -20 46 -4 0 -5 -11 -2
-25z"/>
<path d="M7730 6589 c0 -5 5 -7 10 -4 6 3 10 8 10 11 0 2 -4 4 -10 4 -5 0 -10
-5 -10 -11z"/>
<path d="M7441 6583 c-1 -7 -12 -13 -26 -13 -14 0 -25 -5 -25 -11 0 -7 10 -9
27 -4 34 8 36 10 30 27 -4 10 -6 10 -6 1z"/>
<path d="M1333 6563 c-23 -71 -48 -106 -85 -123 -27 -12 -45 -29 -59 -58 -19
-38 -19 -42 -4 -71 l16 -31 59 30 c57 29 200 158 200 181 0 6 -15 9 -32 7 -30
-3 -33 0 -36 27 -6 51 -45 76 -59 38z"/>
<path d="M7807 6565 c-4 -8 -2 -17 3 -20 6 -4 10 3 10 14 0 25 -6 27 -13 6z"/>
<path d="M1736 6530 l-26 -40 25 0 c23 0 25 -4 25 -45 0 -41 2 -45 25 -45 13
0 45 -7 71 -16 25 -8 48 -13 50 -11 3 2 0 16 -7 30 -19 41 6 80 61 93 l45 11
-58 7 c-32 4 -83 18 -113 32 -30 13 -58 24 -63 24 -5 0 -20 -18 -35 -40z"/>
<path d="M8020 6539 c0 -24 23 -21 28 4 2 10 -3 17 -12 17 -10 0 -16 -9 -16
-21z"/>
<path d="M7330 6535 c0 -8 4 -15 10 -15 5 0 7 -7 4 -15 -4 -8 -1 -15 4 -15 6
0 10 14 10 30 -1 30 -28 45 -28 15z"/>
<path d="M7561 6534 c0 -11 3 -14 6 -6 3 7 2 16 -1 19 -3 4 -6 -2 -5 -13z"/>
<path d="M7905 6530 c-3 -5 -1 -10 4 -10 6 0 11 5 11 10 0 6 -2 10 -4 10 -3 0
-8 -4 -11 -10z"/>
<path d="M7267 6514 c3 -9 9 -11 12 -6 3 5 13 12 21 15 9 3 4 6 -12 6 -21 1
-26 -3 -21 -15z"/>
<path d="M7388 6523 c7 -3 16 -2 19 1 4 3 -2 6 -13 5 -11 0 -14 -3 -6 -6z"/>
<path d="M8153 6523 c-13 -2 -23 -9 -23 -15 0 -5 8 -7 17 -4 9 4 20 2 23 -5 5
-6 9 -3 13 10 3 12 2 20 -1 20 -4 -1 -17 -4 -29 -6z"/>
<path d="M7990 6510 c0 -5 5 -10 11 -10 5 0 7 5 4 10 -3 6 -8 10 -11 10 -2 0
-4 -4 -4 -10z"/>
<path d="M7300 6500 c0 -5 5 -10 10 -10 6 0 10 5 10 10 0 6 -4 10 -10 10 -5 0
-10 -4 -10 -10z"/>
<path d="M7472 6499 c2 -6 8 -10 13 -10 5 0 11 4 13 10 2 6 -4 11 -13 11 -9 0
-15 -5 -13 -11z"/>
<path d="M8055 6501 c-3 -5 -1 -12 5 -16 5 -3 10 1 10 9 0 18 -6 21 -15 7z"/>
<path d="M8090 6500 c0 -5 5 -10 10 -10 6 0 10 5 10 10 0 6 -4 10 -10 10 -5 0
-10 -4 -10 -10z"/>
<path d="M7201 6464 c0 -11 3 -14 6 -6 3 7 2 16 -1 19 -3 4 -6 -2 -5 -13z"/>
<path d="M7270 6473 c1 -19 16 -32 29 -24 11 7 9 11 -8 20 -11 7 -21 8 -21 4z"/>
<path d="M7373 6463 c-4 -10 -11 -21 -17 -25 -6 -4 1 -8 15 -8 23 0 26 3 21
25 -5 29 -10 31 -19 8z"/>
<path d="M2080 6454 c-19 -7 -45 -13 -56 -13 -27 -1 -60 -29 -69 -58 -5 -20 0
-24 51 -39 49 -14 66 -15 111 -4 30 6 72 9 94 5 34 -6 45 -3 74 20 51 38 45
48 -25 40 -59 -7 -60 -6 -60 17 0 48 -46 60 -120 32z"/>
<path d="M8130 6450 l-25 -8 27 -1 c15 -1 30 4 33 9 7 11 0 11 -35 0z"/>
<path d="M7308 6428 c9 -11 9 -18 2 -21 -6 -3 -5 -4 2 -3 18 4 16 28 -2 34
-13 4 -13 3 -2 -10z"/>
<path d="M7220 6426 c0 -2 7 -7 16 -10 8 -3 12 -2 9 4 -6 10 -25 14 -25 6z"/>
<path d="M7275 6420 c-3 -5 -1 -10 4 -10 6 0 11 5 11 10 0 6 -2 10 -4 10 -3 0
-8 -4 -11 -10z"/>
<path d="M2630 6410 c0 -5 12 -10 27 -10 15 0 39 -11 55 -27 23 -22 30 -24 43
-13 12 10 24 10 62 0 27 -7 98 -16 159 -19 l110 -7 62 -63 c60 -61 84 -71 90
-39 4 20 -71 114 -111 139 -25 15 -51 19 -122 19 -49 0 -148 7 -220 15 -156
18 -155 18 -155 5z"/>
<path d="M7310 6367 c-12 -21 -12 -21 6 -7 10 8 20 15 22 16 2 1 -1 4 -5 7 -5
3 -15 -4 -23 -16z"/>
<path d="M7640 6363 c14 -22 30 -22 30 -1 0 6 -3 8 -7 5 -3 -4 -13 -1 -21 6
-13 11 -14 9 -2 -10z"/>
<path d="M7430 6280 c8 -5 20 -10 25 -10 6 0 3 5 -5 10 -8 5 -19 10 -25 10 -5
0 -3 -5 5 -10z"/>
<path d="M1700 6256 c-20 -7 -58 -25 -86 -39 -40 -20 -60 -24 -93 -20 -40 6
-43 5 -33 -13 6 -10 20 -30 33 -43 32 -34 98 -25 202 28 74 37 105 48 145 50
20 1 14 17 -13 29 -41 19 -117 23 -155 8z"/>
<path d="M2100 6206 c-100 -29 -127 -36 -167 -46 -39 -10 -43 -14 -43 -42 0
-34 2 -34 86 2 l50 22 60 -27 c39 -18 87 -30 139 -36 44 -4 96 -13 115 -18 83
-26 64 6 -32 55 -27 13 -48 29 -48 35 0 5 14 15 31 21 28 10 29 12 15 27 -21
21 -145 25 -206 7z"/>
<path d="M8520 6080 c-12 -8 -9 -10 13 -10 15 0 27 5 27 10 0 13 -20 13 -40 0z"/>
<path d="M2275 5850 c3 -5 11 -10 16 -10 6 0 7 5 4 10 -3 6 -11 10 -16 10 -6
0 -7 -4 -4 -10z"/>
<path d="M5220 5500 c-13 -8 -12 -11 5 -24 11 -7 33 -26 48 -40 35 -33 24 -33
197 4 l35 7 -37 16 c-20 9 -58 16 -85 16 -26 -1 -65 6 -85 15 -43 18 -57 19
-78 6z"/>
<path d="M4406 5475 c-9 -14 -36 -39 -59 -56 -42 -31 -42 -31 -11 -25 37 8 64
-13 64 -50 0 -30 2 -30 37 4 15 16 36 33 46 38 16 9 17 14 5 38 -10 24 -10 30
5 41 15 11 14 13 -9 23 -38 18 -60 14 -78 -13z"/>
<path d="M5106 5493 c-4 -4 -48 -10 -98 -13 -122 -7 -128 -25 -11 -34 116 -8
198 11 179 43 -8 12 -59 15 -70 4z"/>
<path d="M5485 5269 c-209 -30 -220 -52 -35 -69 58 -5 126 -18 174 -35 71 -25
84 -26 133 -16 41 8 76 7 151 -4 115 -18 122 -18 122 -5 0 11 -76 33 -180 51
-43 7 -101 26 -136 44 -69 36 -139 47 -229 34z"/>
<path d="M6139 5156 c12 -14 12 -18 -3 -29 -15 -11 -9 -17 47 -50 59 -34 70
-37 142 -37 44 0 75 4 70 8 -6 4 -44 23 -85 42 -41 19 -87 42 -101 52 -14 9
-38 20 -55 24 -26 7 -28 6 -15 -10z"/>
<path d="M5653 5033 c-17 -9 -35 -25 -41 -37 -17 -38 -233 -350 -265 -384 -43
-46 -138 -112 -217 -153 -36 -18 -123 -66 -194 -107 -71 -40 -158 -87 -193
-104 -35 -16 -63 -32 -61 -33 6 -6 310 23 413 40 260 42 483 126 672 253 95
63 226 181 267 240 26 39 27 41 12 71 -24 46 -21 61 14 61 25 0 30 4 30 25 0
33 -25 82 -48 94 -10 5 -36 7 -58 4 -34 -4 -45 -1 -74 23 -23 20 -35 25 -38
16 -4 -12 -74 -62 -88 -62 -3 0 -5 10 -4 23 1 12 2 28 1 35 -1 17 -89 14 -128
-5z"/>
<path d="M7175 5023 c-11 -3 -49 -21 -84 -41 l-64 -36 -75 11 c-77 11 -109 6
-140 -24 -18 -17 -32 -16 -47 3 -6 9 -32 20 -56 24 -24 4 -56 10 -70 14 -21 6
-40 -4 -114 -58 -98 -73 -136 -85 -203 -67 -25 6 -46 10 -47 9 -1 -2 -20 -28
-42 -58 -83 -113 -240 -246 -410 -346 -255 -150 -557 -249 -991 -324 l-167
-29 237 0 c756 -3 1393 118 1908 362 195 92 411 237 535 360 l90 89 -39 34
c-67 58 -164 92 -221 77z"/>
<path d="M2197 3653 c-11 -10 -8 -113 3 -113 6 0 10 25 10 56 0 48 2 55 18 52
11 -3 16 -12 15 -26 -2 -12 2 -22 7 -22 16 0 11 47 -6 54 -20 8 -39 8 -47 -1z"/>
<path d="M2863 3653 c9 -2 23 -2 30 0 6 3 -1 5 -18 5 -16 0 -22 -2 -12 -5z"/>
<path d="M3002 3648 c-19 -19 -14 -36 13 -54 14 -9 25 -23 25 -32 0 -13 2 -14
13 -3 10 10 5 18 -22 41 -34 29 -35 56 0 47 11 -3 17 -1 13 4 -7 13 -28 11
-42 -3z"/>
<path d="M3230 3601 c0 -34 4 -61 10 -61 6 0 10 24 10 54 0 30 -4 58 -10 61
-6 4 -10 -17 -10 -54z"/>
<path d="M3748 3654 c-5 -4 -8 -26 -8 -49 0 -30 6 -47 22 -61 13 -11 18 -13
12 -4 -5 8 -11 39 -14 68 -3 30 -8 50 -12 46z"/>
<path d="M4632 3648 c-18 -18 -15 -35 11 -55 13 -10 26 -25 29 -33 3 -11 6
-11 12 -2 5 8 -4 23 -23 39 -37 33 -38 41 -8 53 13 5 16 9 7 9 -9 1 -21 -4
-28 -11z"/>
<path d="M4805 3603 c-16 -31 -31 -59 -33 -63 -1 -4 14 -7 35 -7 21 0 28 2 16
4 -29 6 -29 18 2 68 26 42 30 55 18 55 -5 0 -21 -26 -38 -57z"/>
<path d="M4960 3640 c-23 -23 -26 -58 -6 -86 13 -17 14 -15 9 24 -4 32 -1 47
12 62 24 26 11 26 -15 0z"/>
<path d="M5017 3650 c27 -11 39 -50 24 -78 -17 -32 -12 -39 9 -13 11 13 20 31
20 40 0 23 -37 61 -58 60 -13 0 -11 -3 5 -9z"/>
<path d="M5167 3653 c-11 -10 -8 -111 3 -118 6 -4 10 17 10 54 0 48 3 61 15
61 21 0 30 -27 16 -44 -9 -11 -9 -16 -1 -21 7 -4 10 -16 7 -26 -3 -11 -2 -19
3 -19 13 0 21 32 11 44 -6 7 -7 22 -4 35 4 14 1 26 -8 32 -17 10 -43 12 -52 2z"/>
<path d="M5358 3643 c-3 -10 1 -24 9 -31 20 -19 16 -30 -14 -35 -27 -4 -27 -4
3 -6 24 -1 33 -7 37 -23 4 -12 9 -19 12 -16 6 6 -18 87 -34 116 -7 12 -9 11
-13 -5z"/>
<path d="M5697 3646 c-3 -8 -2 -18 2 -21 5 -2 11 -14 14 -26 5 -18 2 -20 -19
-16 -13 2 -24 0 -24 -4 0 -5 14 -9 30 -9 20 0 30 -5 30 -15 0 -8 5 -15 10 -15
13 0 14 -2 -14 64 -15 39 -25 53 -29 42z"/>
<path d="M6050 3653 c1 -5 7 -19 15 -33 8 -14 14 -37 15 -52 0 -16 5 -28 10
-28 17 0 11 53 -10 88 -19 31 -30 40 -30 25z"/>
<path d="M6838 3653 c7 -3 16 -2 19 1 4 3 -2 6 -13 5 -11 0 -14 -3 -6 -6z"/>
<path d="M6878 3650 c15 -18 16 -82 0 -98 -9 -9 -9 -12 0 -12 15 0 32 33 32
63 0 13 -10 32 -22 43 -13 10 -17 12 -10 4z"/>
<path d="M7167 3653 c-11 -10 -8 -123 3 -123 6 0 10 26 10 59 0 54 2 60 23 64
20 4 20 4 -4 6 -14 0 -29 -2 -32 -6z"/>
<path d="M7367 3653 c-11 -10 -8 -113 3 -113 10 0 14 30 10 83 -1 21 3 27 20
27 17 0 21 -5 19 -27 -4 -49 1 -83 11 -83 14 0 13 47 -1 52 -8 3 -8 10 2 26
12 20 12 24 -1 32 -17 11 -54 13 -63 3z"/>
<path d="M7550 3640 c-23 -23 -26 -72 -6 -89 11 -9 12 -3 8 37 -4 43 -2 49 19
59 13 7 18 12 12 12 -7 1 -22 -8 -33 -19z"/>
<path d="M7615 3646 c24 -17 24 -70 0 -96 -17 -19 -17 -20 -2 -14 28 10 46 55
35 84 -9 25 -25 40 -42 40 -6 0 -1 -6 9 -14z"/>
<path d="M7730 3653 c1 -5 7 -19 15 -33 8 -14 14 -37 15 -52 0 -16 5 -28 10
-28 17 0 11 53 -10 88 -19 31 -30 40 -30 25z"/>
<path d="M2375 3640 c-4 -7 -3 -15 2 -19 5 -3 13 -14 16 -25 6 -15 3 -18 -17
-14 -14 3 -27 0 -30 -7 -3 -8 4 -10 21 -7 18 3 30 -1 39 -13 22 -30 25 -12 6
38 -21 54 -27 63 -37 47z"/>
<path d="M2520 3595 c0 -30 5 -55 10 -55 6 0 10 11 10 25 0 34 12 32 34 -6 10
-17 20 -28 23 -25 3 3 -2 17 -11 30 -9 14 -16 33 -17 43 0 11 -3 13 -6 6 -8
-22 -23 -14 -23 12 0 14 -4 25 -10 25 -5 0 -10 -25 -10 -55z"/>
<path d="M2810 3631 c-16 -30 -12 -56 11 -77 21 -19 21 -19 8 9 -10 22 -10 36
-2 58 13 32 0 40 -17 10z"/>
<path d="M3150 3595 c0 -30 5 -55 10 -55 6 0 10 25 10 55 0 30 -4 55 -10 55
-5 0 -10 -25 -10 -55z"/>
<path d="M3376 3635 c-3 -9 0 -15 8 -15 8 0 16 -9 19 -20 4 -16 0 -20 -18 -20
-13 0 -26 -4 -29 -8 -2 -4 11 -6 30 -4 26 3 34 1 34 -12 0 -9 4 -16 9 -16 5 0
0 25 -12 55 -20 56 -31 66 -41 40z"/>
<path d="M3530 3635 c0 -8 4 -14 9 -12 4 1 27 -18 49 -43 37 -40 41 -43 42
-22 0 13 -4 21 -8 18 -5 -3 -23 13 -41 34 -35 42 -51 50 -51 25z"/>
<path d="M3833 3605 c0 -27 2 -38 4 -22 2 15 2 37 0 50 -2 12 -4 0 -4 -28z"/>
<path d="M3940 3595 c0 -30 5 -55 10 -55 6 0 10 12 10 27 l0 27 30 -34 31 -35
-16 33 c-9 18 -23 36 -31 39 -7 3 -14 16 -14 29 0 13 -4 24 -10 24 -5 0 -10
-25 -10 -55z"/>
<path d="M4357 3635 c-4 -9 -1 -15 7 -15 8 0 16 -9 19 -20 4 -16 0 -20 -21
-21 l-27 -2 25 -4 c14 -3 29 -11 33 -19 19 -33 23 -10 6 38 -18 55 -33 69 -42
43z"/>
<path d="M5510 3595 c0 -30 5 -55 10 -55 6 0 10 25 10 55 0 30 -4 55 -10 55
-5 0 -10 -25 -10 -55z"/>
<path d="M5850 3641 c0 -10 84 -101 93 -101 4 0 7 12 7 28 0 19 -3 23 -9 13
-7 -11 -15 -6 -40 20 -17 19 -31 37 -31 42 0 10 -20 9 -20 -2z"/>
<path d="M5942 3625 c0 -16 2 -22 5 -12 2 9 2 23 0 30 -3 6 -5 -1 -5 -18z"/>
<path d="M6800 3635 c-17 -20 -16 -63 1 -81 12 -11 14 -5 14 41 0 30 -1 55 -1
55 -1 0 -7 -7 -14 -15z"/>
<path d="M7008 3595 c5 -71 18 -71 21 0 1 40 -2 55 -11 55 -10 0 -12 -15 -10
-55z"/>
<path d="M7238 3638 c13 -13 16 -68 5 -84 -5 -5 0 -1 10 9 28 31 17 87 -17 87
-6 0 -5 -5 2 -12z"/>
<path d="M3533 3565 c0 -22 2 -30 4 -17 2 12 2 30 0 40 -3 9 -5 -1 -4 -23z"/>
<path d="M6550 3579 c0 -13 4 -30 9 -38 6 -9 8 -4 7 17 -2 37 -16 56 -16 21z"/>
<path d="M6626 3569 c-10 -17 -16 -33 -13 -36 3 -3 13 9 22 27 21 41 14 48 -9
9z"/>
<path d="M6307 3576 c-3 -8 0 -22 7 -32 11 -15 12 -13 8 14 -5 36 -7 38 -15
18z"/>
<path d="M6390 3580 c0 -5 9 -14 20 -20 11 -6 20 -7 20 -3 0 5 -9 14 -20 21
-11 7 -20 8 -20 2z"/>
<path d="M5841 3554 c0 -11 3 -14 6 -6 3 7 2 16 -1 19 -3 4 -6 -2 -5 -13z"/>
<path d="M6522 3550 c0 -14 2 -19 5 -12 2 6 2 18 0 25 -3 6 -5 1 -5 -13z"/>
<path d="M4117 3553 c-4 -3 -7 -11 -7 -17 0 -6 5 -5 12 2 6 6 9 14 7 17 -3 3
-9 2 -12 -2z"/>
<path d="M4550 3355 c0 -30 4 -55 9 -55 5 0 9 25 8 55 -1 30 -5 55 -9 55 -4 0
-8 -25 -8 -55z"/>
<path d="M5199 3408 c-7 -17 -7 -98 -1 -102 5 -3 10 19 11 49 1 30 -1 55 -4
55 -3 0 -5 -1 -6 -2z"/>
<path d="M5450 3356 c0 -31 4 -56 8 -56 11 0 13 98 1 105 -5 4 -9 -18 -9 -49z"/>
<path d="M5340 3342 c0 -23 4 -42 9 -42 6 0 7 17 4 38 -8 51 -13 53 -13 4z"/>
<path d="M4257 3363 c-10 -9 -9 -65 1 -59 7 4 16 66 9 66 -2 0 -7 -3 -10 -7z"/>
<path d="M4327 3363 c-13 -13 -7 -51 9 -57 14 -5 15 -4 4 9 -7 8 -10 24 -7 35
5 21 4 24 -6 13z"/>
<path d="M4360 3355 c0 -8 4 -15 10 -15 5 0 7 7 4 15 -4 8 -8 15 -10 15 -2 0
-4 -7 -4 -15z"/>
<path d="M4410 3333 c0 -20 3 -33 6 -30 11 10 13 67 3 67 -5 0 -9 -16 -9 -37z"/>
<path d="M4459 3332 c5 -34 6 -35 9 -8 2 16 0 32 -5 37 -5 5 -7 -7 -4 -29z"/>
<path d="M4512 3358 c-15 -15 -15 -33 1 -46 9 -8 12 -2 12 24 0 19 0 34 0 34
-1 0 -6 -5 -13 -12z"/>
<path d="M4640 3355 c0 -8 4 -15 10 -15 5 0 7 7 4 15 -4 8 -8 15 -10 15 -2 0
-4 -7 -4 -15z"/>
<path d="M4709 3343 c-7 -16 -15 -31 -17 -35 -2 -5 0 -8 5 -8 9 0 35 61 29 67
-1 2 -9 -9 -17 -24z"/>
<path d="M4820 3340 c0 -18 4 -29 10 -25 6 3 10 15 10 25 0 10 -4 22 -10 25
-6 4 -10 -7 -10 -25z"/>
<path d="M4872 3319 c-1 -31 2 -48 8 -44 12 7 14 95 2 95 -4 0 -9 -23 -10 -51z"/>
<path d="M4960 3355 c0 -8 4 -15 10 -15 5 0 7 7 4 15 -4 8 -8 15 -10 15 -2 0
-4 -7 -4 -15z"/>
<path d="M5010 3335 c0 -19 5 -35 10 -35 6 0 10 16 10 35 0 19 -4 35 -10 35
-5 0 -10 -16 -10 -35z"/>
<path d="M5058 3335 c2 -19 6 -35 8 -35 2 0 4 16 4 35 0 19 -4 35 -8 35 -4 0
-6 -16 -4 -35z"/>
<path d="M5403 3335 c0 -22 2 -30 4 -17 2 12 2 30 0 40 -3 9 -5 -1 -4 -23z"/>
<path d="M5500 3335 c0 -19 4 -35 9 -35 5 0 9 16 8 35 -1 19 -5 35 -9 35 -4 0
-8 -16 -8 -35z"/>
<path d="M5548 3335 c2 -19 6 -35 8 -35 2 0 4 16 4 35 0 19 -4 35 -8 35 -4 0
-6 -16 -4 -35z"/>
<path d="M5588 3335 c2 -19 6 -35 8 -35 2 0 4 16 4 35 0 19 -4 35 -8 35 -4 0
-6 -16 -4 -35z"/>
<path d="M5640 3320 c0 -29 2 -51 5 -48 8 7 9 87 2 95 -4 3 -7 -18 -7 -47z"/>
<path d="M5697 3362 c-13 -20 1 -62 21 -62 11 0 13 3 5 8 -6 4 -13 21 -15 37
-2 21 -6 26 -11 17z"/>
<path d="M4600 3344 c0 -10 5 -26 10 -34 8 -11 9 -8 6 14 -6 34 -16 47 -16 20z"/>
<path d="M4775 3350 c-5 -8 10 -50 19 -50 1 0 1 14 -2 30 -5 32 -7 36 -17 20z"/>
<path d="M4923 3344 c-3 -8 1 -22 9 -30 13 -13 14 -11 10 16 -5 34 -10 37 -19
14z"/>
<path d="M5110 3336 c0 -14 4 -27 8 -30 5 -3 6 8 4 25 -5 35 -12 38 -12 5z"/>
<path d="M5730 3350 c0 -5 5 -10 10 -10 6 0 10 5 10 10 0 6 -4 10 -10 10 -5 0
-10 -4 -10 -10z"/>
<path d="M5220 3331 c0 -5 7 -15 17 -22 15 -13 15 -12 4 9 -12 23 -21 28 -21
13z"/>
<path d="M8560 3060 c-23 -27 -36 -50 -29 -50 24 0 109 65 109 83 0 33 -38 17
-80 -33z"/>
<path d="M8680 3060 c-23 -27 -36 -50 -29 -50 25 0 109 62 109 81 0 35 -37 21
-80 -31z"/>
<path d="M3725 2961 c-78 -20 -137 -70 -155 -131 -16 -58 -12 -137 10 -180 32
-64 89 -94 179 -98 72 -4 79 -2 126 30 67 45 98 102 97 178 -2 116 -68 190
-182 203 -25 3 -58 2 -75 -2z m127 -60 c65 -72 61 -220 -7 -288 -27 -27 -41
-33 -77 -33 -84 0 -122 53 -122 170 -1 62 3 83 24 120 42 75 128 89 182 31z"/>
<path d="M6457 2959 c-75 -17 -128 -67 -153 -144 -32 -99 12 -206 101 -246 95
-43 222 -12 279 68 50 72 47 190 -6 258 -41 53 -142 82 -221 64z m121 -45 c34
-23 53 -76 53 -154 1 -114 -48 -180 -132 -180 -75 0 -125 80 -117 187 10 139
102 208 196 147z"/>
<path d="M7045 2963 c-56 -15 -95 -66 -95 -125 0 -44 21 -72 78 -105 68 -38
92 -63 92 -93 0 -63 -89 -83 -133 -31 l-25 30 -6 -32 c-9 -46 13 -60 92 -55
54 3 67 8 93 34 31 31 48 80 41 121 -4 29 -46 68 -108 102 -59 32 -78 69 -49
101 25 28 90 28 105 0 14 -25 30 -17 30 15 0 14 -7 26 -17 29 -36 10 -79 14
-98 9z"/>
<path d="M8557 2959 c-117 -28 -187 -145 -157 -260 27 -103 104 -154 221 -147
84 5 142 40 177 108 37 74 25 186 -26 243 -43 48 -143 74 -215 56z m114 -42
c88 -59 86 -263 -3 -317 -84 -51 -170 -3 -183 103 -13 99 15 185 69 218 41 25
76 24 117 -4z"/>
<path d="M1451 2938 c-92 -241 -130 -335 -148 -370 -2 -5 7 -8 21 -8 21 0 27
8 44 58 l19 57 68 0 68 0 20 -57 19 -58 43 0 44 0 -26 68 c-29 75 -85 225
-109 290 -18 48 -49 57 -63 20z m36 -159 c13 -34 20 -66 17 -70 -5 -9 -104
-13 -104 -5 0 4 22 66 39 109 6 15 14 27 18 27 5 0 18 -28 30 -61z"/>
<path d="M2230 2936 c0 -22 3 -23 50 -18 l50 5 0 -182 0 -181 40 0 40 0 0 181
0 182 50 -5 c47 -5 50 -4 50 18 l0 24 -140 0 -140 0 0 -24z"/>
<path d="M2750 2761 l0 -201 40 0 40 0 0 190 c0 105 1 193 3 198 1 4 -17 8
-40 10 l-43 3 0 -200z"/>
<path d="M3080 2936 c0 -22 3 -23 50 -18 l50 5 0 -182 0 -181 40 0 40 0 0 181
0 182 50 -6 c48 -6 50 -5 50 18 l0 25 -140 0 -140 0 0 -24z"/>
<path d="M4240 2958 c0 -2 -1 -92 -3 -201 l-2 -197 42 0 42 0 3 93 3 92 34
-60 c69 -124 71 -125 123 -125 l47 0 -30 48 c-17 26 -50 78 -74 116 l-44 69
52 59 c29 33 61 71 71 85 l19 25 -28 -4 c-23 -2 -43 -23 -99 -97 l-71 -93 -3
96 -3 96 -39 0 c-22 0 -40 -1 -40 -2z"/>
<path d="M4780 2938 c0 -22 3 -23 85 -20 47 2 85 1 85 -3 0 -14 -109 -211
-174 -314 l-26 -41 155 0 c141 0 155 2 155 18 0 15 -10 17 -95 14 -56 -2 -95
0 -95 6 0 9 66 131 144 267 25 44 46 83 46 88 0 4 -63 7 -140 7 -139 0 -140 0
-140 -22z"/>
<path d="M5435 2933 c-6 -24 -91 -245 -129 -335 -16 -38 -16 -38 7 -38 18 0
26 10 42 58 l20 57 69 0 69 0 19 -57 20 -58 43 0 43 0 -52 133 c-29 72 -63
162 -76 200 -20 55 -28 67 -46 67 -15 0 -24 -8 -29 -27z m42 -155 c12 -34 19
-66 17 -70 -3 -4 -28 -8 -56 -8 -47 0 -50 1 -44 23 9 36 46 117 54 117 4 0 17
-28 29 -62z"/>
<path d="M5810 2935 c0 -23 2 -24 49 -18 l48 5 7 -35 c4 -19 4 -101 1 -181
l-6 -146 43 0 43 0 -3 181 -4 182 50 -5 c42 -4 51 -2 55 13 3 10 2 20 -1 23
-3 3 -68 6 -144 6 l-138 0 0 -25z"/>
<path d="M7810 2791 c0 -93 -3 -183 -6 -200 -6 -29 -4 -31 20 -31 l27 0 -1
113 c-3 193 -9 181 55 112 30 -33 85 -97 122 -142 49 -59 74 -83 91 -83 21 0
22 3 22 93 0 52 3 142 7 200 6 105 6 107 -15 107 -21 0 -22 -3 -22 -140 0 -77
-3 -140 -7 -140 -5 1 -62 64 -128 140 -88 102 -126 140 -142 140 -23 0 -23 0
-23 -169z"/>
<path d="M3294 2120 c-1 -78 13 -78 18 0 2 36 -1 60 -7 60 -5 0 -10 -27 -11
-60z"/>
<path d="M3457 2174 c-4 -4 -2 -12 3 -19 5 -6 11 -20 14 -31 9 -40 19 -64 27
-64 12 0 12 -1 -14 63 -13 32 -26 54 -30 51z"/>
<path d="M3610 2160 c0 -11 5 -19 10 -17 6 1 28 -18 50 -43 l39 -45 1 30 c0
18 -3 25 -8 18 -5 -8 -19 2 -42 32 -39 49 -50 55 -50 25z"/>
<path d="M3826 2164 c-9 -8 -16 -28 -16 -44 0 -16 7 -36 16 -44 23 -23 25 -20
7 12 -15 26 -15 31 0 60 17 36 16 39 -7 16z"/>
<path d="M4120 2167 c0 -7 7 -35 16 -61 11 -33 19 -44 25 -35 4 8 4 16 -1 19
-4 3 -11 22 -15 43 -7 37 -25 62 -25 34z"/>
<path d="M4187 2160 c-3 -11 -1 -18 3 -15 5 3 14 -12 20 -32 15 -47 26 -59 33
-39 3 8 2 18 -3 21 -5 3 -14 24 -20 45 -12 44 -25 51 -33 20z"/>
<path d="M4365 2133 c2 -64 4 -73 13 -73 4 0 7 27 7 60 0 35 -4 60 -10 60 -6
0 -10 -20 -10 -47z"/>
<path d="M4530 2120 c0 -33 4 -60 9 -60 4 0 9 27 10 60 1 34 -3 60 -9 60 -6 0
-10 -26 -10 -60z"/>
<path d="M4990 2120 c0 -34 4 -60 10 -60 6 0 9 24 8 60 -1 33 -6 60 -10 60 -5
0 -8 -27 -8 -60z"/>
<path d="M5035 2150 c0 -16 3 -30 7 -30 10 0 20 38 13 50 -12 19 -20 10 -20
-20z"/>
<path d="M5170 2170 c0 -6 4 -18 9 -28 5 -9 15 -32 21 -49 22 -58 28 -35 8 27
-11 33 -24 60 -29 60 -5 0 -9 -5 -9 -10z"/>
<path d="M5328 2168 c-4 -14 7 -117 11 -108 6 12 5 120 0 120 -4 0 -9 -6 -11
-12z"/>
<path d="M5380 2159 c0 -14 -5 -30 -11 -36 -8 -8 -6 -18 6 -37 21 -31 32 -28
15 4 -9 18 -9 28 1 46 10 19 10 27 1 36 -9 9 -12 6 -12 -13z"/>
<path d="M5500 2120 c0 -63 16 -84 22 -27 l3 32 18 -32 c10 -18 22 -33 28 -33
13 0 -22 61 -38 67 -7 3 -13 16 -13 29 0 13 -4 24 -10 24 -6 0 -10 -27 -10
-60z"/>
<path d="M5559 2163 c-13 -16 -12 -17 4 -4 16 13 21 21 13 21 -2 0 -10 -8 -17
-17z"/>
<path d="M5790 2120 c0 -33 4 -60 10 -60 6 0 10 13 10 29 0 25 5 30 28 34 l27
4 -27 2 c-23 1 -28 6 -28 26 0 14 -4 25 -10 25 -6 0 -10 -27 -10 -60z"/>
<path d="M5873 2125 c0 -30 3 -58 8 -61 5 -3 9 22 9 55 0 76 -15 81 -17 6z"/>
<path d="M6027 2166 c-4 -9 -2 -16 3 -16 6 0 10 -5 10 -10 0 -19 30 -83 36
-77 6 6 -23 95 -36 110 -4 5 -10 1 -13 -7z"/>
<path d="M6180 2120 l0 -60 33 1 c23 1 26 3 10 6 -16 3 -23 11 -23 28 0 17 7
25 23 28 l22 4 -22 2 c-17 1 -23 7 -23 26 0 14 -4 25 -10 25 -6 0 -10 -27 -10
-60z"/>
<path d="M6460 2120 c0 -33 4 -60 10 -60 6 0 10 27 10 60 0 33 -4 60 -10 60
-6 0 -10 -27 -10 -60z"/>
<path d="M6590 2120 c0 -33 3 -60 8 -60 4 0 7 27 8 60 0 33 -3 60 -8 60 -4 0
-8 -27 -8 -60z"/>
<path d="M4750 2120 c0 -5 7 -10 15 -10 8 0 15 5 15 10 0 6 -7 10 -15 10 -8 0
-15 -4 -15 -10z"/>
<path d="M3897 2085 c-3 -16 0 -24 7 -22 14 4 21 47 8 47 -5 0 -12 -11 -15
-25z"/>
<path d="M6338 2093 c7 -3 16 -2 19 1 4 3 -2 6 -13 5 -11 0 -14 -3 -6 -6z"/>
<path d="M4408 2063 c7 -3 16 -2 19 1 4 3 -2 6 -13 5 -11 0 -14 -3 -6 -6z"/>
<path d="M3492 1635 c0 -16 2 -22 5 -12 2 9 2 23 0 30 -3 6 -5 -1 -5 -18z"/>
<path d="M7342 1640 c0 -14 2 -19 5 -12 2 6 2 18 0 25 -3 6 -5 1 -5 -13z"/>
<path d="M7493 1625 c0 -22 2 -30 4 -17 2 12 2 30 0 40 -3 9 -5 -1 -4 -23z"/>
<path d="M3721 1634 c0 -11 3 -14 6 -6 3 7 2 16 -1 19 -3 4 -6 -2 -5 -13z"/>
<path d="M4961 1624 c0 -11 3 -14 6 -6 3 7 2 16 -1 19 -3 4 -6 -2 -5 -13z"/>
<path d="M5293 1495 c0 -22 2 -30 4 -17 2 12 2 30 0 40 -3 9 -5 -1 -4 -23z"/>
<path d="M7623 1495 c0 -22 2 -30 4 -17 2 12 2 30 0 40 -3 9 -5 -1 -4 -23z"/>
<path d="M6412 1490 c0 -19 2 -27 5 -17 2 9 2 25 0 35 -3 9 -5 1 -5 -18z"/>
<path d="M6542 1370 c0 -14 2 -19 5 -12 2 6 2 18 0 25 -3 6 -5 1 -5 -13z"/>
<path d="M5282 1355 c0 -16 2 -22 5 -12 2 9 2 23 0 30 -3 6 -5 -1 -5 -18z"/>
<path d="M2912 1235 c0 -16 2 -22 5 -12 2 9 2 23 0 30 -3 6 -5 -1 -5 -18z"/>
<path d="M5032 1235 c0 -16 2 -22 5 -12 2 9 2 23 0 30 -3 6 -5 -1 -5 -18z"/>
<path d="M3772 1230 c0 -14 2 -19 5 -12 2 6 2 18 0 25 -3 6 -5 1 -5 -13z"/>
<path d="M6151 1214 c0 -11 3 -14 6 -6 3 7 2 16 -1 19 -3 4 -6 -2 -5 -13z"/>
<path d="M4831 1204 c0 -11 3 -14 6 -6 3 7 2 16 -1 19 -3 4 -6 -2 -5 -13z"/>
<path d="M2176 1103 c-5 -11 -1 -22 10 -30 23 -16 38 -2 29 26 -8 25 -30 28
-39 4z"/>
<path d="M5552 1090 c0 -19 2 -27 5 -17 2 9 2 25 0 35 -3 9 -5 1 -5 -18z"/>
<path d="M2862 1080 c0 -14 2 -19 5 -12 2 6 2 18 0 25 -3 6 -5 1 -5 -13z"/>
<path d="M8060 1096 c0 -2 7 -7 16 -10 8 -3 12 -2 9 4 -6 10 -25 14 -25 6z"/>
<path d="M3721 1074 c0 -11 3 -14 6 -6 3 7 2 16 -1 19 -3 4 -6 -2 -5 -13z"/>
<path d="M2236 1065 c-7 -19 23 -50 36 -37 13 13 0 52 -17 52 -7 0 -15 -7 -19
-15z"/>
<path d="M2381 1044 c0 -11 3 -14 6 -6 3 7 2 16 -1 19 -3 4 -6 -2 -5 -13z"/>
<path d="M2411 1044 c0 -11 3 -14 6 -6 3 7 2 16 -1 19 -3 4 -6 -2 -5 -13z"/>
<path d="M8070 1050 c-9 -6 -10 -10 -3 -10 6 0 15 5 18 10 8 12 4 12 -15 0z"/>
<path d="M2191 1022 c-12 -23 1 -45 22 -36 18 7 20 14 11 38 -8 21 -21 20 -33
-2z"/>
</g>
</svg>
