<?xml version="1.0" standalone="no"?>
<!DOCTYPE svg PUBLIC "-//W3C//DTD SVG 20010904//EN"
 "http://www.w3.org/TR/2001/REC-SVG-20010904/DTD/svg10.dtd">
<svg version="1.0" xmlns="http://www.w3.org/2000/svg"
 width="1000.000000pt" height="1500.000000pt" viewBox="0 0 1000.000000 1500.000000"
 preserveAspectRatio="xMidYMid meet">

<g transform="translate(0.000000,1500.000000) scale(0.100000,-0.100000)"
fill="#000000" stroke="none">
<path d="M0 13815 l0 -285 480 0 480 0 0 -1125 0 -1125 305 0 305 0 0 1125 0
1125 430 0 430 0 0 285 0 285 -1215 0 -1215 0 0 -285z"/>
<path d="M3270 12690 l0 -1410 300 0 300 0 0 1410 0 1410 -300 0 -300 0 0
-1410z"/>
<path d="M4930 12690 l0 -1410 1010 0 1010 0 0 280 0 280 -705 0 -705 0 0
1130 0 1130 -305 0 -305 0 0 -1410z"/>
<path d="M7880 12690 l0 -1410 1060 0 1060 0 0 280 0 280 -760 0 -760 0 0
1130 0 1130 -300 0 -300 0 0 -1410z"/>
<path d="M3046 11010 c-14 -22 -26 -44 -26 -50 0 -5 18 -10 40 -10 33 0 47 7
92 50 l53 49 -66 1 -66 0 -27 -40z"/>
<path d="M946 10916 c-92 -34 -149 -127 -149 -241 0 -86 24 -146 77 -193 45
-39 69 -50 122 -52 73 -4 91 0 128 25 34 23 36 23 36 5 0 -17 7 -20 50 -20
l50 0 0 130 0 130 -100 0 -100 0 0 -50 c0 -49 1 -50 31 -50 39 0 37 -29 -5
-49 -23 -11 -37 -11 -67 -2 -62 19 -88 77 -74 167 9 60 41 94 90 94 34 0 75
-27 75 -50 0 -6 30 -10 71 -10 l71 0 -7 28 c-10 43 -50 98 -90 122 -47 29
-152 37 -209 16z"/>
<path d="M2475 10917 c-72 -29 -105 -77 -105 -152 0 -68 34 -96 161 -135 96
-30 100 -32 97 -58 -6 -55 -99 -55 -126 1 -12 26 -17 27 -83 27 l-69 0 0 -29
c0 -42 39 -93 93 -120 99 -49 257 -23 311 52 16 21 21 44 21 89 0 55 -3 62
-32 88 -18 16 -58 36 -90 45 -118 33 -144 45 -141 69 3 18 10 21 48 21 37 0
47 -4 55 -22 9 -21 17 -23 79 -23 l69 0 -7 33 c-8 41 -35 77 -76 101 -40 24
-161 31 -205 13z"/>
<path d="M3529 10916 c-61 -21 -96 -54 -126 -114 -36 -74 -39 -184 -6 -247 40
-77 100 -120 173 -125 68 -5 98 0 134 25 34 23 36 23 36 5 0 -17 7 -20 50 -20
l50 0 0 130 0 130 -100 0 -100 0 0 -50 c0 -49 1 -50 31 -50 24 0 30 -4 27 -17
-5 -28 -55 -47 -96 -37 -62 16 -94 91 -78 179 16 83 100 114 149 55 24 -28 31
-30 92 -30 75 0 75 1 34 82 -42 82 -166 121 -270 84z"/>
<path d="M4098 10920 c-111 -33 -178 -144 -164 -273 14 -137 105 -220 241
-219 77 1 136 24 176 70 115 130 76 345 -75 413 -43 19 -129 24 -178 9z m127
-126 c67 -44 56 -207 -17 -242 -34 -16 -69 -7 -99 24 -28 30 -38 127 -19 174
24 57 85 77 135 44z"/>
<path d="M550 10680 l0 -240 75 0 75 0 0 240 0 240 -75 0 -75 0 0 -240z"/>
<path d="M1410 10688 c-47 -127 -86 -235 -88 -240 -2 -4 30 -8 71 -8 l74 0 9
33 10 32 79 0 79 0 8 -32 9 -33 74 0 c41 0 75 2 75 5 0 5 -141 397 -162 448
-10 26 -13 27 -82 27 l-71 0 -85 -232z m179 2 c7 -25 15 -53 17 -62 5 -15 -2
-18 -39 -18 l-44 0 20 70 c12 38 24 67 27 62 4 -4 12 -27 19 -52z"/>
<path d="M1870 10860 l0 -59 107 -3 106 -3 -111 -121 -112 -122 0 -56 0 -56
215 0 215 0 0 60 0 59 -116 3 -116 3 111 124 111 125 0 53 0 53 -205 0 -205 0
0 -60z"/>
<path d="M2989 10893 c-37 -96 -159 -437 -159 -444 0 -5 31 -9 68 -9 68 0 69
0 83 33 14 32 14 32 89 32 l74 0 10 -32 9 -33 73 0 c53 0 74 4 73 13 0 6 -37
113 -83 237 l-82 225 -72 3 c-71 3 -72 2 -83 -25z m121 -275 c0 -5 -18 -8 -40
-8 -27 0 -40 4 -40 14 0 12 19 72 36 116 5 12 44 -96 44 -122z"/>
<path d="M4490 10860 l0 -60 65 0 65 0 0 -180 0 -180 75 0 75 0 0 180 0 180
70 0 70 0 0 60 0 60 -210 0 -210 0 0 -60z"/>
<path d="M5382 10893 c-29 -74 -162 -440 -162 -446 0 -4 31 -7 70 -7 l70 0 14
35 c15 35 15 35 80 35 69 0 96 -14 96 -51 0 -17 8 -19 80 -19 l80 0 -24 64
c-13 34 -53 142 -87 240 l-64 176 -71 0 c-69 0 -72 -1 -82 -27z m118 -270 c0
-8 -15 -13 -40 -13 -22 0 -40 4 -40 8 0 8 23 83 37 122 5 14 43 -89 43 -117z"/>
<path d="M6040 10680 l0 -240 70 0 70 0 0 90 0 90 100 0 100 0 0 55 0 55 -101
0 -100 0 3 33 3 32 113 3 112 3 0 59 0 60 -185 0 -185 0 0 -240z"/>
<path d="M6490 10680 l0 -240 75 0 75 0 0 240 0 240 -75 0 -75 0 0 -240z"/>
<path d="M6873 10888 c-10 -31 -143 -391 -158 -430 -6 -16 0 -18 69 -18 l75 0
9 33 8 32 79 0 79 0 8 -32 9 -33 74 0 c41 0 75 2 75 5 0 2 -34 98 -76 212 -42
114 -81 220 -86 236 -10 26 -12 27 -82 27 l-73 0 -10 -32z m107 -205 c11 -36
18 -68 16 -70 -2 -2 -22 -3 -44 -1 l-39 3 20 68 c11 37 21 67 23 67 2 0 12
-30 24 -67z"/>
<path d="M7270 10680 l0 -240 70 0 70 0 1 153 1 152 41 -152 42 -153 56 0 56
0 41 148 41 147 0 -147 1 -148 70 0 70 0 0 240 0 240 -104 0 -104 0 -33 -135
c-18 -75 -36 -132 -39 -128 -4 4 -21 64 -38 133 l-29 125 -107 3 -106 3 0
-241z"/>
<path d="M7950 10680 l0 -240 70 0 70 0 0 128 0 127 72 -127 71 -128 74 0 73
0 0 240 0 240 -70 0 -69 0 -3 -127 -3 -128 -69 128 -69 127 -73 0 -74 0 0
-240z"/>
<path d="M8540 10689 c-47 -127 -86 -235 -88 -240 -2 -5 30 -9 72 -9 l75 0 9
33 8 32 75 0 c74 0 74 0 88 -32 15 -33 15 -33 88 -33 40 0 73 2 73 4 0 4 -145
406 -162 449 -10 26 -13 27 -82 27 l-71 0 -85 -231z m179 -6 c11 -37 19 -69
17 -71 -2 -2 -22 -2 -44 0 l-39 3 20 68 c11 37 21 67 23 67 2 0 12 -30 23 -67z"/>
<path d="M9020 10680 l0 -240 70 0 70 0 0 68 c0 59 3 72 24 91 l23 22 58 -90
57 -91 89 0 c49 0 89 2 89 5 0 3 -41 64 -90 134 -50 71 -92 136 -95 143 -3 8
31 53 81 106 l86 92 -91 0 -90 0 -63 -79 c-35 -44 -66 -80 -70 -80 -5 -1 -8
35 -8 79 l0 80 -70 0 -70 0 0 -240z"/>
<path d="M5725 9358 c-22 -5 -55 -6 -73 -3 -62 11 -169 -6 -212 -34 -42 -27
-50 -45 -25 -54 33 -13 194 -401 245 -594 12 -41 27 -90 34 -108 13 -31 13
-33 -11 -44 -32 -14 -39 -9 -18 13 9 9 12 16 7 16 -16 0 -24 33 -10 42 10 6
10 8 1 8 -8 0 -13 14 -13 38 0 21 -9 55 -20 76 -10 22 -17 43 -14 47 3 5 1 9
-4 9 -12 0 -36 58 -35 82 1 10 -2 16 -8 13 -5 -4 -9 3 -9 13 0 11 -7 25 -15
32 -9 7 -14 19 -11 26 3 7 1 16 -5 19 -5 4 -8 14 -7 23 2 11 -3 16 -12 14 -12
-3 -12 -1 -3 9 9 9 9 15 -2 26 -8 7 -12 20 -9 28 4 8 1 15 -6 15 -6 0 -8 5 -4
11 10 16 -16 58 -32 52 -8 -3 -14 0 -14 6 0 6 5 11 10 11 6 0 10 5 10 11 0 5
-4 8 -9 5 -5 -3 -12 1 -15 10 -3 8 -2 12 4 9 6 -3 10 -2 10 4 0 24 -77 18 -83
-8 -4 -14 -5 -14 -6 2 -1 16 -21 25 -21 9 0 -4 -17 -9 -37 -9 -21 -1 -39 -6
-41 -12 -2 -5 -9 -8 -17 -5 -7 3 -16 0 -20 -5 -3 -6 -11 -8 -17 -5 -6 4 -14 1
-18 -6 -4 -7 -23 -14 -42 -15 -18 -2 -50 -10 -70 -19 -21 -9 -44 -16 -52 -16
-8 0 -17 -6 -19 -12 -4 -9 -6 -9 -6 -1 -1 11 -111 -9 -201 -37 -19 -6 -87 -21
-150 -35 -63 -13 -144 -31 -180 -40 -412 -98 -677 -130 -1067 -130 l-201 0
-10 -31 c-11 -36 -1 -61 18 -49 9 6 11 4 6 -4 -5 -7 -15 -10 -24 -6 -23 9 -31
-14 -16 -44 12 -22 12 -28 -1 -37 -17 -12 -21 -29 -5 -19 6 3 10 0 10 -9 0 -8
-5 -16 -12 -18 -8 -3 -13 -37 -14 -105 -1 -55 -4 -105 -7 -110 -4 -6 -1 -18 6
-28 14 -17 11 -75 -3 -75 -7 0 -4 -60 5 -87 2 -7 0 -15 -5 -18 -5 -3 -5 -19 1
-37 6 -22 5 -34 -2 -39 -8 -4 -7 -8 2 -12 9 -3 7 -6 -6 -6 -15 -1 -12 -5 13
-18 18 -9 29 -19 24 -22 -4 -3 -9 -42 -9 -86 -1 -59 1 -71 7 -45 6 28 8 19 10
-45 1 -44 2 -109 1 -145 0 -45 3 -60 9 -50 6 9 10 10 10 3 0 -6 -4 -15 -10
-18 -5 -3 -10 -44 -10 -90 0 -57 -4 -85 -12 -88 -10 -4 -9 -8 2 -16 13 -10 13
-11 0 -12 -8 -1 -20 -1 -26 0 -7 1 -14 -6 -18 -14 -5 -14 -8 -14 -31 1 -21 14
-28 15 -38 4 -10 -10 -9 -12 5 -7 17 6 33 -17 22 -34 -3 -5 1 -9 9 -9 7 0 20
-11 27 -25 15 -27 30 -31 48 -13 9 9 12 8 12 -5 0 -15 11 -17 83 -17 93 0 357
17 402 26 20 4 27 3 20 -4 -10 -10 -198 -26 -430 -38 -60 -3 -174 -9 -252 -15
-193 -12 -336 -11 -473 5 -63 8 -117 12 -119 10 -10 -10 97 -46 205 -70 126
-27 331 -43 569 -44 89 0 125 -4 113 -10 -16 -10 -14 -50 3 -50 5 0 6 -7 3
-15 -4 -8 -2 -21 3 -28 15 -18 23 -57 12 -57 -5 0 -9 -11 -9 -24 0 -15 -12
-33 -35 -50 -19 -15 -35 -34 -35 -42 0 -8 -7 -17 -15 -20 -20 -8 -19 -43 1
-51 8 -3 13 -12 10 -19 -3 -7 3 -16 13 -19 11 -3 24 -20 31 -38 24 -65 45
-103 82 -144 40 -45 49 -66 22 -56 -14 5 -15 3 -5 -16 7 -12 19 -25 27 -28 9
-3 12 -13 9 -24 -5 -14 -1 -19 11 -19 10 0 14 -3 10 -7 -4 -5 -11 -8 -15 -8
-5 0 -20 -9 -34 -19 -22 -17 -23 -21 -11 -34 19 -18 13 -48 -8 -44 -40 6 -22
-19 42 -62 38 -25 76 -59 85 -76 9 -16 14 -30 11 -30 -9 0 -112 53 -126 65 -8
8 -40 22 -70 32 -86 29 -213 17 -305 -28 -38 -19 -75 -43 -80 -55 -6 -11 -15
-19 -21 -17 -6 2 -17 -4 -25 -14 -13 -16 -12 -17 4 -4 14 11 17 11 16 0 0 -8
-21 -27 -46 -44 -44 -29 -65 -64 -77 -135 -1 -8 -5 -22 -8 -30 -45 -114 -62
-256 -54 -450 3 -81 15 -187 26 -240 23 -109 24 -120 10 -120 -5 0 -10 7 -10
15 0 8 -5 15 -11 15 -5 0 -7 5 -4 10 3 6 1 10 -5 10 -29 0 15 -64 45 -65 5 0
13 -11 17 -25 30 -104 83 -249 100 -272 19 -28 19 -58 -1 -58 -10 0 -15 14
-24 65 -2 11 -8 19 -15 18 -15 -4 -49 60 -34 65 9 3 7 28 -5 62 -4 11 -8 8
-12 -9 -6 -23 -8 -22 -23 17 -16 41 -16 42 4 31 28 -15 14 7 -25 40 -18 16
-27 31 -24 43 3 11 0 18 -9 18 -15 0 -25 16 -52 87 -12 32 -16 56 -11 65 7 10
10 8 15 -9 4 -13 11 -23 16 -23 6 0 8 7 4 15 -6 17 9 21 19 5 3 -5 10 -10 15
-10 16 0 -5 43 -28 58 -20 13 -22 13 -22 -2 0 -9 -4 -16 -9 -16 -5 0 -18 40
-30 89 -20 86 -39 145 -40 127 -1 -5 -10 -1 -21 9 -20 18 -20 18 -6 -26 26
-86 47 -144 58 -156 12 -14 1 -71 -11 -57 -4 5 -20 55 -36 111 -22 79 -31 100
-41 92 -8 -7 -14 -6 -17 3 -3 7 -6 2 -6 -12 0 -24 20 -117 33 -150 11 -29 15
-70 6 -70 -11 0 -24 42 -46 145 -9 44 -19 84 -22 90 -10 17 -20 -38 -14 -80 5
-38 4 -39 -13 -25 -16 14 -17 13 -12 -5 3 -11 11 -46 18 -78 7 -35 15 -53 20
-45 5 8 10 3 14 -15 4 -15 11 -27 17 -27 5 0 6 -9 3 -20 -4 -12 -2 -20 5 -20
7 0 10 -8 7 -20 -3 -13 0 -20 9 -20 8 0 16 -16 20 -40 6 -35 8 -38 19 -24 6
10 17 14 22 11 16 -10 23 -60 11 -74 -12 -15 1 -17 22 -3 19 12 30 -5 30 -47
0 -23 -5 -33 -15 -33 -21 0 -19 -17 4 -30 13 -6 17 -17 14 -30 -3 -12 0 -20 7
-20 8 0 11 -9 8 -25 -3 -14 -2 -25 2 -25 5 0 6 -10 3 -21 -4 -14 0 -26 11 -34
9 -7 18 -22 19 -33 0 -11 5 -18 10 -15 4 3 6 11 3 19 -3 8 -2 14 3 14 11 0 41
-34 41 -48 0 -6 7 -9 16 -5 9 3 14 13 11 24 -3 11 -3 19 -1 19 4 0 47 -83 47
-90 -1 -13 39 -80 47 -80 16 0 12 -30 -5 -36 -8 -4 -15 -11 -15 -17 0 -7 4 -7
12 1 20 20 32 14 58 -27 13 -22 28 -37 33 -34 4 3 1 14 -9 24 -9 10 -13 19 -9
19 4 0 1 8 -8 18 -13 14 -14 21 -5 30 9 9 8 12 -6 12 -13 0 -16 5 -11 20 5 15
3 18 -9 14 -9 -3 -21 4 -31 20 -14 21 -15 29 -5 41 7 9 10 18 6 22 -3 3 -6 1
-6 -5 0 -7 -7 -12 -15 -12 -15 0 -91 147 -81 157 3 4 6 3 6 -1 0 -4 7 -1 15 8
20 19 20 18 -20 62 -19 22 -38 49 -41 62 -3 12 -11 22 -17 22 -6 0 -7 3 -4 6
4 4 -2 19 -13 34 -20 28 -43 110 -31 110 4 0 14 -12 22 -27 8 -16 20 -32 26
-36 7 -4 13 -13 13 -18 0 -15 80 -178 91 -185 5 -3 6 -16 3 -30 -4 -14 -2 -24
4 -24 14 0 54 -66 50 -82 -1 -7 9 -26 24 -41 l26 -28 11 32 c13 37 14 49 3 31
-13 -19 -43 18 -36 45 6 22 34 21 34 -1 1 -14 65 -82 125 -131 62 -52 75 -79
65 -135 -13 -67 -12 -80 5 -74 11 5 13 2 9 -9 -6 -17 -22 -12 -73 25 -24 18
-47 15 -35 -4 4 -6 2 -8 -4 -4 -6 3 -14 2 -17 -4 -4 -7 6 -10 29 -8 24 1 43
-4 58 -18 13 -12 32 -25 43 -29 19 -8 19 -9 -2 -12 -12 -3 -42 4 -66 15 -37
17 -46 17 -62 6 -10 -8 -26 -14 -36 -14 -9 0 -19 -10 -23 -23 -3 -13 -28 -51
-56 -86 -50 -62 -59 -81 -40 -81 7 0 6 -8 -1 -22 -11 -21 -11 -22 4 -9 23 18
21 1 -3 -27 -11 -13 -24 -21 -30 -17 -5 3 -10 1 -10 -5 0 -7 -9 -23 -20 -37
l-19 -25 -7 26 c-6 27 -41 43 -69 32 -11 -4 -22 6 -36 29 -12 19 -27 35 -34
35 -7 0 -15 5 -17 11 -2 6 -18 11 -37 12 -31 2 -33 0 -35 -36 -2 -22 1 -36 8
-35 6 1 23 -5 39 -12 21 -10 27 -19 25 -39 -3 -29 -46 -50 -60 -28 -4 7 -8 9
-8 4 0 -4 -11 0 -25 9 -25 16 -25 16 -25 -13 0 -18 9 -38 23 -51 27 -25 52
-29 43 -7 -10 26 78 32 104 6 13 -13 12 -14 -13 -7 -39 9 -32 -28 15 -78 22
-24 19 -40 -8 -44 -12 -2 -29 -24 -46 -60 -64 -134 -178 -316 -190 -304 -6 6
-3 24 10 48 28 57 50 156 58 263 7 90 6 94 -12 87 -10 -5 -37 -9 -59 -10 -66
-4 -120 -41 -146 -100 -19 -43 -23 -71 -24 -186 -2 -74 -8 -170 -14 -212 -7
-43 -14 -90 -16 -105 -5 -40 -5 -40 -14 -18 -4 11 -4 88 -1 170 3 83 3 153 -1
158 -25 32 -191 -323 -259 -556 -13 -42 -25 -75 -28 -73 -6 6 46 186 75 260
12 33 21 61 19 63 -4 5 -107 -158 -142 -225 -17 -33 -31 -82 -38 -132 -5 -44
-14 -80 -18 -80 -11 0 -10 30 3 90 17 80 5 80 -24 1 -51 -138 -78 -333 -58
-423 6 -25 40 -94 76 -154 37 -60 73 -123 82 -142 37 -77 192 -176 318 -203
33 -7 128 -13 211 -13 l152 -1 23 -75 c21 -67 27 -75 51 -78 19 -2 25 -8 21
-18 -3 -8 -1 -14 4 -14 6 0 6 -13 -1 -34 -6 -19 -15 -32 -21 -28 -6 3 -5 0 1
-9 6 -8 14 -30 18 -49 5 -28 14 -39 46 -54 22 -11 54 -28 71 -38 l30 -18 -32
-34 c-35 -38 -50 -38 -68 2 -15 32 -30 15 -23 -26 8 -45 39 -69 110 -87 72
-18 105 -38 116 -73 9 -26 12 -26 49 -8 26 14 27 14 27 -11 l0 -25 20 23 19
24 -7 -30 c-13 -56 -8 -87 16 -103 20 -13 23 -13 21 -1 -2 15 6 42 22 72 16
29 0 34 -21 7 -10 -14 -22 -21 -26 -17 -4 4 9 24 29 43 20 20 37 45 37 55 0
11 7 19 15 19 14 0 14 3 -1 25 -15 23 -14 26 11 59 15 20 31 33 36 30 14 -8
11 -24 -5 -24 -8 0 -18 -5 -22 -11 -5 -8 1 -10 19 -7 17 3 28 0 31 -9 3 -8 1
-11 -4 -8 -6 3 -10 0 -10 -7 0 -10 -2 -10 -9 1 -6 9 -14 10 -25 4 -14 -8 -14
-11 0 -38 13 -26 13 -30 -1 -37 -42 -24 5 -118 59 -118 17 0 39 -14 63 -40 21
-22 43 -40 50 -40 6 0 14 -4 17 -8 3 -5 -9 -7 -27 -4 -26 3 -29 1 -17 -8 12
-9 8 -10 -20 -5 -19 4 -42 7 -50 8 -8 0 -31 10 -50 22 -19 12 -43 24 -52 28
-19 7 -34 -8 -18 -18 22 -13 9 -27 -20 -22 -33 7 -49 -7 -24 -21 14 -8 14 -13
-5 -48 -26 -49 -27 -66 -1 -35 23 27 26 17 5 -19 -8 -14 -14 -34 -14 -45 0
-18 0 -19 10 -2 17 29 35 -1 38 -61 1 -50 0 -52 -19 -42 -15 8 -19 17 -14 34
4 18 1 25 -15 29 -18 4 -21 13 -21 54 0 51 -2 83 -6 83 -7 0 -86 -102 -82
-106 3 -2 16 5 31 16 35 28 42 25 19 -7 -10 -16 -22 -41 -26 -58 -4 -16 -20
-65 -37 -107 -16 -43 -29 -87 -29 -98 0 -12 -4 -19 -9 -16 -9 6 -21 -16 -21
-37 0 -7 4 -6 10 3 8 12 10 9 10 -13 0 -16 -8 -41 -18 -55 -10 -15 -22 -36
-26 -46 -3 -10 -8 -17 -11 -14 -2 2 9 58 25 123 16 65 27 121 25 123 -5 5 -6
2 -23 -63 -31 -112 -76 -248 -79 -234 -2 9 3 36 12 60 9 24 27 85 40 134 75
288 93 345 110 345 7 0 16 7 19 16 5 14 4 15 -9 4 -12 -10 -15 -10 -16 1 0 8
-5 3 -10 -10 -5 -13 -12 -21 -15 -18 -3 3 4 22 16 44 11 21 18 28 15 16 -9
-33 2 -28 21 10 16 31 16 31 -1 17 -10 -8 -20 -14 -22 -12 -12 9 -24 -8 -58
-80 -30 -63 -39 -94 -37 -128 1 -35 -3 -48 -19 -61 -12 -9 -22 -28 -22 -45 -1
-16 -9 -35 -17 -42 -11 -10 -12 -15 -2 -18 17 -8 15 -20 -9 -42 -16 -16 -17
-20 -5 -25 20 -8 5 -63 -15 -60 -11 2 -20 -19 -32 -75 -10 -42 -17 -84 -17
-92 0 -8 -8 -28 -18 -45 -10 -16 -24 -57 -31 -90 -24 -108 -31 -125 -26 -61 8
81 31 192 56 263 23 63 27 81 64 287 24 133 26 177 6 123 -5 -14 -15 -28 -20
-32 -6 -3 -11 -22 -11 -41 0 -19 -5 -33 -11 -32 -6 2 -20 -10 -32 -25 -18 -23
-19 -29 -7 -37 11 -7 12 -13 2 -36 -7 -14 -15 -24 -19 -21 -3 4 0 13 7 22 7 8
8 15 4 15 -5 0 -18 -12 -28 -28 -10 -16 -15 -19 -11 -8 3 11 13 43 22 70 9 28
20 53 24 56 24 16 99 153 99 180 0 16 58 127 70 135 5 3 10 11 10 17 0 7 -13
0 -28 -15 -32 -31 -93 -146 -120 -228 -10 -30 -39 -82 -66 -116 -53 -71 -109
-184 -131 -269 -8 -31 -17 -59 -19 -61 -12 -12 10 92 34 163 37 107 53 136
100 181 35 34 69 99 111 213 l9 25 -19 -23 c-11 -12 -21 -28 -24 -35 -2 -6 -7
-9 -11 -6 -3 3 15 39 42 80 46 71 68 96 84 98 19 3 38 14 38 22 0 35 -79 -35
-136 -120 -63 -96 -103 -161 -130 -217 -15 -33 -32 -62 -37 -65 -5 -4 -6 -12
-2 -19 5 -9 4 -11 -3 -6 -7 4 -13 1 -14 -6 0 -7 -2 -20 -2 -28 -1 -8 -8 -14
-14 -12 -7 1 -21 -15 -30 -35 -9 -21 -27 -52 -39 -68 -70 -99 -207 -434 -189
-464 8 -12 -10 -58 -29 -77 -8 -9 -15 -21 -15 -27 0 -7 -13 -21 -30 -32 -42
-28 -46 -45 -11 -45 23 0 34 8 52 38 18 29 24 33 27 19 4 -18 4 -18 18 0 12
14 12 12 -1 -14 -8 -18 -15 -34 -15 -37 0 -3 222 -5 492 -5 363 1 495 4 501
12 6 9 10 9 14 0 4 -10 547 -13 2629 -13 1443 0 2624 3 2624 6 0 14 -126 296
-181 407 l-59 117 0 96 c0 221 -47 447 -130 624 -27 58 -75 168 -106 245 l-56
140 -9 155 c-5 85 -13 180 -19 210 -5 30 -14 107 -20 170 -6 63 -18 165 -27
225 -9 61 -19 191 -23 290 -8 173 -28 364 -69 640 -10 72 -24 184 -31 250 -7
66 -14 122 -16 124 -2 2 -26 -15 -55 -38 -86 -69 -119 -68 -139 3 -23 82 -2
148 70 225 22 24 39 45 38 47 -8 7 -98 -19 -109 -32 -6 -8 -20 -14 -29 -14
-19 0 -60 44 -60 63 0 6 -12 28 -26 48 -14 21 -24 47 -22 59 3 21 3 21 23 3
12 -10 19 -25 17 -35 -2 -9 1 -19 7 -22 5 -3 12 13 16 36 5 30 18 53 40 74
l33 30 -50 0 c-31 -1 -52 4 -57 13 -5 7 -15 11 -22 9 -9 -3 -7 -10 8 -25 23
-23 20 -33 -8 -33 -17 0 -52 50 -47 67 2 4 -8 25 -21 46 -34 56 -33 95 4 118
48 30 76 40 95 34 28 -9 32 10 5 25 -20 11 -27 10 -53 -9 -25 -18 -32 -19 -41
-7 -15 18 -4 89 12 79 7 -4 8 2 3 18 -29 91 -16 126 68 179 73 46 116 91 116
122 0 11 9 36 21 54 24 39 16 44 -18 12 l-23 -21 0 25 c0 14 -9 37 -20 51 -26
33 -25 37 8 38 l27 1 -25 7 -25 7 23 8 c32 11 18 21 -24 17 -20 -1 -34 2 -34
9 0 6 -4 8 -10 5 -5 -3 -10 -1 -10 5 0 6 -11 23 -25 38 -14 15 -25 33 -25 40
0 7 -4 11 -9 7 -5 -3 -11 5 -13 17 -2 12 -10 24 -18 26 -13 5 -13 3 -1 -12 20
-24 5 -33 -19 -11 -29 26 -25 38 25 69 60 39 70 52 66 95 -3 38 -67 188 -77
179 -3 -4 -1 -14 5 -25 32 -60 48 -106 43 -125 -5 -19 -8 -18 -38 17 -18 21
-31 42 -29 46 3 3 -8 9 -23 12 -15 3 -44 17 -64 30 -20 14 -39 23 -42 19 -3
-3 -6 0 -6 6 0 7 -7 12 -15 12 -8 0 -15 5 -15 11 0 5 -4 8 -8 5 -5 -3 -19 5
-33 17 -96 87 -97 87 -160 87 -72 0 -126 25 -165 76 -23 29 -25 37 -13 45 19
12 36 11 44 -1 13 -21 92 -59 137 -65 l48 -7 70 68 c38 37 70 63 70 58 0 -5
11 -14 24 -20 23 -11 23 -10 15 20 -5 17 -9 57 -9 90 l0 59 -32 -25 c-36 -27
-109 -128 -102 -140 3 -5 0 -8 -5 -8 -6 0 -11 -7 -11 -16 0 -8 -4 -13 -9 -10
-5 3 -12 -4 -16 -17 -3 -12 -9 -17 -11 -10 -6 15 60 145 69 136 4 -3 7 -1 7 6
0 37 34 81 76 98 29 12 44 24 44 36 0 10 -4 15 -10 12 -5 -3 -10 1 -10 10 0 9
5 13 10 10 6 -3 10 1 10 9 0 18 -16 21 -25 6 -3 -5 -14 -10 -23 -10 -12 0 -9
7 13 25 l30 24 -37 -11 c-21 -6 -38 -15 -38 -20 0 -4 -4 -8 -10 -8 -5 0 -10 7
-10 16 0 8 -4 13 -9 9 -6 -3 -25 7 -43 23 -18 16 -43 35 -56 44 -12 8 -65 64
-118 124 -115 131 -150 161 -236 208 -65 35 -67 35 -107 21 -35 -12 -41 -12
-41 0 0 7 -8 16 -17 19 -10 3 -30 16 -45 28 l-28 23 30 47 c16 26 48 91 71
145 23 54 47 103 55 109 7 6 11 20 7 32 -9 36 45 116 179 262 23 25 63 86 88
135 l47 90 89 37 c49 20 94 37 101 37 6 1 27 11 46 24 24 16 41 40 62 90 15
37 31 67 36 67 5 0 9 6 9 13 0 6 27 22 59 35 55 21 64 29 110 100 38 57 51 85
51 114 0 20 -5 40 -11 44 -8 5 -10 0 -6 -17 3 -13 2 -30 -2 -38 -14 -22 -21 4
-11 39 5 18 7 37 3 43 -3 6 -7 22 -8 36 -1 14 -5 35 -9 46 -7 17 -6 17 4 5 9
-12 10 -9 5 15 -3 17 -21 44 -40 60 -19 17 -35 35 -35 41 0 6 -8 22 -18 35
-11 13 -22 46 -26 73 -3 27 -15 64 -26 83 -11 18 -36 72 -57 120 -28 67 -50
100 -98 149 -34 35 -66 64 -72 64 -5 0 -22 13 -38 30 -15 16 -31 27 -35 25 -4
-2 -22 15 -41 38 -62 78 -117 108 -231 126 -56 9 -66 15 -93 48 -47 61 -176
180 -279 259 -55 42 -200 114 -229 114 -13 0 -27 4 -32 8 -11 10 -95 36 -170
53 -27 6 -67 17 -88 25 -42 16 -55 16 -112 2z m-245 -259 c0 -6 -4 -7 -10 -4
-5 3 -10 11 -10 16 0 6 5 7 10 4 6 -3 10 -11 10 -16z m1335 -309 c-3 -5 -13
-10 -21 -10 -8 0 -12 5 -9 10 3 6 13 10 21 10 8 0 12 -4 9 -10z m49 -55 c-5
-12 -10 -13 -20 -4 -19 15 -18 19 6 19 13 0 18 -5 14 -15z m-3677 -137 c-3 -8
-6 -5 -6 6 -1 11 2 17 5 13 3 -3 4 -12 1 -19z m3921 -75 c-2 -20 -9 -38 -16
-39 -7 -1 -8 0 -2 3 16 8 12 36 -4 30 -23 -9 -36 15 -21 37 11 14 12 24 4 40
-9 16 -5 15 16 -7 20 -21 26 -35 23 -64z m-1374 -94 c6 -44 6 -44 -5 -9 -5 19
-12 46 -15 60 -4 20 -3 22 5 9 6 -9 13 -36 15 -60z m-2557 19 c-3 -7 -5 -2 -5
12 0 14 2 19 5 13 2 -7 2 -19 0 -25z m2588 -153 c10 -41 15 -78 12 -81 -3 -4
-9 7 -12 22 -6 31 -23 96 -32 128 -3 11 -1 16 5 12 5 -3 18 -40 27 -81z m325
24 l25 -20 -32 16 c-18 8 -33 18 -33 20 0 10 16 4 40 -16z m11 -42 c-5 -5 -21
-6 -38 -2 l-28 8 25 7 c31 8 55 1 41 -13z m104 -26 c57 -40 154 -91 173 -91 7
0 45 -13 84 -30 83 -35 79 -35 71 -12 -6 15 -5 15 10 3 16 -12 17 -12 11 5 -5
18 -5 18 6 1 6 -9 16 -15 21 -11 6 3 13 -3 16 -15 3 -12 12 -21 19 -21 8 0 14
-8 14 -18 0 -10 9 -25 20 -35 11 -9 20 -12 20 -6 0 20 19 -2 25 -30 3 -16 15
-37 26 -47 10 -9 19 -21 19 -26 0 -5 12 -20 26 -35 14 -14 23 -31 20 -38 -2
-7 2 -16 9 -19 25 -9 65 -85 68 -126 1 -22 8 -45 15 -52 15 -15 15 -29 0 -25
-7 1 -14 -8 -16 -20 -2 -12 -9 -24 -17 -27 -10 -3 -12 0 -8 11 5 12 2 15 -10
10 -10 -4 -20 0 -26 11 -14 23 -14 6 -1 -18 8 -16 8 -18 -5 -14 -8 4 -15 10
-15 15 0 5 -15 9 -33 9 -21 0 -41 8 -52 20 -10 11 -29 20 -42 20 -19 0 -23 -5
-23 -27 l0 -28 20 25 c13 16 20 20 19 10 0 -8 -6 -24 -14 -34 -8 -10 -13 -22
-11 -25 2 -3 -7 -7 -20 -7 -13 -1 -22 2 -19 6 6 10 -6 70 -14 70 -6 0 -18 -11
-76 -70 -10 -11 -25 -18 -32 -16 -7 3 -13 -1 -13 -9 0 -8 -9 -15 -20 -15 -11
0 -20 7 -20 15 0 8 -5 15 -11 15 -6 0 -9 -7 -6 -15 4 -8 2 -17 -3 -20 -6 -4
-10 -1 -10 4 0 6 -11 11 -25 11 -15 0 -29 9 -36 22 -8 14 -14 18 -17 10 -11
-33 -48 2 -92 88 -14 28 -19 45 -12 48 11 3 24 12 152 99 36 24 88 70 117 101
54 57 64 86 15 40 -15 -14 -39 -33 -53 -42 -26 -16 -315 -121 -375 -136 -18
-4 -36 -10 -42 -14 -6 -3 -30 -10 -54 -15 -24 -5 -54 -13 -67 -17 -16 -5 -22
-4 -18 4 4 5 1 12 -5 15 -7 2 -9 8 -5 13 5 5 14 2 20 -7 9 -12 15 -13 23 -5
13 14 -4 35 -24 28 -6 -2 -12 3 -12 12 0 8 -4 18 -10 21 -6 4 -7 -1 -3 -11 5
-14 3 -16 -11 -11 -14 6 -16 3 -11 -16 6 -20 6 -20 -6 -6 -8 9 -21 19 -29 22
-11 3 -7 8 13 17 15 7 27 19 27 27 0 7 5 13 12 13 6 0 3 7 -8 15 -18 13 -17
14 19 15 34 0 37 2 23 15 -8 8 -19 15 -25 15 -6 0 -11 8 -11 19 0 10 -6 24
-14 30 -11 9 -14 8 -12 -5 0 -9 -4 -19 -11 -21 -8 -3 -12 5 -11 24 1 15 -1 49
-6 75 -6 41 -5 47 8 42 9 -3 16 -2 16 2 0 5 3 20 6 34 6 24 6 25 -10 5 -16
-20 -16 -20 -31 -1 -8 11 -15 31 -15 44 0 13 -4 31 -9 41 -9 15 -6 18 20 18
24 0 28 -4 23 -19 -3 -10 0 -18 6 -18 7 0 9 -7 6 -16 -4 -10 2 -23 15 -33 18
-14 20 -21 11 -38 -10 -18 -8 -21 12 -25 13 -3 32 1 42 9 16 12 16 13 1 13
-22 0 -21 6 2 31 11 12 24 18 30 14 6 -3 11 -2 11 4 0 19 -23 24 -32 7 -7 -13
-13 -14 -29 -6 -22 12 -17 32 6 23 8 -3 15 0 15 6 0 6 -14 11 -31 11 -27 0
-29 2 -15 15 18 18 43 19 49 3 4 -8 6 -7 6 4 1 9 -5 18 -11 21 -8 3 -3 9 12
15 20 7 27 6 34 -7 8 -13 12 -11 23 14 l14 30 -6 -29 c-6 -26 -5 -27 10 -12 9
9 22 16 29 16 8 0 19 6 25 14 10 11 19 12 42 4 16 -5 29 -14 29 -20 0 -6 -8
-7 -17 -3 -37 15 -53 17 -53 6 0 -6 9 -11 19 -11 11 0 27 -3 36 -6 11 -5 18 0
22 15 6 22 18 27 28 11 3 -5 11 -10 17 -10 7 0 1 10 -11 21 -19 18 -25 19 -32
8 -11 -19 -32 2 -24 24 8 20 25 14 90 -32z m-3035 19 c0 -11 -2 -20 -4 -20 -2
0 -6 9 -9 20 -3 11 -1 20 4 20 5 0 9 -9 9 -20z m2640 -61 c0 -5 -4 -9 -10 -9
-5 0 -10 7 -10 16 0 8 5 12 10 9 6 -3 10 -10 10 -16z m65 -9 c-27 -12 -43 -12
-25 0 8 5 22 9 30 9 10 0 8 -3 -5 -9z m-125 -520 c0 -5 -5 -10 -11 -10 -5 0
-7 5 -4 10 3 6 8 10 11 10 2 0 4 -4 4 -10z m450 -10 c0 -5 -2 -10 -4 -10 -3 0
-8 5 -11 10 -3 6 -1 10 4 10 6 0 11 -4 11 -10z m922 -262 c-7 -7 -12 -8 -12
-2 0 14 12 26 19 19 2 -3 -1 -11 -7 -17z m-3294 -15 c-10 -2 -28 -2 -40 0 -13
2 -5 4 17 4 22 1 32 -1 23 -4z m1642 -29 c0 -8 -4 -14 -10 -14 -5 0 -10 4 -10
9 0 5 -3 18 -7 28 -6 16 -5 16 10 4 9 -7 17 -20 17 -27z m12 -46 c-7 -7 -12
-8 -12 -2 0 14 12 26 19 19 2 -3 -1 -11 -7 -17z m38 -26 c0 -11 11 -24 25 -30
14 -6 25 -16 25 -22 0 -16 -58 17 -70 39 -13 26 -13 31 5 31 8 0 15 -8 15 -18z
m-158 -41 c-3 -8 3 -20 13 -27 23 -17 19 -21 -25 -25 -30 -3 -35 -1 -33 17 1
11 7 33 12 48 9 22 13 25 25 14 7 -7 11 -19 8 -27z m931 -181 c-2 -47 -8 -112
-13 -145 -5 -33 -8 -70 -5 -83 2 -12 1 -22 -3 -22 -4 0 -13 -13 -19 -29 -9
-26 -9 -29 6 -24 12 3 11 0 -4 -12 -11 -9 -19 -21 -17 -26 4 -17 -23 4 -56 42
-30 34 -31 40 -26 95 3 34 13 69 26 86 11 16 17 36 14 44 -3 8 -2 12 4 9 6 -4
10 11 10 37 0 32 3 39 10 28 8 -12 10 -10 10 10 -1 14 1 36 3 50 3 14 5 36 7
50 1 14 4 19 7 13 7 -19 23 -16 23 5 1 10 6 5 14 -13 8 -19 11 -61 9 -115z
m-1719 71 c-10 -17 -22 -31 -26 -31 -4 0 -5 -7 -1 -16 6 -15 8 -15 20 2 11 16
13 16 13 1 0 -13 7 -15 33 -12 l32 5 -32 -10 c-18 -6 -35 -15 -38 -20 -3 -5
-16 1 -28 14 -12 12 -29 26 -37 29 -10 4 -8 6 8 6 31 1 28 19 -5 23 l-28 4 29
8 c20 6 31 5 36 -5 7 -10 12 -6 21 14 7 15 14 25 17 23 2 -3 -4 -18 -14 -35z
m840 17 c13 21 66 -14 66 -44 0 -15 -38 -25 -46 -13 -3 6 -11 8 -17 6 -7 -2
-22 8 -34 22 -21 24 -21 26 -5 32 9 3 20 2 23 -3 4 -7 9 -6 13 0z m-1005 -35
c-3 -21 2 -33 16 -33 18 0 19 12 3 28 -8 8 -9 12 -1 12 6 0 13 -5 15 -10 2 -6
13 -12 26 -13 12 -1 21 -6 18 -12 -2 -5 3 -18 12 -28 8 -9 12 -20 8 -25 -4 -4
-15 2 -23 13 -13 16 -14 16 -9 3 9 -25 13 -44 9 -35 -3 4 -11 7 -19 7 -8 0
-14 7 -14 15 0 9 -10 15 -26 15 -15 0 -23 -4 -19 -11 4 -6 14 -8 22 -5 10 4
13 2 10 -8 -3 -7 0 -19 6 -26 9 -9 8 -11 -7 -8 -10 1 -21 -3 -23 -9 -3 -8 5
-13 21 -13 14 0 26 -5 26 -11 0 -5 -4 -8 -9 -4 -5 3 -13 0 -16 -6 -5 -7 2 -10
21 -7 15 1 29 -2 31 -7 2 -7 -13 -9 -38 -7 -28 3 -44 0 -50 -9 -5 -8 -9 -9 -9
-3 0 7 -9 14 -20 17 -23 6 -27 37 -5 37 8 0 15 5 15 11 0 6 -7 8 -17 5 -11 -4
-8 3 9 19 16 15 25 31 22 40 -4 10 0 15 11 15 17 0 17 1 1 19 -10 11 -15 25
-11 30 7 13 16 14 14 4z m281 -23 c0 -4 -8 -10 -18 -12 -12 -3 -18 1 -19 12
-1 13 4 16 18 13 10 -3 19 -9 19 -13z m-310 -65 c0 -11 -66 -45 -85 -44 -12 0
-8 4 13 10 18 5 30 14 27 19 -3 4 3 11 12 13 27 7 33 7 33 2z m900 -11 c0 -8
-4 -12 -10 -9 -5 3 -10 10 -10 16 0 5 5 9 10 9 6 0 10 -7 10 -16z m140 -30 c0
-18 -24 -18 -39 0 -10 11 -8 15 6 18 23 6 33 0 33 -18z m-1080 -24 c0 -5 -4
-10 -10 -10 -5 0 -10 5 -10 10 0 6 5 10 10 10 6 0 10 -4 10 -10z m1164 -5 c-4
-8 -11 -15 -16 -15 -6 0 -5 6 2 15 7 8 14 15 16 15 2 0 1 -7 -2 -15z m-32 -57
c-7 -7 -12 -8 -12 -2 0 14 12 26 19 19 2 -3 -1 -11 -7 -17z m133 -108 c-3 -5
-12 -10 -18 -10 -7 0 -6 4 3 10 19 12 23 12 15 0z m-28 -38 c-4 -25 -44 -79
-52 -70 -6 5 43 87 52 88 2 0 2 -8 0 -18z m763 -11 c0 -3 -10 -12 -22 -20 -21
-13 -22 -13 -10 2 8 9 11 21 7 26 -3 7 0 8 9 5 9 -3 16 -9 16 -13z m20 -52 c0
-14 -5 -19 -14 -16 -8 3 -16 1 -18 -5 -2 -6 -9 -9 -15 -7 -7 3 -8 12 -2 27 11
29 49 30 49 1z m-2715 -94 c33 -49 37 -60 32 -100 -3 -35 -12 -53 -40 -79 -20
-19 -39 -47 -42 -62 -9 -44 -20 -59 -45 -62 -20 -3 -39 11 -40 29 0 3 16 22
35 42 19 20 35 45 35 57 0 18 -6 20 -52 20 l-53 1 29 24 c57 46 83 43 116 -15
15 -26 23 -2 21 62 -1 48 -8 72 -29 105 -15 24 -30 43 -34 43 -5 0 -8 5 -8 12
0 17 33 -16 75 -77z m1810 75 c16 -7 13 -9 -17 -9 -20 -1 -40 4 -43 9 -7 12
32 12 60 0z m859 -32 c-3 -5 2 -18 12 -29 19 -22 8 -25 -18 -5 -22 16 -24 43
-3 43 8 0 12 -4 9 -9z m176 -257 c0 -5 -9 -11 -20 -14 -20 -5 -26 3 -13 16 9
10 33 8 33 -2z m213 -21 c48 -24 141 -109 184 -169 15 -20 46 -56 69 -81 47
-51 60 -110 15 -67 -11 10 -13 9 -7 -3 4 -8 0 -6 -9 5 -16 20 -16 20 -31 0
-11 -15 -17 -17 -23 -7 -6 10 -13 10 -36 -2 -21 -11 -32 -12 -42 -4 -10 8 -13
6 -13 -8 0 -15 -2 -16 -9 -5 -6 8 -14 10 -22 5 -8 -5 -18 -9 -24 -10 -5 0 -16
-2 -22 -2 -7 -1 -13 -12 -13 -23 0 -21 -1 -21 -26 -4 -24 16 -26 15 -43 -4
-12 -14 -16 -30 -13 -47 3 -18 1 -25 -6 -20 -6 4 -9 13 -5 21 3 8 0 15 -6 15
-6 0 -11 -7 -11 -15 0 -8 -4 -15 -10 -15 -11 0 -14 -33 -3 -43 3 -4 11 -3 17
2 8 7 12 -6 13 -41 l2 -51 -24 23 -24 23 -7 -27 c-8 -33 0 -43 21 -26 12 10
15 10 15 -5 0 -9 -9 -19 -20 -22 -11 -3 -20 -9 -20 -14 0 -5 -9 -9 -20 -9 -11
0 -20 -5 -20 -11 0 -5 -4 -8 -9 -4 -6 3 -19 -4 -30 -17 -12 -12 -24 -19 -27
-15 -7 6 -93 -48 -105 -66 -4 -5 -13 -6 -20 -2 -8 6 -11 4 -7 -6 3 -8 0 -20
-8 -26 -10 -10 -13 -10 -17 0 -4 9 -7 9 -18 0 -7 -7 -21 -13 -30 -13 -10 0
-19 -3 -22 -7 -2 -5 -3 -3 -1 4 1 6 -6 13 -17 16 -12 3 -19 0 -19 -9 0 -15
-16 -19 -24 -6 -12 21 -71 -2 -71 -27 0 -8 -6 -16 -12 -18 -7 -3 -13 2 -13 10
0 10 -7 13 -19 10 -10 -3 -22 0 -25 6 -5 8 -13 8 -26 1 -16 -8 -18 -7 -14 4 5
12 0 13 -30 4 -26 -8 -33 -14 -24 -21 10 -6 9 -7 -2 -4 -8 2 -14 12 -12 22 2
11 -1 15 -9 9 -9 -5 -10 -2 -6 9 3 9 0 18 -9 21 -7 3 -13 1 -11 -4 1 -5 -6
-15 -17 -23 -16 -12 -17 -17 -6 -37 9 -18 10 -25 1 -28 -6 -2 -11 -10 -11 -18
0 -8 -4 -14 -10 -14 -5 0 -10 5 -10 10 0 6 -5 10 -11 10 -5 0 -7 -4 -4 -10 3
-5 -1 -10 -10 -10 -8 0 -20 12 -25 26 -6 14 -14 23 -20 19 -5 -3 -6 -13 -3
-23 6 -16 6 -16 -11 1 -20 20 -37 22 -54 5 -8 -8 -15 -8 -28 3 -13 10 -18 11
-21 2 -2 -7 -11 -9 -19 -6 -8 3 -14 0 -14 -7 0 -7 -6 -10 -14 -7 -8 3 -28 2
-45 -3 -20 -5 -31 -5 -34 3 -2 8 -6 7 -11 -1 -4 -7 -1 -15 9 -18 13 -5 11 -9
-10 -20 -14 -7 -32 -11 -39 -8 -7 3 -19 -2 -26 -11 -7 -8 -21 -15 -31 -15 -10
0 -21 -5 -24 -10 -5 -8 -11 -7 -21 1 -11 9 -18 8 -31 -2 -13 -11 -17 -11 -20
-1 -3 6 -9 12 -14 12 -6 0 -7 -5 -3 -11 4 -7 1 -10 -7 -7 -8 3 -22 1 -32 -4
-12 -6 -23 -5 -33 3 -21 17 -36 -6 -30 -43 4 -22 -2 -35 -30 -63 -20 -20 -41
-34 -47 -32 -16 5 -46 -30 -53 -62 -10 -46 -13 -51 -34 -51 -11 0 -20 -5 -20
-11 0 -5 5 -7 10 -4 6 3 10 2 10 -4 0 -34 -83 -1 -102 42 -7 15 -19 27 -27 27
-8 0 -11 6 -7 16 3 9 7 28 7 42 1 17 3 21 6 10 5 -19 43 -25 43 -8 0 6 -7 10
-16 10 -8 0 -12 4 -9 10 3 5 1 18 -4 27 -10 17 -10 17 -11 1 0 -10 -4 -18 -10
-18 -16 0 -12 37 5 44 24 9 18 28 -6 21 -13 -5 -19 -3 -15 3 7 12 -17 84 -28
82 -4 -1 -21 10 -36 25 -16 15 -33 24 -39 21 -6 -4 -11 0 -11 9 0 10 -5 15
-13 12 -8 -3 -27 5 -43 19 -34 28 -56 31 -47 7 4 -11 3 -14 -5 -9 -7 4 -12 12
-12 17 0 20 -55 59 -80 57 -28 -2 -71 18 -83 38 -10 17 -49 18 -64 3 -8 -8
-11 -7 -10 2 2 43 -4 89 -11 89 -5 0 -7 -13 -4 -30 4 -29 3 -30 -31 -30 -24 0
-39 -6 -46 -17 -10 -18 -81 -29 -81 -12 0 5 -7 9 -15 9 -8 0 -15 -5 -15 -11 0
-5 5 -7 10 -4 6 3 10 2 10 -4 0 -18 -18 -21 -34 -6 -17 18 -29 5 -19 -22 3
-10 3 -15 -2 -11 -4 4 -14 0 -22 -10 -12 -16 -13 -16 -7 1 8 23 -18 22 -40 -2
-24 -26 -54 -17 -48 15 3 19 0 24 -17 24 -18 0 -21 -5 -19 -32 2 -18 8 -36 13
-40 6 -5 4 -14 -7 -24 -16 -16 -17 -16 -11 4 3 13 1 22 -6 22 -6 0 -13 -11
-17 -25 -5 -22 -9 -24 -22 -13 -16 14 -72 20 -72 9 0 -4 5 -12 12 -19 23 -23
-16 -12 -47 13 -25 21 -27 25 -12 31 9 3 17 13 17 22 0 12 3 13 12 4 16 -16
28 -15 28 3 0 8 -4 15 -10 15 -5 0 -10 5 -10 11 0 6 10 10 23 9 38 -4 42 0 20
15 -12 9 -28 14 -35 13 -16 -4 -50 -56 -43 -68 3 -4 -2 -10 -10 -14 -8 -3 -15
-1 -15 4 0 6 -4 10 -9 10 -5 0 -4 -11 2 -25 7 -14 15 -25 20 -25 4 0 7 -4 7
-10 0 -5 -11 -9 -25 -8 -14 1 -25 8 -25 16 0 7 4 10 10 7 6 -3 7 1 4 9 -3 9
-10 16 -14 16 -5 0 -5 14 0 30 7 23 5 30 -6 30 -8 0 -14 -10 -14 -23 0 -13 -7
-32 -15 -43 -19 -25 -19 -40 0 -24 9 7 15 8 15 2 0 -14 -28 -23 -35 -12 -3 5
-1 19 5 30 6 11 9 29 5 39 -3 10 3 29 15 44 11 14 20 32 20 40 0 9 5 19 10 22
7 4 8 -3 4 -22 -7 -25 -6 -27 9 -14 19 15 22 52 6 68 -7 7 -5 12 6 17 13 4 16
2 11 -9 -3 -9 0 -15 10 -15 8 0 17 7 20 15 4 8 15 15 26 15 15 0 18 5 13 23
-6 21 -6 21 10 2 11 -14 25 -18 58 -16 34 2 48 -3 69 -22 27 -25 27 -25 31 -3
3 14 5 10 6 -12 1 -32 1 -32 29 -18 40 21 108 37 125 30 9 -3 13 -12 10 -21
-4 -11 -2 -14 5 -9 7 4 12 14 12 22 0 8 5 14 10 14 6 0 10 -7 10 -15 0 -8 5
-15 10 -15 6 0 10 7 10 15 0 9 6 12 15 8 9 -3 24 2 35 12 12 11 26 14 39 10
16 -5 23 -1 30 17 9 21 10 21 11 3 1 -19 2 -19 10 2 6 16 14 20 30 16 13 -3
25 0 30 6 4 7 32 14 66 15 34 1 59 7 62 14 2 7 17 12 34 12 16 0 36 7 44 15
16 16 57 12 82 -8 8 -7 12 -5 12 7 0 9 8 16 19 16 24 0 36 16 19 24 -7 4 -2 4
11 2 16 -3 30 2 42 17 14 16 19 18 19 7 0 -11 6 -8 20 8 11 13 24 21 30 17 5
-3 10 1 10 10 0 11 5 15 15 11 8 -3 15 -1 15 5 0 6 7 9 15 5 9 -3 15 0 15 9 0
8 9 15 20 15 12 0 20 7 21 18 1 16 2 16 6 0 4 -16 8 -15 43 7 22 14 46 25 54
25 8 0 18 5 21 11 4 6 13 8 21 5 7 -3 16 -1 19 4 4 6 17 10 30 10 13 0 25 5
27 12 3 7 21 13 42 14 21 0 41 6 45 13 4 6 15 9 24 5 9 -3 17 -2 17 4 0 5 28
12 63 16 34 4 70 7 80 8 9 1 17 5 17 9 0 3 12 5 27 3 15 -1 33 2 40 8 10 8 13
7 13 -3 0 -9 7 -7 18 7 19 24 52 39 52 24 0 -6 -5 -10 -12 -10 -6 0 -8 -3 -5
-6 10 -10 38 17 31 30 -3 6 1 3 10 -8 14 -17 16 -17 37 -2 16 11 26 12 35 5
17 -14 88 16 78 32 -7 12 20 8 60 -7 9 -3 16 -1 16 5 0 6 -4 11 -10 11 -5 0
-10 5 -10 10 0 6 7 10 15 10 8 0 15 -7 15 -15 0 -21 20 -19 21 3 0 12 3 10 11
-8 l11 -25 6 24 c6 22 8 23 22 8 11 -10 20 -12 26 -6 5 5 25 11 43 14 18 2 36
9 40 16 5 8 9 8 11 0 4 -11 103 13 126 31 7 6 13 4 16 -4 4 -9 13 -5 29 13 25
26 88 47 88 29 0 -6 -7 -10 -15 -10 -8 0 -15 -5 -15 -10 0 -14 37 5 42 22 3 8
19 12 42 10 29 -3 36 -1 30 9 -5 9 -2 10 10 6 13 -5 19 -1 23 14 5 17 12 19
49 16 23 -3 63 -15 87 -27z m-813 -130 c0 -5 -9 -10 -21 -10 -11 0 -17 5 -14
10 3 6 13 10 21 10 8 0 14 -4 14 -10z m-1926 -25 c16 -12 17 -17 6 -30 -20
-24 -90 -17 -90 9 0 34 50 47 84 21z m-296 -267 c5 16 23 16 20 0 -2 -7 4 -14
12 -14 8 -1 22 -2 31 -3 19 -1 29 -26 35 -86 3 -30 2 -36 -6 -25 -9 13 -13 12
-27 -7 -8 -13 -26 -23 -39 -23 -14 0 -24 -6 -24 -14 0 -7 -7 -19 -15 -26 -13
-11 -14 -10 -9 6 6 16 5 17 -7 7 -19 -19 -29 -16 -30 10 0 17 -3 14 -13 -13
-8 -19 -11 -38 -9 -42 2 -5 0 -8 -6 -8 -5 0 -12 6 -14 13 -3 7 -6 5 -6 -5 -1
-10 -6 -18 -12 -18 -6 0 -8 -8 -4 -19 3 -10 -1 -24 -10 -31 -8 -7 -15 -17 -15
-22 0 -5 7 -2 16 7 9 9 19 13 23 9 3 -4 0 -9 -6 -11 -7 -3 -13 -13 -13 -24 0
-21 -16 -26 -23 -6 -3 6 -6 0 -6 -15 -1 -21 3 -25 19 -21 15 4 20 0 20 -13 0
-11 -3 -15 -8 -8 -10 15 -52 12 -52 -3 0 -7 -7 -13 -15 -13 -8 0 -15 -9 -15
-21 0 -11 -4 -17 -10 -14 -5 3 -10 -3 -10 -14 0 -10 6 -22 13 -25 6 -3 2 -3
-10 0 -13 3 -23 1 -23 -5 0 -5 -8 -17 -17 -27 -10 -9 -18 -23 -19 -31 -4 -27
-35 -83 -43 -79 -7 5 -51 -29 -51 -39 0 -2 8 -2 18 2 14 5 15 3 5 -8 -7 -7
-13 -20 -13 -29 0 -9 -15 -24 -32 -33 -29 -14 -30 -16 -10 -16 12 -1 22 -6 22
-12 0 -5 -4 -8 -9 -5 -5 4 -12 0 -14 -6 -4 -10 -8 -9 -16 2 -8 12 -11 12 -11
1 0 -7 -6 -11 -14 -8 -10 4 -12 0 -8 -15 3 -13 1 -19 -5 -15 -5 3 -26 -5 -46
-19 -30 -20 -37 -22 -37 -9 0 15 -1 15 -16 0 -21 -20 -59 -16 -58 7 1 10 -4
14 -12 11 -8 -3 -14 1 -14 10 0 8 -7 17 -15 21 -8 3 -12 12 -9 21 4 8 2 21 -4
28 -11 13 -7 71 7 102 5 11 12 27 15 35 4 8 15 29 25 45 11 17 20 38 20 47 1
10 10 22 21 28 11 6 18 15 15 20 -3 5 4 14 15 20 11 6 20 17 20 26 0 8 8 18
17 21 21 8 53 40 53 53 0 6 6 10 13 10 7 0 27 13 44 29 20 18 34 25 37 17 2
-6 5 -3 5 6 1 10 13 19 30 23 16 3 32 14 36 23 5 14 7 14 16 2 7 -12 10 -11
15 7 4 13 10 20 15 18 4 -3 13 4 19 15 9 17 14 19 26 9 11 -9 14 -8 14 5 0 9
6 16 13 16 7 0 14 12 15 26 2 27 20 59 37 65 5 2 9 10 7 17 -4 16 36 72 51 72
8 0 8 -3 -1 -12 -17 -17 -15 -33 3 -18 8 7 15 19 15 26 0 12 5 11 27 -3 19
-13 28 -14 31 -5z m3507 -7 c3 -5 1 -12 -5 -16 -5 -3 -10 1 -10 9 0 18 6 21
15 7z m-3384 -67 c-9 -28 -9 -29 -10 -3 -1 14 2 29 6 32 11 12 13 2 4 -29z
m3073 17 c5 -8 -29 -25 -46 -22 -13 2 -9 -17 5 -23 6 -3 1 -3 -13 0 -32 8 -32
8 -24 28 5 13 14 16 30 12 14 -4 24 -2 24 4 0 12 17 13 24 1z m264 -3 c-2 -6
-10 -14 -16 -16 -7 -2 -10 2 -6 12 7 18 28 22 22 4z m-263 -28 c3 -5 1 -10 -4
-10 -6 0 -11 5 -11 10 0 6 2 10 4 10 3 0 8 -4 11 -10z m-197 -19 c3 -8 -1 -12
-9 -9 -7 2 -15 10 -17 17 -3 8 1 12 9 9 7 -2 15 -10 17 -17z m22 -30 c-6 -12
-16 -21 -23 -20 -9 0 -9 2 1 6 6 2 12 15 12 27 0 13 3 26 8 30 12 13 14 -21 2
-43z m-2885 9 c-3 -5 -11 -10 -16 -10 -6 0 -7 5 -4 10 3 6 11 10 16 10 6 0 7
-4 4 -10z m3263 -20 c-14 -22 -24 -19 -15 5 4 8 11 15 17 15 6 0 6 -7 -2 -20z
m122 -15 c7 -8 8 -15 2 -15 -5 0 -15 7 -22 15 -7 8 -8 15 -2 15 5 0 15 -7 22
-15z m-19 -31 c12 -14 11 -16 -5 -13 -11 2 -21 10 -24 17 -5 17 13 15 29 -4z
m-131 -1 c0 -5 -5 -15 -10 -23 -8 -12 -10 -11 -10 8 0 12 5 22 10 22 6 0 10
-3 10 -7z m109 -22 c8 -5 9 -11 3 -15 -5 -3 -15 1 -22 9 -14 16 -3 20 19 6z
m-3529 -21 c0 -5 -5 -10 -11 -10 -5 0 -7 5 -4 10 3 6 8 10 11 10 2 0 4 -4 4
-10z m3358 -2 c-18 -11 -56 -10 -63 2 -4 6 10 9 35 8 25 -1 36 -4 28 -10z
m-3398 -28 c0 -5 -4 -10 -10 -10 -5 0 -10 5 -10 10 0 6 5 10 10 10 6 0 10 -4
10 -10z m192 -42 c-8 -8 -9 -4 -5 13 4 13 8 18 11 10 2 -7 -1 -18 -6 -23z
m-45 -30 c-3 -7 -5 -2 -5 12 0 14 2 19 5 13 2 -7 2 -19 0 -25z m748 13 c-3 -6
-11 -11 -17 -11 -6 0 -6 6 2 15 14 17 26 13 15 -4z m-715 -51 c0 -5 -4 -10
-10 -10 -5 0 -10 5 -10 10 0 6 5 10 10 10 6 0 10 -4 10 -10z m-230 -46 c0 -14
-3 -14 -15 -4 -8 7 -15 14 -15 16 0 2 7 4 15 4 8 0 15 -7 15 -16z m-39 -27
c-13 -13 -26 -3 -16 12 3 6 11 8 17 5 6 -4 6 -10 -1 -17z m478 -4 c-7 -10 -15
-20 -16 -22 -2 -2 -3 5 -3 17 0 14 6 22 16 22 14 0 15 -3 3 -17z m-424 -3 c3
-5 1 -10 -4 -10 -6 0 -11 5 -11 10 0 6 2 10 4 10 3 0 8 -4 11 -10z m290 -10
c3 -5 -1 -10 -10 -10 -9 0 -13 5 -10 10 3 6 8 10 10 10 2 0 7 -4 10 -10z
m1528 -95 c-3 -9 -8 -14 -10 -11 -3 3 -2 9 2 15 9 16 15 13 8 -4z m247 -5 c-8
-5 -19 -10 -25 -10 -5 0 -3 5 5 10 8 5 20 10 25 10 6 0 3 -5 -5 -10z m-3015
-9 c3 -5 1 -12 -5 -16 -5 -3 -10 1 -10 9 0 18 6 21 15 7z m55 -106 c0 -17 -2
-17 -10 -5 -5 8 -10 24 -10 35 0 17 2 17 10 5 5 -8 10 -24 10 -35z m2239 -40
l0 -20 -9 20 c-5 11 -9 27 -9 35 -1 13 0 13 9 0 5 -8 9 -24 9 -35z m-2269 -4
c0 -17 -17 -13 -24 5 -10 27 -7 36 9 20 8 -8 15 -19 15 -25z m620 -81 c0 -5
-5 -10 -11 -10 -5 0 -7 5 -4 10 3 6 8 10 11 10 2 0 4 -4 4 -10z m-460 -226
c24 -37 26 -44 12 -44 -16 0 -54 46 -68 83 -12 33 25 7 56 -39z m-58 -46 c-7
-7 -12 -8 -12 -2 0 6 3 14 7 17 3 4 9 5 12 2 2 -3 -1 -11 -7 -17z m4828 0 c28
-31 25 -51 -6 -30 -12 7 -29 52 -20 52 3 0 14 -10 26 -22z m-4790 -13 c0 -9
-6 -12 -15 -9 -8 4 -12 10 -9 15 8 14 24 10 24 -6z m170 -32 c0 -5 -5 -15 -10
-23 -8 -12 -10 -11 -10 8 0 12 5 22 10 22 6 0 10 -3 10 -7z m450 -163 c0 -5
-5 -10 -11 -10 -5 0 -7 5 -4 10 3 6 8 10 11 10 2 0 4 -4 4 -10z m-16 -28 c6
-10 -2 -21 -31 -46 -18 -15 -25 -16 -38 -6 -13 10 -10 15 18 35 36 26 44 29
51 17z m-266 -431 c20 -12 9 -75 -22 -120 -16 -22 -32 -38 -36 -36 -5 3 -6 -3
-4 -12 3 -12 -3 -22 -18 -28 -12 -5 -28 -21 -35 -35 -7 -14 -13 -22 -13 -19 0
4 -19 -13 -43 -36 -36 -37 -47 -42 -72 -38 -42 8 -57 21 -45 42 15 27 102 115
154 156 27 22 63 61 79 87 32 51 34 53 55 39z m-157 -73 c-23 -31 -49 -54 -61
-55 -18 -2 -19 1 -9 20 21 40 57 77 62 64 2 -7 10 0 17 16 8 17 17 24 23 18 6
-6 -6 -30 -32 -63z m4569 -48 c0 -11 -2 -20 -4 -20 -2 0 -6 9 -9 20 -3 11 -1
20 4 20 5 0 9 -9 9 -20z m-4680 -35 c0 -8 -4 -15 -10 -15 -5 0 -7 7 -4 15 4 8
8 15 10 15 2 0 4 -7 4 -15z m-1003 -1242 c-3 -10 -5 -4 -5 12 0 17 2 24 5 18
2 -7 2 -21 0 -30z m-10 -95 c-3 -7 -5 -2 -5 12 0 14 2 19 5 13 2 -7 2 -19 0
-25z m2286 -114 c-2 -7 -25 -15 -51 -19 -69 -9 -112 -25 -112 -40 0 -16 71
-39 80 -26 3 5 37 1 75 -9 39 -10 66 -19 60 -19 -5 -1 -2 -6 8 -12 9 -5 17
-14 17 -18 0 -9 -107 -36 -132 -33 -11 1 -18 -5 -18 -14 0 -10 -6 -14 -14 -11
-8 3 -17 -1 -20 -9 -4 -9 1 -14 14 -14 11 0 20 -7 20 -15 0 -9 -6 -12 -15 -9
-8 4 -15 1 -15 -5 0 -6 -8 -11 -17 -12 -27 -1 78 -48 109 -48 37 -1 58 -11 58
-27 0 -7 14 -21 31 -30 24 -12 29 -18 18 -25 -20 -12 -98 1 -151 27 l-48 22 5
-26 5 -27 -10 25 c-18 40 -42 63 -52 48 -6 -10 -10 -10 -18 2 -5 8 -10 12 -10
8 0 -4 -14 -2 -31 4 -25 8 -33 8 -40 -3 -8 -11 -9 -9 -7 6 2 15 -3 21 -24 23
-16 2 -28 8 -28 13 0 6 -4 7 -10 4 -17 -11 -11 -23 12 -27 12 -2 27 -13 33
-24 6 -12 17 -29 24 -38 11 -14 11 -16 -2 -16 -8 0 -17 -5 -19 -12 -3 -7 -12
-9 -22 -5 -15 6 -16 10 -6 22 10 12 9 15 -8 15 -15 0 -20 -5 -16 -15 4 -8 2
-15 -3 -15 -16 0 -13 -47 6 -66 9 -11 16 -25 13 -32 -2 -7 5 -12 17 -12 12 0
21 -5 21 -11 0 -11 -63 -2 -68 10 -10 24 -22 33 -37 28 -11 -5 -14 -13 -10
-27 6 -18 3 -20 -20 -14 -24 6 -26 5 -19 -20 5 -21 3 -26 -13 -26 -10 0 -24
-5 -31 -12 -8 -8 -15 -8 -27 2 -13 11 -14 10 -9 -4 5 -13 0 -16 -25 -16 -17 0
-31 3 -31 8 0 11 88 45 99 38 5 -3 8 5 7 18 0 12 -5 23 -11 22 -5 -1 -10 4
-10 9 0 6 8 9 17 8 17 -3 17 3 1 45 -12 32 -11 51 4 45 9 -4 11 0 7 12 -5 12
-14 15 -33 11 l-26 -5 26 12 c14 7 24 18 22 25 -3 6 2 12 11 12 9 0 16 -8 16
-20 0 -11 5 -20 10 -20 14 0 12 16 -5 50 -16 31 -32 42 -21 15 3 -9 0 -15 -9
-15 -8 0 -15 3 -15 8 0 4 -3 16 -6 28 -3 13 1 28 12 39 17 17 17 17 -6 10
l-25 -8 20 23 c11 12 27 26 36 31 14 7 16 5 11 -13 -4 -17 -2 -20 13 -15 13 5
16 3 11 -8 -8 -21 0 -19 76 19 48 23 64 36 56 44 -6 6 -17 8 -24 5 -8 -3 -14
0 -14 7 0 9 -4 9 -12 3 -7 -6 -27 -10 -44 -10 l-31 0 26 27 c14 14 31 25 37
23 5 -2 18 5 28 16 17 19 17 19 -6 14 -20 -4 -18 0 15 32 21 20 41 34 44 31 3
-3 -5 -15 -18 -26 -23 -20 -22 -20 19 1 23 13 42 26 42 30 0 12 30 16 126 15
64 -1 90 -4 87 -12z m-2286 -16 c-3 -8 -6 -5 -6 6 -1 11 2 17 5 13 3 -3 4 -12
1 -19z m1970 -154 c-3 -3 -12 -4 -19 -1 -8 3 -5 6 6 6 11 1 17 -2 13 -5z
m-211 -123 c-4 -6 -22 -11 -39 -12 l-32 -1 33 -9 c41 -12 37 -35 -4 -30 -16 1
-31 6 -34 11 -3 4 -12 9 -20 12 -10 3 3 14 35 31 47 24 76 23 61 -2z m30 -25
c0 -15 -5 -21 -10 -16 -5 5 -6 16 -3 24 9 23 15 19 13 -8z m289 -36 c16 -18
16 -20 2 -20 -9 0 -21 9 -27 20 -6 11 -7 20 -2 20 5 0 17 -9 27 -20z m-305 -6
c0 -8 -4 -12 -10 -9 -5 3 -10 10 -10 16 0 5 5 9 10 9 6 0 10 -7 10 -16z m234
-55 c14 -11 24 -25 21 -30 -4 -5 3 -9 14 -9 12 0 21 -5 21 -11 0 -5 -5 -7 -11
-3 -8 4 -8 0 0 -15 15 -28 10 -27 -43 11 -35 24 -43 34 -35 45 9 10 7 13 -5
13 -10 0 -14 5 -11 10 9 15 19 12 49 -11z m26 11 c0 -5 -2 -10 -4 -10 -3 0 -8
5 -11 10 -3 6 -1 10 4 10 6 0 11 -4 11 -10z m195 0 c3 -5 -1 -10 -10 -10 -9 0
-13 5 -10 10 3 6 8 10 10 10 2 0 7 -4 10 -10z m62 -19 c3 -10 20 -27 39 -37
19 -10 34 -22 34 -26 0 -5 6 -8 14 -8 8 0 18 -5 22 -11 5 -9 -6 -10 -40 -7
-45 5 -54 2 -38 -17 4 -6 -6 2 -22 18 -15 15 -34 27 -41 27 -6 0 -20 9 -31 21
-18 20 -18 20 11 13 27 -7 29 -6 17 9 -8 9 -11 21 -7 27 10 17 37 11 42 -9z
m-227 -1 c0 -5 -4 -10 -10 -10 -5 0 -10 5 -10 10 0 6 5 10 10 10 6 0 10 -4 10
-10z m35 -30 c10 -11 16 -20 13 -20 -3 0 -13 9 -23 20 -10 11 -16 20 -13 20 3
0 13 -9 23 -20z m25 -62 c0 -6 -7 -5 -15 2 -8 7 -15 17 -15 22 0 6 7 5 15 -2
8 -7 15 -17 15 -22z m91 -9 c59 -42 66 -49 50 -49 -13 0 -121 73 -121 82 0 14
10 9 71 -33z m-102 -59 c5 0 26 -23 46 -51 29 -41 34 -53 24 -65 -7 -9 -8 -14
-2 -12 6 2 30 -21 54 -51 58 -73 19 -52 -64 35 -34 35 -70 64 -79 64 -10 0
-22 9 -28 20 -7 13 -7 20 -1 20 14 0 -9 51 -32 70 -11 9 -16 22 -12 32 6 14
13 11 45 -22 22 -22 43 -40 49 -40z m-1223 14 c-3 -9 -6 -23 -6 -31 0 -22 -6
-14 -14 20 -5 21 -3 27 10 27 11 0 14 -5 10 -16z m1014 12 c0 -3 -4 -8 -10
-11 -5 -3 -10 -1 -10 4 0 6 5 11 10 11 6 0 10 -2 10 -4z m-1062 -74 c25 -78
26 -82 12 -82 -5 0 -10 8 -10 19 0 10 -6 34 -14 52 -22 55 -28 79 -19 79 5 0
19 -31 31 -68z m804 -49 c-4 -26 -1 -33 12 -33 10 0 15 -4 12 -9 -3 -5 2 -8
12 -7 9 0 21 -9 27 -21 11 -25 31 -32 21 -8 -3 8 -1 15 4 15 6 0 10 -7 10 -15
0 -8 7 -15 15 -15 8 0 15 6 15 13 0 9 2 9 9 -1 6 -11 9 -9 13 6 3 12 16 22 29
24 19 2 25 10 27 37 2 20 -2 37 -9 42 -8 4 -10 11 -6 15 4 4 16 -4 28 -17 l21
-24 -6 40 c-3 22 -3 33 0 25 4 -8 16 -28 27 -43 11 -16 28 -54 37 -85 17 -55
18 -56 25 -27 4 17 15 36 24 43 14 11 12 12 -11 8 -32 -5 -34 -3 -12 19 12 12
19 13 30 4 17 -14 18 -5 4 22 -23 41 10 17 42 -31 25 -39 37 -49 53 -45 11 3
14 2 8 -1 -17 -8 -17 -24 0 -24 13 0 76 -63 136 -135 22 -27 21 -26 -12 4 -20
19 -37 31 -37 26 0 -5 -7 0 -15 12 -14 19 -59 36 -69 25 -3 -2 1 -17 10 -33
19 -37 9 -37 -23 1 -13 17 -29 28 -34 24 -5 -3 -9 0 -9 5 0 6 -4 11 -10 11
-18 0 -10 -43 12 -67 23 -25 18 -44 -6 -23 -9 6 -21 10 -28 7 -8 -4 -7 -6 5
-6 9 -1 17 -5 17 -10 0 -16 -23 -18 -52 -4 -26 14 -48 11 -48 -5 0 -4 14 -16
30 -25 17 -10 30 -15 30 -11 0 4 9 -2 21 -15 12 -12 18 -25 14 -29 -3 -4 -11
1 -16 11 -20 34 -30 17 -24 -39 l7 -57 -31 24 c-17 13 -34 36 -37 52 -4 15
-11 30 -16 33 -6 4 -7 -2 -3 -15 3 -12 2 -21 -4 -21 -5 0 -12 14 -16 31 -8 33
-31 34 -28 0 2 -11 -1 -21 -5 -21 -17 1 -42 29 -44 51 -3 24 -24 48 -42 49 -6
0 -5 -5 2 -12 17 -17 15 -38 -4 -38 -8 0 -13 -4 -10 -9 4 -5 3 -16 0 -25 -5
-13 -8 -13 -25 3 -19 17 -30 84 -16 97 8 9 121 -16 132 -29 12 -14 65 -20 65
-8 0 17 -31 34 -68 38 -59 7 -67 9 -77 15 -6 3 -28 11 -50 18 -78 24 -103 40
-98 61 7 24 -14 26 -21 2 -2 -10 -4 -7 -3 7 2 14 8 24 15 22 10 -2 10 3 2 17
-14 27 -13 51 1 31 9 -13 10 -13 6 0 -2 8 -11 14 -19 14 -12 -1 -14 7 -11 34
3 20 11 42 19 49 8 8 15 22 15 31 1 9 5 4 8 -13 4 -16 6 -45 3 -62z m381 67
c7 -27 -5 -32 -33 -13 -22 16 -23 17 -4 24 29 11 31 11 37 -11z m-215 -34 c-2
-1 -12 -8 -22 -16 -18 -14 -19 -14 -7 8 7 12 17 20 22 16 6 -3 9 -7 7 -8z
m-78 -6 c0 -5 -4 -10 -10 -10 -5 0 -10 5 -10 10 0 6 5 10 10 10 6 0 10 -4 10
-10z m321 -12 c11 -21 11 -22 -4 -9 -10 7 -17 17 -17 22 0 15 9 10 21 -13z
m187 -18 c7 -11 11 -20 9 -20 -2 0 -12 9 -22 20 -10 11 -14 20 -9 20 5 0 15
-9 22 -20z m-408 0 c0 -13 -28 -25 -38 -16 -3 4 0 11 8 16 20 13 30 12 30 0z
m345 -74 c14 -15 24 -30 22 -33 -8 -7 -87 81 -86 97 0 10 6 6 18 -10 11 -14
31 -38 46 -54z m-85 34 c0 -5 -4 -10 -10 -10 -5 0 -10 5 -10 10 0 6 5 10 10
10 6 0 10 -4 10 -10z m-405 -182 c12 -40 11 -69 -2 -80 -15 -12 -15 -12 -30
22 -9 19 -12 21 -12 7 -1 -10 6 -29 15 -42 9 -13 13 -29 9 -35 -3 -5 1 -10 10
-10 8 0 18 7 21 15 8 19 24 19 24 0 0 -26 -32 -80 -62 -104 l-30 -24 7 34 c4
19 12 39 17 46 5 7 5 13 0 17 -6 3 -13 -1 -16 -10 -3 -8 -10 -13 -15 -10 -5 4
-20 -8 -32 -26 l-23 -32 -7 33 c-5 25 -2 38 11 51 13 13 20 15 24 7 2 -7 5 -2
5 11 1 13 7 22 17 22 14 0 16 7 11 40 -3 28 -1 45 9 54 8 8 14 19 14 25 0 20
28 11 35 -11z m481 -39 c19 -22 19 -22 -3 -10 -13 6 -23 16 -23 21 0 15 5 12
26 -11z m-664 -65 c2 -19 0 -34 -4 -34 -4 0 -8 -7 -8 -15 0 -8 -4 -15 -9 -15
-13 0 -22 28 -11 35 5 3 7 11 5 18 -2 7 -6 27 -9 46 -6 33 -6 34 13 17 10 -9
21 -33 23 -52z m-93 29 c-2 -27 29 -93 44 -93 4 0 7 -7 7 -15 0 -8 9 -29 20
-47 11 -18 20 -44 20 -58 0 -14 5 -32 10 -40 8 -12 10 -11 10 8 0 12 6 22 13
22 9 0 13 -14 12 -40 0 -22 -3 -40 -6 -40 -4 0 -23 19 -44 43 -20 23 -49 55
-62 70 -18 20 -27 43 -30 75 -4 58 -10 75 -23 67 -13 -8 -13 -1 4 40 18 42 28
45 25 8z m708 -47 c28 -23 29 -32 6 -40 -10 -3 -24 -9 -30 -12 -8 -4 -15 8
-19 35 -4 23 -11 41 -16 41 -5 0 -6 5 -3 10 7 11 12 8 62 -34z m-267 -16 c0
-5 -2 -10 -4 -10 -3 0 -8 5 -11 10 -3 6 -1 10 4 10 6 0 11 -4 11 -10z m-37
-48 c9 -8 17 -28 17 -44 0 -28 -1 -29 -37 -22 -34 6 -36 6 -30 -17 4 -13 7
-27 7 -31 0 -5 5 -8 11 -8 5 0 7 5 3 12 -4 7 -3 8 5 4 8 -5 10 -22 5 -52 l-6
-43 37 34 c40 39 59 38 49 -2 -8 -32 -34 -64 -46 -57 -5 3 -15 0 -23 -6 -10
-8 -15 -9 -15 -2 0 6 -9 14 -21 17 -15 5 -20 14 -18 33 2 15 0 33 -5 40 -4 7
-3 19 4 27 7 9 8 15 0 20 -5 3 -10 2 -10 -4 0 -5 -9 -12 -19 -16 -11 -3 -22
-16 -24 -28 -3 -15 -5 -12 -6 11 -1 21 -6 32 -16 32 -26 0 -16 40 22 86 32 40
39 44 67 38 17 -3 39 -13 49 -22z m402 7 c5 -5 1 -9 -12 -9 -31 0 -54 11 -47
21 6 10 43 3 59 -12z m-327 -20 c12 -18 11 -20 -5 -17 -10 2 -19 11 -21 21 -5
23 10 21 26 -4z m12 -44 c21 -25 1 -31 -22 -7 -18 18 -19 22 -6 22 8 0 21 -7
28 -15z m-323 -17 c-3 -8 -6 -5 -6 6 -1 11 2 17 5 13 3 -3 4 -12 1 -19z m590
-30 c-3 -7 -5 -2 -5 12 0 14 2 19 5 13 2 -7 2 -19 0 -25z m-137 -4 c0 -8 -5
-12 -10 -9 -6 4 -8 11 -5 16 9 14 15 11 15 -7z m-40 -14 c0 -10 -26 -20 -33
-13 -3 3 -3 11 0 18 5 14 33 9 33 -5z m100 10 c0 -5 -2 -10 -4 -10 -3 0 -8 5
-11 10 -3 6 -1 10 4 10 6 0 11 -4 11 -10z m-515 -20 c-3 -5 -11 -10 -16 -10
-6 0 -7 5 -4 10 3 6 11 10 16 10 6 0 7 -4 4 -10z m576 0 c6 0 7 -5 4 -10 -4
-6 -11 -8 -16 -4 -14 8 -41 -17 -35 -32 3 -8 0 -11 -9 -8 -8 3 -22 -1 -31 -11
-19 -18 -29 -13 -21 10 4 8 16 15 27 15 11 0 20 6 20 13 0 19 22 38 38 32 8
-3 18 -5 23 -5z m-137 -44 c-4 -11 -13 -30 -22 -41 -12 -17 -14 -18 -8 -2 3
10 6 32 6 48 0 21 4 27 15 23 11 -4 13 -13 9 -28z m-542 16 c3 8 12 1 22 -15
10 -15 25 -27 32 -27 8 0 14 -4 14 -10 0 -5 5 -10 10 -10 6 0 10 9 10 20 0 11
5 20 10 20 6 0 10 7 10 15 0 13 2 13 14 3 8 -7 10 -16 5 -19 -6 -3 -7 -13 -3
-22 4 -12 1 -17 -10 -17 -11 0 -16 -9 -16 -27 0 -25 1 -25 19 -9 11 10 25 31
32 48 12 29 13 29 26 12 13 -18 15 -18 33 6 23 29 23 27 10 -19 -11 -38 1 -71
26 -71 10 0 14 -8 12 -22 -3 -21 -9 -23 -75 -25 -40 -1 -73 2 -73 7 0 4 9 19
20 33 29 36 25 48 -5 12 l-24 -30 -13 33 c-7 17 -16 32 -21 32 -5 0 -15 7 -24
16 -9 8 -22 13 -29 10 -8 -3 -14 1 -14 10 0 9 -10 25 -22 35 -23 20 -23 20 -1
10 16 -8 22 -8 25 1z m440 -37 c-4 -22 -25 -33 -23 -12 1 4 1 14 1 22 0 8 6
15 14 15 9 0 12 -8 8 -25z m355 -31 c-3 -3 -12 -4 -19 -1 -8 3 -5 6 6 6 11 1
17 -2 13 -5z m-527 -14 c0 -5 -4 -10 -10 -10 -5 0 -10 5 -10 10 0 6 5 10 10
10 6 0 10 -4 10 -10z m310 -35 c-13 -14 -27 -22 -33 -18 -6 4 -8 -2 -5 -15 8
-28 -8 -29 -17 -2 -3 11 -11 20 -17 20 -5 0 -7 -7 -4 -16 4 -10 2 -14 -6 -11
-7 2 -21 -2 -30 -11 -16 -14 -18 -13 -18 4 0 25 84 77 111 69 13 -4 21 -1 26
11 4 12 8 14 11 5 2 -7 -6 -23 -18 -36z m-141 -21 c-15 -18 -22 -13 -13 10 3
9 10 13 16 10 5 -3 4 -12 -3 -20z m311 10 c0 -8 -4 -12 -10 -9 -5 3 -10 10
-10 16 0 5 5 9 10 9 6 0 10 -7 10 -16z m-407 -36 c7 -19 -22 -70 -35 -62 -7 4
-8 3 -4 -4 4 -7 13 -12 21 -12 8 0 16 -4 19 -9 7 -11 -14 -72 -31 -89 -7 -7
-13 -29 -13 -48 0 -19 -5 -34 -11 -34 -12 0 -2 81 11 90 4 3 4 24 1 48 -6 42
-7 42 -26 27 -11 -9 -14 -14 -7 -10 15 8 11 -66 -7 -132 -15 -55 -20 -54 -14
2 3 24 2 52 -1 62 -7 17 -8 17 -19 -2 -14 -24 -57 -32 -57 -10 0 8 7 15 15 15
8 0 15 5 15 10 0 6 6 10 13 10 7 0 20 16 29 35 13 29 13 35 2 35 -8 0 -14 -10
-14 -24 0 -27 -14 -41 -30 -31 -6 4 -3 16 7 31 13 20 14 27 4 34 -10 6 -11 9
-1 15 9 5 4 12 -16 21 l-29 12 42 1 c37 1 42 -2 45 -24 4 -36 20 -35 38 0 23
44 30 55 40 55 4 0 10 -6 13 -12z m-507 -35 c-6 -14 -9 -15 -16 -4 -11 19 -1
46 13 32 5 -5 7 -18 3 -28z m794 22 c0 -8 -9 -15 -20 -15 -11 0 -20 7 -20 15
0 8 9 15 20 15 11 0 20 -7 20 -15z m-680 -21 c0 -8 -4 -12 -10 -9 -5 3 -10 10
-10 16 0 5 5 9 10 9 6 0 10 -7 10 -16z m210 6 c0 -5 -6 -10 -14 -10 -8 0 -18
5 -21 10 -3 6 3 10 14 10 12 0 21 -4 21 -10z m-170 -4 c0 -3 -4 -8 -10 -11 -5
-3 -10 -1 -10 4 0 6 5 11 10 11 6 0 10 -2 10 -4z m407 -11 c3 -9 3 -19 -1 -22
-7 -7 -36 16 -36 28 0 15 30 10 37 -6z m57 -1 c10 -27 7 -34 -19 -34 -23 0
-24 2 -13 25 13 29 23 32 32 9z m61 6 c3 -5 12 -7 20 -3 10 3 15 -2 15 -16 0
-12 5 -21 10 -21 6 0 10 5 10 10 0 12 37 14 44 2 9 -15 -9 -28 -36 -27 -16 0
-28 3 -28 7 0 4 -13 14 -30 23 -16 9 -30 20 -30 25 0 13 17 13 25 0z m148 -39
c-2 -9 -13 -17 -24 -18 -25 -2 -25 17 0 24 13 3 18 11 14 21 -4 13 -3 14 5 3
5 -7 8 -21 5 -30z m-798 9 c-3 -5 -11 -10 -16 -10 -6 0 -7 5 -4 10 3 6 11 10
16 10 6 0 7 -4 4 -10z m65 -19 c0 -10 -7 -18 -15 -18 -9 0 -14 9 -13 23 2 26
28 21 28 -5z m40 19 c0 -5 -5 -10 -11 -10 -5 0 -7 5 -4 10 3 6 8 10 11 10 2 0
4 -4 4 -10z m30 -10 c0 -5 -5 -10 -11 -10 -5 0 -7 5 -4 10 3 6 8 10 11 10 2 0
4 -4 4 -10z m45 -19 c-6 -21 -25 -29 -25 -11 0 6 5 10 10 10 6 0 10 8 10 17 0
9 3 14 6 10 3 -3 3 -15 -1 -26z m115 19 c0 -5 -4 -10 -10 -10 -5 0 -10 5 -10
10 0 6 5 10 10 10 6 0 10 -4 10 -10z m-279 -23 c-10 -9 -11 -8 -5 6 3 10 9 15
12 12 3 -3 0 -11 -7 -18z m-51 -8 c0 -5 -7 -9 -15 -9 -15 0 -20 12 -9 23 8 8
24 -1 24 -14z m140 13 c0 -5 -7 -17 -15 -28 -15 -19 -20 -8 -9 20 6 17 24 22
24 8z m120 -7 c-7 -9 -15 -13 -17 -11 -7 7 7 26 19 26 6 0 6 -6 -2 -15z m315
-3 c-3 -3 -11 0 -18 7 -9 10 -8 11 6 5 10 -3 15 -9 12 -12z m25 -17 c-7 -8
-10 -24 -7 -35 6 -24 -4 -32 -20 -15 -9 9 -7 20 8 45 11 18 23 30 26 26 3 -3
0 -12 -7 -21z m-519 -18 c-10 -9 -11 -8 -5 6 3 10 9 15 12 12 3 -3 0 -11 -7
-18z m105 -43 c-4 -13 -11 -24 -17 -24 -7 0 -9 9 -5 23 4 12 9 29 11 37 6 25
7 26 12 7 3 -10 2 -29 -1 -43z m684 52 c0 -3 -4 -8 -10 -11 -5 -3 -10 -1 -10
4 0 6 5 11 10 11 6 0 10 -2 10 -4z m-610 -48 c0 -33 -33 -88 -45 -76 -4 3 1
21 11 40 10 18 19 38 19 43 4 21 5 25 10 25 3 0 5 -15 5 -32z m40 -22 c0 -19
-9 -44 -19 -57 -24 -30 -39 -19 -17 13 9 12 16 37 16 56 0 20 4 31 10 27 6 -3
10 -21 10 -39z m-270 11 c0 -1 -4 -17 -9 -35 -9 -29 -8 -31 9 -22 10 6 27 10
37 10 16 -1 15 -3 -6 -20 -29 -25 -48 -25 -56 -1 -7 23 4 71 16 71 5 0 9 -1 9
-3z m-263 -29 c-3 -8 -6 -5 -6 6 -1 11 2 17 5 13 3 -3 4 -12 1 -19z m389 2
c21 0 16 -13 -13 -34 l-26 -19 6 24 c4 13 7 31 8 39 0 10 2 11 6 3 2 -7 11
-13 19 -13z m444 -35 c-8 -9 -10 -28 -5 -51 5 -28 3 -35 -7 -31 -23 8 -11 97
13 97 8 0 8 -4 -1 -15z m-680 -16 c0 -6 -4 -7 -10 -4 -5 3 -10 11 -10 16 0 6
5 7 10 4 6 -3 10 -11 10 -16z m60 -29 c0 -27 -35 -3 -38 25 l-4 30 21 -22 c12
-12 21 -27 21 -33z m195 -11 c-3 -28 -7 -55 -10 -60 -9 -14 -26 -11 -23 5 2 8
-5 21 -16 29 -23 17 -13 57 15 57 10 0 19 5 19 10 0 6 4 10 9 10 6 0 8 -23 6
-51z m215 36 c0 -8 -7 -15 -15 -15 -8 0 -15 7 -15 15 0 8 7 15 15 15 8 0 15
-7 15 -15z m240 -77 c-42 -39 -66 -52 -37 -20 10 10 17 28 17 40 0 15 6 22 19
22 10 0 22 10 26 23 l8 22 4 -24 c4 -19 -4 -33 -37 -63z m-200 9 c0 -40 -5
-60 -20 -77 -21 -24 -26 -45 -11 -54 14 -9 23 -104 11 -125 -7 -13 -7 -22 0
-26 13 -8 13 -55 0 -55 -5 0 -14 -15 -19 -32 -9 -32 -10 -31 -9 15 1 27 6 51
11 54 5 3 4 9 -3 13 -9 5 -9 17 0 49 8 29 8 46 1 55 -6 7 -7 22 -4 35 5 19 2
22 -18 19 -34 -5 -38 28 -5 43 36 17 36 59 1 59 -29 0 -36 30 -7 31 13 0 14 2
2 6 -8 4 -21 12 -28 20 -11 11 -11 13 2 13 9 0 16 -4 16 -9 0 -4 11 -6 25 -3
14 2 25 8 25 13 0 5 7 9 15 9 11 0 15 -13 15 -53z m34 7 c-1 -25 -5 -48 -8
-51 -8 -8 -19 65 -12 82 12 31 23 13 20 -31z m76 26 c0 -5 -5 -10 -11 -10 -5
0 -7 5 -4 10 3 6 8 10 11 10 2 0 4 -4 4 -10z m-580 -41 c-6 -10 -17 -19 -25
-19 -19 0 -19 9 1 31 21 23 38 14 24 -12z m-117 -14 c-3 -9 -8 -14 -10 -11 -3
3 -2 9 2 15 9 16 15 13 8 -4z m247 0 c0 -8 -4 -15 -10 -15 -5 0 -7 7 -4 15 4
8 8 15 10 15 2 0 4 -7 4 -15z m-55 -41 c-28 -24 -45 -30 -45 -16 1 12 24 38
40 44 29 10 32 -5 5 -28z m202 14 c-3 -8 -6 -5 -6 6 -1 11 2 17 5 13 3 -3 4
-12 1 -19z m89 6 c-5 -12 -1 -14 15 -9 29 10 20 -15 -9 -26 -19 -7 -22 -5 -22
15 0 21 7 36 18 36 2 0 1 -7 -2 -16z m-178 -39 c-3 -3 -13 7 -23 22 l-17 28
23 -22 c12 -12 20 -25 17 -28z m142 15 c0 -5 -4 -10 -10 -10 -5 0 -10 5 -10
10 0 6 5 10 10 10 6 0 10 -4 10 -10z m-340 -10 c0 -5 -4 -10 -9 -10 -6 0 -13
5 -16 10 -3 6 1 10 9 10 9 0 16 -4 16 -10z m290 0 c0 -5 -2 -10 -4 -10 -3 0
-8 5 -11 10 -3 6 -1 10 4 10 6 0 11 -4 11 -10z m207 -22 c-3 -7 -5 -2 -5 12 0
14 2 19 5 13 2 -7 2 -19 0 -25z m-217 -8 c0 -5 -8 -10 -17 -10 -15 0 -16 2 -3
10 19 12 20 12 20 0z m576 -18 c1 -7 0 -8 -2 -3 -3 6 -12 7 -21 4 -11 -4 -14
-3 -9 6 9 14 29 10 32 -7z m-1289 -24 c-3 -8 -6 -5 -6 6 -1 11 2 17 5 13 3 -3
4 -12 1 -19z m1238 12 c3 -5 1 -10 -4 -10 -6 0 -11 5 -11 10 0 6 2 10 4 10 3
0 8 -4 11 -10z m-828 -60 c-10 -52 -27 -59 -27 -10 0 37 9 60 25 60 9 0 10
-11 2 -50z m287 14 c-5 -27 -4 -35 5 -30 6 4 11 13 11 21 0 22 17 26 23 5 3
-11 -3 -29 -14 -41 -13 -15 -16 -25 -8 -29 7 -5 4 -10 -7 -14 -11 -4 -20 -2
-22 3 -2 6 -10 11 -18 11 -31 0 2 108 34 110 2 0 0 -16 -4 -36z m-257 -21 c-3
-10 -5 -4 -5 12 0 17 2 24 5 18 2 -7 2 -21 0 -30z m390 9 c-10 -10 -17 -26
-17 -35 0 -23 -17 -22 -17 1 0 18 37 65 45 57 3 -3 -2 -13 -11 -23z m-971 -8
c-4 -9 -9 -15 -11 -12 -3 3 -3 13 1 22 4 9 9 15 11 12 3 -3 3 -13 -1 -22z
m734 -23 c16 -39 10 -85 -12 -89 -14 -3 -18 3 -18 23 0 17 4 24 11 19 12 -7 9
23 -6 59 -4 9 -3 17 3 17 5 0 15 -13 22 -29z m-253 -3 c-3 -8 -6 -5 -6 6 -1
11 2 17 5 13 3 -3 4 -12 1 -19z m683 2 c0 -5 -4 -10 -10 -10 -5 0 -10 5 -10
10 0 6 5 10 10 10 6 0 10 -4 10 -10z m-1054 -26 c-4 -9 -9 -15 -11 -12 -3 3
-3 13 1 22 4 9 9 15 11 12 3 -3 3 -13 -1 -22z m460 -20 c-4 -9 -9 -15 -11 -12
-3 3 -3 13 1 22 4 9 9 15 11 12 3 -3 3 -13 -1 -22z m691 6 c-1 -22 -17 -28
-17 -7 0 12 9 27 16 27 2 0 2 -9 1 -20z m-782 -32 c-1 -18 -6 -32 -11 -30 -5
1 -9 7 -8 12 1 6 2 19 3 30 0 11 5 20 10 20 5 0 8 -15 6 -32z m-393 -7 c-4
-12 -12 -21 -17 -19 -19 7 -77 -139 -115 -291 -8 -31 -15 -40 -22 -33 -8 8 3
54 37 159 40 124 54 153 83 181 38 36 47 37 34 3z m179 -30 c-10 -30 -17 -42
-19 -31 -3 16 23 80 32 80 1 0 -5 -22 -13 -49z m179 29 c0 -30 -21 -122 -27
-116 -8 7 -14 116 -7 127 10 17 34 9 34 -11z m823 -11 c-8 -8 -13 -7 -18 2 -5
8 -4 10 3 5 7 -4 12 -2 12 5 0 7 3 9 7 6 4 -4 2 -12 -4 -18z m-1327 -36 c-11
-11 -17 4 -9 23 7 18 8 18 11 1 2 -10 1 -21 -2 -24z m338 -37 c-10 -36 -19
-64 -22 -61 -3 2 3 34 13 70 23 86 30 78 9 -9z m237 37 c-10 -17 -10 -16 -11
3 0 23 13 41 18 25 2 -6 -1 -18 -7 -28z m359 33 c0 -3 -4 -8 -10 -11 -5 -3
-10 -1 -10 4 0 6 5 11 10 11 6 0 10 -2 10 -4z m-146 -22 c9 -3 16 -15 16 -25
0 -10 4 -19 10 -19 5 0 -1 -10 -13 -23 -12 -13 -25 -22 -29 -20 -3 2 -9 -5
-11 -14 -3 -10 -5 -1 -6 20 -1 27 3 36 11 31 8 -5 9 2 5 24 -7 34 -7 35 17 26z
m313 -41 c-3 -10 -5 -4 -5 12 0 17 2 24 5 18 2 -7 2 -21 0 -30z m-487 -13 l-8
-35 -1 31 c-1 17 2 34 6 37 11 12 12 3 3 -33z m554 13 c17 -21 17 -21 -3 -16
-13 3 -21 13 -21 26 0 11 1 18 3 16 1 -2 10 -14 21 -26z m-603 -36 c-8 -8 -11
-7 -11 4 0 20 13 34 18 19 3 -7 -1 -17 -7 -23z m-288 -50 c-15 -36 -28 -65
-29 -64 -6 6 20 93 34 115 24 38 22 20 -5 -51z m636 28 c0 -5 -4 -3 -9 5 -5 8
-9 22 -9 30 0 16 17 -16 18 -35z m-953 -11 c-3 -8 -10 -14 -16 -14 -7 0 -8 5
-3 13 4 6 8 15 9 20 1 4 3 13 4 20 1 6 4 4 7 -6 3 -10 2 -25 -1 -33z m1241
-10 c1 -19 0 -22 -4 -9 -3 11 -14 28 -24 38 -26 24 -24 33 4 15 13 -9 23 -27
24 -44z m-380 24 c-3 -8 -6 -5 -6 6 -1 11 2 17 5 13 3 -3 4 -12 1 -19z m-260
-20 c-3 -8 -6 -5 -6 6 -1 11 2 17 5 13 3 -3 4 -12 1 -19z m50 0 c-3 -8 -6 -5
-6 6 -1 11 2 17 5 13 3 -3 4 -12 1 -19z m85 -18 c21 -23 27 -36 22 -55 -3 -14
-10 -22 -15 -19 -5 3 -9 -2 -9 -10 0 -9 -4 -16 -10 -16 -5 0 -10 -9 -10 -20 0
-11 -5 -20 -11 -20 -5 0 -8 4 -4 9 3 5 0 13 -6 17 -8 5 -7 9 2 14 9 6 10 12 2
22 -21 25 -18 108 4 108 3 0 19 -14 35 -30z m138 -1 c0 -5 -4 -9 -10 -9 -5 0
-10 7 -10 16 0 8 5 12 10 9 6 -3 10 -10 10 -16z m-364 -26 c-10 -10 -19 5 -10
18 6 11 8 11 12 0 2 -7 1 -15 -2 -18z m291 -20 c-3 -10 -5 -4 -5 12 0 17 2 24
5 18 2 -7 2 -21 0 -30z m-850 -21 c-8 -9 -23 -35 -32 -57 -10 -22 -19 -35 -22
-28 -4 11 29 85 50 112 8 9 12 10 15 2 2 -7 -3 -20 -11 -29z m703 34 c0 -3 -4
-8 -10 -11 -5 -3 -10 -1 -10 4 0 6 5 11 10 11 6 0 10 -2 10 -4z m260 -29 c0
-5 -4 -5 -10 -2 -5 3 -10 14 -10 23 0 15 2 15 10 2 5 -8 10 -19 10 -23z m2
-128 c-5 -49 -22 -41 -20 9 2 20 -1 53 -5 72 l-8 35 18 -39 c11 -23 17 -54 15
-77z m-967 29 c-23 -46 -25 -49 -19 -18 4 19 13 45 22 58 26 40 25 16 -3 -40z
m46 -24 c-17 -37 -31 -72 -31 -80 0 -7 -5 -16 -11 -20 -18 -11 0 54 35 124 40
83 47 61 7 -24z m276 34 c-3 -7 -5 -2 -5 12 0 14 2 19 5 13 2 -7 2 -19 0 -25z
m480 10 c-3 -8 -6 -5 -6 6 -1 11 2 17 5 13 3 -3 4 -12 1 -19z m-720 -85 c-3
-10 -5 -4 -5 12 0 17 2 24 5 18 2 -7 2 -21 0 -30z m-138 -27 c-12 -26 -20 -31
-32 -19 -4 3 3 17 15 30 26 28 33 24 17 -11z m22 -7 c-6 -16 -10 -18 -10 -7
-1 22 12 55 16 42 2 -6 -1 -22 -6 -35z m546 3 c-10 -10 -18 -30 -19 -45 -1
-15 -6 -23 -11 -18 -11 11 21 81 36 81 5 0 3 -8 -6 -18z m723 -36 c0 -3 -4 -8
-10 -11 -5 -3 -10 -1 -10 4 0 6 5 11 10 11 6 0 10 -2 10 -4z m-310 -16 c0 -5
-2 -10 -4 -10 -3 0 -8 5 -11 10 -3 6 -1 10 4 10 6 0 11 -4 11 -10z"/>
<path d="M5836 8024 c-5 -12 -2 -15 10 -10 8 3 18 6 20 6 2 0 4 5 4 10 0 16
-27 11 -34 -6z"/>
<path d="M5900 7809 c0 -7 3 -9 7 -6 3 4 13 1 21 -6 13 -10 14 -9 10 3 -6 19
-38 26 -38 9z"/>
<path d="M5955 7780 c-3 -5 -1 -10 4 -10 6 0 11 5 11 10 0 6 -2 10 -4 10 -3 0
-8 -4 -11 -10z"/>
<path d="M5960 7750 c0 -5 5 -10 11 -10 5 0 7 5 4 10 -3 6 -8 10 -11 10 -2 0
-4 -4 -4 -10z"/>
<path d="M6393 6303 c-1 -19 1 -22 8 -12 11 17 12 39 2 39 -5 0 -9 -12 -10
-27z"/>
<path d="M6830 6236 c0 -2 8 -10 18 -17 15 -13 16 -12 3 4 -13 16 -21 21 -21
13z"/>
<path d="M6765 6130 c-3 -5 -3 -14 0 -20 8 -14 35 -13 35 1 0 6 -7 9 -14 6
-10 -4 -13 -1 -9 9 6 16 -3 19 -12 4z"/>
<path d="M6818 6113 c7 -3 16 -2 19 1 4 3 -2 6 -13 5 -11 0 -14 -3 -6 -6z"/>
<path d="M6770 6080 c0 -5 5 -10 11 -10 5 0 7 5 4 10 -3 6 -8 10 -11 10 -2 0
-4 -4 -4 -10z"/>
<path d="M6408 5966 c-14 -10 -12 -12 17 -12 19 0 33 0 32 1 -1 0 -9 6 -17 12
-11 9 -19 8 -32 -1z"/>
<path d="M6363 5932 c-7 -5 -14 -20 -15 -34 -2 -23 -5 -25 -23 -16 -18 10 -19
10 -6 -5 12 -15 10 -17 -22 -17 -26 0 -44 -8 -62 -26 -18 -18 -34 -25 -50 -22
-14 3 -26 0 -29 -8 -7 -19 -26 -18 -26 1 0 21 -13 19 -28 -6 -9 -14 -19 -18
-33 -14 -11 4 -26 2 -34 -5 -7 -6 -22 -10 -32 -8 -10 2 -17 -2 -15 -9 1 -7 -2
-13 -8 -13 -6 0 -10 5 -10 10 0 17 -20 11 -27 -7 -4 -10 -14 -24 -22 -31 -13
-10 -12 -11 10 -3 24 9 26 7 21 -15 -3 -17 0 -24 11 -24 9 0 19 5 22 10 4 6
10 8 14 6 15 -10 91 -14 97 -5 3 5 16 9 30 9 14 0 27 7 31 16 5 13 7 13 15 2
7 -10 11 -10 22 5 8 10 27 17 46 17 19 0 41 7 51 16 9 8 32 18 49 21 18 2 42
13 53 24 12 11 26 18 31 16 11 -4 56 40 56 55 0 5 -9 6 -20 3 -24 -8 -25 -2
-4 20 9 9 13 19 9 23 -4 4 -10 1 -12 -5 -3 -7 -11 -13 -18 -13 -8 0 -16 -9
-20 -19 -6 -20 -6 -20 -27 1 -17 17 -19 24 -9 39 12 20 5 24 -16 11z"/>
<path d="M6480 5915 c0 -18 19 -40 26 -32 4 4 0 15 -9 24 -9 10 -17 13 -17 8z"/>
<path d="M6535 5890 c-3 -5 -2 -10 4 -10 5 0 13 5 16 10 3 6 2 10 -4 10 -5 0
-13 -4 -16 -10z"/>
<path d="M6220 5860 c-8 -5 -12 -12 -9 -15 4 -3 12 1 19 10 14 17 11 19 -10 5z"/>
<path d="M6543 5794 c-15 -16 -16 -24 -4 -24 8 0 24 30 19 35 -2 2 -9 -3 -15
-11z"/>
<path d="M5872 5710 c0 -14 2 -19 5 -12 2 6 2 18 0 25 -3 6 -5 1 -5 -13z"/>
<path d="M4210 5710 c0 -5 7 -10 16 -10 8 0 12 5 9 10 -3 6 -10 10 -16 10 -5
0 -9 -4 -9 -10z"/>
<path d="M4380 5700 c0 -5 5 -10 10 -10 6 0 10 5 10 10 0 6 -4 10 -10 10 -5 0
-10 -4 -10 -10z"/>
<path d="M3900 5670 c0 -5 7 -10 15 -10 8 0 15 5 15 10 0 6 -7 10 -15 10 -8 0
-15 -4 -15 -10z"/>
<path d="M3965 5661 c-3 -5 -1 -12 5 -16 5 -3 10 1 10 9 0 18 -6 21 -15 7z"/>
<path d="M4698 5643 c7 -3 16 -2 19 1 4 3 -2 6 -13 5 -11 0 -14 -3 -6 -6z"/>
<path d="M3836 5625 c4 -8 11 -15 16 -15 6 0 5 6 -2 15 -7 8 -14 15 -16 15 -2
0 -1 -7 2 -15z"/>
<path d="M4075 5630 c3 -5 11 -10 16 -10 6 0 7 5 4 10 -3 6 -11 10 -16 10 -6
0 -7 -4 -4 -10z"/>
<path d="M4150 5620 c0 -5 5 -10 10 -10 6 0 10 5 10 10 0 6 -4 10 -10 10 -5 0
-10 -4 -10 -10z"/>
<path d="M3986 5591 c-15 -16 -22 -18 -33 -10 -10 9 -13 6 -13 -13 0 -21 5
-25 29 -25 19 0 27 5 24 13 -2 6 0 15 6 19 6 3 11 1 11 -6 0 -7 2 -10 5 -7 3
3 2 15 -3 27 l-8 22 -18 -20z"/>
<path d="M5776 5585 c-11 -8 -17 -17 -14 -20 2 -3 13 4 23 15 21 23 18 25 -9
5z"/>
<path d="M5625 5541 c-3 -5 -1 -12 5 -16 5 -3 10 1 10 9 0 18 -6 21 -15 7z"/>
<path d="M5478 5473 c7 -3 16 -2 19 1 4 3 -2 6 -13 5 -11 0 -14 -3 -6 -6z"/>
<path d="M5192 5448 c5 -15 28 -23 28 -10 0 5 -7 13 -16 16 -10 4 -14 1 -12
-6z"/>
<path d="M4960 5350 c0 -13 18 -22 24 -11 3 5 -1 11 -9 15 -8 3 -15 1 -15 -4z"/>
<path d="M3565 5900 c-3 -5 -1 -10 4 -10 6 0 11 5 11 10 0 6 -2 10 -4 10 -3 0
-8 -4 -11 -10z"/>
<path d="M3316 5333 c-6 -14 -5 -15 5 -6 7 7 10 15 7 18 -3 3 -9 -2 -12 -12z"/>
<path d="M3265 5239 c-9 -14 -2 -20 14 -10 8 6 9 11 3 15 -6 3 -14 1 -17 -5z"/>
<path d="M3065 5110 c-3 -5 -1 -10 4 -10 6 0 11 5 11 10 0 6 -2 10 -4 10 -3 0
-8 -4 -11 -10z"/>
<path d="M3840 2530 c0 -5 5 -10 10 -10 6 0 10 5 10 10 0 6 -4 10 -10 10 -5 0
-10 -4 -10 -10z"/>
<path d="M3918 2493 c7 -3 16 -2 19 1 4 3 -2 6 -13 5 -11 0 -14 -3 -6 -6z"/>
<path d="M3747 2473 c-12 -12 -7 -22 8 -17 8 4 15 10 15 15 0 11 -14 12 -23 2z"/>
<path d="M3865 2440 c-16 -7 -17 -9 -3 -9 9 -1 20 4 23 9 7 11 7 11 -20 0z"/>
<path d="M3750 2360 c0 -5 -6 -7 -14 -4 -8 3 -17 1 -20 -4 -3 -5 5 -12 19 -14
16 -4 25 -1 25 8 0 7 6 15 13 17 7 3 5 6 -5 6 -10 1 -18 -3 -18 -9z"/>
<path d="M3858 2353 c7 -3 16 -2 19 1 4 3 -2 6 -13 5 -11 0 -14 -3 -6 -6z"/>
<path d="M3725 2169 c-4 -6 -5 -12 -2 -15 2 -3 7 2 10 11 7 17 1 20 -8 4z"/>
<path d="M3840 2061 c0 -6 4 -13 10 -16 6 -3 7 1 4 9 -7 18 -14 21 -14 7z"/>
<path d="M3890 2006 c0 -2 8 -10 18 -17 15 -13 16 -12 3 4 -13 16 -21 21 -21
13z"/>
<path d="M3939 1946 c14 -15 26 -26 28 -26 9 0 -24 40 -37 45 -8 4 -4 -5 9
-19z"/>
<path d="M3568 1466 c-10 -7 -15 -16 -12 -19 7 -7 44 14 44 25 0 12 -13 9 -32
-6z"/>
<path d="M3600 1069 c0 -5 5 -7 10 -4 6 3 10 8 10 11 0 2 -4 4 -10 4 -5 0 -10
-5 -10 -11z"/>
<path d="M4805 9279 c-240 -18 -285 -22 -350 -30 -38 -5 -79 -11 -90 -13 -11
-2 -45 -7 -75 -10 -269 -35 -392 -54 -423 -65 -14 -5 -27 -7 -30 -5 -5 5 -105
-16 -177 -37 -19 -6 -42 -12 -50 -13 -60 -13 -79 -20 -74 -28 3 -5 -5 -6 -19
-3 -14 4 -28 2 -31 -4 -4 -6 -16 -11 -27 -11 -13 0 -18 -4 -13 -12 4 -6 3 -8
-4 -4 -11 7 -40 -4 -87 -33 -16 -10 -35 -16 -41 -14 -15 5 -44 -24 -44 -44 0
-9 -6 -13 -14 -10 -20 8 -27 -3 -16 -23 12 -22 77 -37 197 -46 l91 -6 69 53
c163 125 458 213 807 240 167 13 302 2 453 -38 l62 -16 156 48 c86 27 163 54
172 60 15 11 15 14 -4 34 -16 17 -33 22 -84 24 -35 1 -69 6 -76 10 -13 8 -137
7 -278 -4z"/>
<path d="M4308 8973 c7 -3 16 -2 19 1 4 3 -2 6 -13 5 -11 0 -14 -3 -6 -6z"/>
<path d="M4208 8953 c7 -3 16 -2 19 1 4 3 -2 6 -13 5 -11 0 -14 -3 -6 -6z"/>
<path d="M3917 8909 c7 -7 15 -10 18 -7 3 3 -2 9 -12 12 -14 6 -15 5 -6 -5z"/>
<path d="M3035 7853 c-27 -20 -324 -169 -387 -194 -97 -38 -289 -162 -302
-195 -3 -7 -2 -14 2 -14 5 0 13 -10 18 -22 6 -13 9 -17 7 -10 -5 21 7 34 21
23 15 -13 76 -24 76 -14 0 5 -15 15 -32 23 l-33 15 50 5 c28 3 56 9 64 14 10
6 18 3 28 -9 10 -14 13 -15 14 -4 0 8 4 6 9 -6 8 -18 9 -18 9 -2 1 14 6 17 23
11 20 -6 21 -5 9 10 -8 9 -9 16 -3 16 6 0 15 -8 21 -17 8 -16 11 -15 31 7 19
23 21 23 15 4 -5 -18 -1 -21 23 -20 19 1 28 5 25 14 -3 8 4 12 22 12 24 0 26
2 14 17 -13 15 -11 16 14 9 19 -4 27 -3 27 6 0 10 2 10 9 -1 11 -16 70 -6 78
14 2 8 11 11 19 8 9 -3 14 1 14 11 0 9 6 16 13 15 30 -4 49 2 44 14 -6 16 35
18 46 3 4 -7 10 -6 17 4 9 13 11 13 20 0 8 -11 10 26 8 123 -1 76 -4 140 -8
142 -3 2 -14 -4 -25 -12z m-125 -257 c0 -3 -4 -8 -10 -11 -5 -3 -10 -1 -10 4
0 6 5 11 10 11 6 0 10 -2 10 -4z m-515 -116 c3 -5 1 -10 -4 -10 -6 0 -11 5
-11 10 0 6 2 10 4 10 3 0 8 -4 11 -10z"/>
<path d="M3105 7490 c3 -5 11 -10 16 -10 6 0 7 5 4 10 -3 6 -11 10 -16 10 -6
0 -7 -4 -4 -10z"/>
<path d="M3310 6570 c0 -5 7 -10 15 -10 8 0 15 5 15 10 0 6 -7 10 -15 10 -8 0
-15 -4 -15 -10z"/>
<path d="M3295 6540 c-3 -5 -1 -10 5 -10 6 0 8 -6 4 -12 -4 -7 -3 -9 1 -5 12
10 15 37 5 37 -5 0 -12 -4 -15 -10z"/>
<path d="M3240 6473 c0 -7 -4 -13 -8 -13 -4 0 -14 6 -21 13 -10 10 -11 9 -6
-5 4 -10 12 -19 19 -20 6 0 16 -2 21 -2 6 -1 20 -7 33 -14 18 -10 22 -10 22 0
0 7 3 23 6 34 5 19 2 21 -30 20 -21 -1 -36 -6 -36 -13z m47 -25 c-3 -8 -6 -5
-6 6 -1 11 2 17 5 13 3 -3 4 -12 1 -19z"/>
<path d="M6780 6470 c-8 -5 -28 -10 -45 -11 l-30 -2 30 -4 c16 -3 48 -21 70
-41 85 -76 101 -88 114 -84 8 3 11 0 8 -5 -13 -21 192 -232 255 -263 52 -25
48 -10 -11 42 -52 46 -91 111 -91 153 0 34 -31 62 -127 113 -43 24 -95 58
-115 77 -41 39 -38 38 -58 25z m234 -199 c17 -14 18 -14 11 -1 -6 11 -5 12 4
4 6 -6 9 -18 5 -27 -7 -19 -24 -23 -24 -6 0 5 -4 8 -9 4 -6 -3 -15 5 -22 17
-7 13 -18 27 -25 31 -8 4 -14 12 -14 18 0 10 38 -11 74 -40z"/>
<path d="M6785 6350 c3 -5 8 -10 11 -10 2 0 4 5 4 10 0 6 -5 10 -11 10 -5 0
-7 -4 -4 -10z"/>
<path d="M7010 6146 c0 -2 8 -10 18 -17 15 -13 16 -12 3 4 -13 16 -21 21 -21
13z"/>
<path d="M2481 5924 c-5 -22 -14 -57 -20 -79 -12 -45 -12 -115 0 -115 4 0 10
35 14 78 4 42 11 92 16 111 4 19 7 37 4 39 -2 2 -8 -13 -14 -34z"/>
<path d="M2591 5944 c0 -11 3 -14 6 -6 3 7 2 16 -1 19 -3 4 -6 -2 -5 -13z"/>
<path d="M2626 5918 c-3 -17 -3 -35 1 -39 5 -4 9 10 10 32 3 47 -2 51 -11 7z"/>
<path d="M2371 5916 c-6 -16 -10 -34 -8 -40 3 -6 10 2 16 18 6 16 10 34 8 40
-3 6 -10 -2 -16 -18z"/>
<path d="M2536 5884 c-4 -14 -5 -28 -3 -31 3 -2 8 8 11 23 4 14 5 28 3 31 -3
2 -8 -8 -11 -23z"/>
<path d="M2546 5828 c-13 -51 -7 -103 15 -116 18 -12 20 -11 15 5 -3 10 -8 42
-11 72 -6 63 -10 71 -19 39z"/>
<path d="M2308 5728 c-13 -40 -28 -82 -32 -93 -5 -14 -3 -14 5 3 7 12 17 22
23 22 10 0 40 129 32 137 -2 2 -14 -30 -28 -69z"/>
<path d="M2632 5755 c0 -16 2 -22 5 -12 2 9 2 23 0 30 -3 6 -5 -1 -5 -18z"/>
<path d="M2510 5708 c0 -46 6 -79 21 -109 17 -37 19 -39 15 -14 -3 17 -11 64
-17 105 -6 41 -13 77 -15 79 -2 2 -4 -25 -4 -61z"/>
<path d="M2702 5740 c0 -14 2 -19 5 -12 2 6 2 18 0 25 -3 6 -5 1 -5 -13z"/>
<path d="M2555 5649 c-4 -6 -5 -13 -2 -16 7 -7 27 6 27 18 0 12 -17 12 -25 -2z"/>
<path d="M2660 5645 c0 -8 4 -15 10 -15 5 0 7 7 4 15 -4 8 -8 15 -10 15 -2 0
-4 -7 -4 -15z"/>
<path d="M2461 5613 c-1 -23 4 -33 14 -33 12 0 13 5 7 18 -5 9 -12 24 -15 32
-3 8 -6 0 -6 -17z"/>
<path d="M2354 5530 c0 -56 6 -104 11 -108 16 -12 17 -35 1 -29 -8 3 -17 -1
-20 -9 -8 -20 -6 -130 3 -169 6 -28 7 -29 19 -10 11 18 12 18 10 -10 -2 -18
-8 -29 -15 -27 -20 3 -15 -6 8 -19 17 -9 23 -8 30 2 14 23 20 3 8 -30 -8 -24
-8 -35 1 -46 7 -8 8 -15 4 -15 -5 0 -17 12 -26 28 -10 15 -18 21 -18 15 0 -20
33 -53 52 -53 10 0 18 -7 18 -15 0 -8 6 -12 14 -9 21 8 32 -17 12 -28 -24 -13
-20 -31 6 -23 15 5 20 4 16 -6 -9 -25 26 -74 53 -74 26 0 28 -19 3 -46 -12
-13 -10 -15 15 -13 22 1 28 -2 24 -12 -3 -8 0 -21 7 -29 6 -8 8 -20 4 -26 -4
-7 -3 -9 3 -6 14 9 68 -97 60 -117 -3 -8 1 -17 9 -20 13 -5 12 -10 -5 -35 -12
-16 -21 -33 -21 -38 0 -4 5 0 11 10 15 26 25 21 38 -24 9 -28 17 -39 27 -35
10 4 14 -3 14 -29 0 -18 7 -40 15 -49 8 -8 15 -28 15 -45 0 -32 15 -50 23 -29
4 8 6 7 6 -4 1 -9 -5 -19 -11 -22 -7 -3 -4 -4 7 -3 14 1 21 -5 23 -20 2 -13 7
-23 11 -23 11 0 7 36 -6 52 -6 7 -15 31 -19 53 -4 22 -15 51 -25 65 -10 14
-20 44 -21 67 -2 24 -8 43 -14 43 -18 0 -66 107 -72 157 -3 28 -8 40 -13 32
-6 -10 -9 -9 -14 6 -4 11 -11 28 -16 37 -5 10 -9 23 -9 30 0 7 -11 35 -24 63
-62 130 -114 274 -161 445 -9 36 -21 76 -25 90 -5 14 -16 67 -25 118 -10 50
-19 92 -20 92 -2 0 -2 -45 -1 -100z m114 -469 c3 -8 -1 -12 -9 -9 -7 2 -15 10
-17 17 -3 8 1 12 9 9 7 -2 15 -10 17 -17z m77 -141 c3 -5 -1 -10 -10 -10 -9 0
-13 5 -10 10 3 6 8 10 10 10 2 0 7 -4 10 -10z"/>
<path d="M2687 5603 c3 -10 3 -15 -2 -11 -11 10 -36 -18 -41 -49 -3 -14 0 -29
6 -33 6 -4 13 -20 16 -36 9 -52 17 -40 11 18 -4 46 -3 56 9 51 11 -4 14 5 14
36 0 23 -4 41 -10 41 -5 0 -7 -8 -3 -17z"/>
<path d="M7250 5607 c0 -2 14 -16 31 -33 22 -20 28 -23 19 -8 -11 18 -50 50
-50 41z"/>
<path d="M2402 5570 c0 -19 2 -27 5 -17 2 9 2 25 0 35 -3 9 -5 1 -5 -18z"/>
<path d="M2302 5565 c-3 -33 -14 -57 -28 -56 -4 1 -9 -14 -10 -33 0 -23 4 -33
13 -32 27 4 34 24 30 87 -2 35 -4 51 -5 34z m-7 -75 c3 -5 1 -10 -4 -10 -6 0
-11 5 -11 10 0 6 2 10 4 10 3 0 8 -4 11 -10z"/>
<path d="M2702 5490 c0 -19 2 -27 5 -17 2 9 2 25 0 35 -3 9 -5 1 -5 -18z"/>
<path d="M2411 5484 c0 -11 3 -14 6 -6 3 7 2 16 -1 19 -3 4 -6 -2 -5 -13z"/>
<path d="M7361 5483 c7 -12 15 -20 18 -17 3 2 -3 12 -13 22 -17 16 -18 16 -5
-5z"/>
<path d="M2195 5454 c-9 -10 -14 -25 -12 -35 3 -11 0 -16 -7 -13 -12 5 -42
-63 -32 -73 3 -4 6 2 6 11 0 12 5 16 15 12 8 -3 15 -1 15 5 0 6 6 9 14 6 11
-4 12 2 6 29 -4 19 -4 34 1 34 4 0 13 9 19 20 13 25 -2 27 -25 4z m-15 -74 c0
-5 -5 -10 -11 -10 -5 0 -7 5 -4 10 3 6 8 10 11 10 2 0 4 -4 4 -10z"/>
<path d="M2290 5415 c0 -8 5 -15 10 -15 6 0 10 7 10 15 0 8 -4 15 -10 15 -5 0
-10 -7 -10 -15z"/>
<path d="M2705 5420 c-3 -5 -1 -10 4 -10 6 0 11 5 11 10 0 6 -2 10 -4 10 -3 0
-8 -4 -11 -10z"/>
<path d="M2256 5401 c-17 -19 -17 -19 3 -14 12 3 21 12 21 19 0 18 -4 18 -24
-5z"/>
<path d="M2250 5327 c-14 -8 -32 -12 -40 -9 -10 2 -11 1 -4 -5 6 -4 14 -18 18
-30 7 -23 36 -33 36 -13 0 6 4 10 10 10 12 0 3 -136 -12 -163 -12 -23 -20
-119 -9 -113 3 2 7 -17 8 -42 9 -154 35 -242 73 -242 6 0 9 8 6 18 -2 9 -7
136 -11 282 -6 254 -14 320 -39 320 -6 0 -22 -6 -36 -13z m-3 -29 c-3 -8 -6
-5 -6 6 -1 11 2 17 5 13 3 -3 4 -12 1 -19z"/>
<path d="M2511 5144 c0 -11 3 -14 6 -6 3 7 2 16 -1 19 -3 4 -6 -2 -5 -13z"/>
<path d="M2627 5021 c-7 -27 3 -34 19 -13 17 22 17 32 0 32 -7 0 -16 -9 -19
-19z"/>
<path d="M2402 4923 c-6 -2 -10 -9 -6 -14 8 -14 21 -11 28 6 6 15 1 17 -22 8z"/>
<path d="M2378 4875 c2 -14 8 -25 13 -25 10 0 11 12 3 34 -10 25 -22 19 -16
-9z"/>
<path d="M2214 4866 c4 -15 10 -42 13 -58 5 -25 8 -27 15 -14 5 9 6 22 2 28
-5 7 -9 21 -9 31 -1 10 -8 23 -15 30 -10 10 -11 7 -6 -17z"/>
<path d="M2480 4871 c0 -5 -8 -11 -18 -13 -18 -3 -18 -4 0 -23 18 -19 19 -19
12 -1 -5 14 -4 17 4 12 8 -5 12 0 12 13 0 12 -2 21 -5 21 -3 0 -5 -4 -5 -9z"/>
<path d="M2628 4868 c5 -7 12 -22 14 -33 5 -18 6 -19 13 -2 7 18 -9 47 -27 47
-7 0 -7 -4 0 -12z"/>
<path d="M2395 4831 c-3 -5 -1 -12 5 -16 5 -3 10 1 10 9 0 18 -6 21 -15 7z"/>
<path d="M2261 4728 c-8 -15 -11 -35 -7 -44 11 -28 28 -1 24 37 l-4 34 -13
-27z"/>
<path d="M2402 4694 c1 -11 -3 -28 -11 -37 -7 -10 -10 -17 -7 -17 4 0 0 -10
-8 -22 -23 -33 -19 -45 5 -15 12 17 28 26 42 24 17 -2 22 3 22 25 1 15 -1 25
-4 23 -2 -3 -13 5 -23 18 -20 22 -20 22 -16 1z"/>
<path d="M2960 4687 c0 -16 25 -52 37 -52 4 0 26 -17 48 -38 22 -20 44 -37 48
-37 5 0 6 -10 3 -22 -3 -13 -3 -17 0 -10 3 6 15 12 27 12 18 0 16 5 -17 35
-21 19 -42 35 -45 35 -10 0 -56 63 -53 72 1 4 -5 5 -13 2 -8 -4 -15 -1 -15 5
0 6 -4 11 -10 11 -5 0 -10 -6 -10 -13z"/>
<path d="M2316 4615 c-9 -26 -7 -32 5 -12 6 10 9 21 6 23 -2 3 -7 -2 -11 -11z"/>
<path d="M2401 4584 c0 -11 3 -14 6 -6 3 7 2 16 -1 19 -3 4 -6 -2 -5 -13z"/>
<path d="M3007 4563 c-4 -3 -7 -11 -7 -17 0 -6 5 -5 12 2 6 6 9 14 7 17 -3 3
-9 2 -12 -2z"/>
<path d="M2563 4515 c0 -22 2 -30 4 -17 2 12 2 30 0 40 -3 9 -5 -1 -4 -23z"/>
<path d="M2460 4510 c0 -16 5 -30 11 -30 7 0 9 10 7 25 -3 13 0 26 6 29 6 2 3
5 -6 5 -13 1 -18 -7 -18 -29z"/>
<path d="M2780 4534 c0 -5 7 -18 15 -28 8 -11 15 -16 15 -10 0 5 -7 18 -15 28
-8 11 -15 16 -15 10z"/>
<path d="M3020 4516 c0 -2 7 -9 15 -16 13 -11 14 -10 9 4 -5 14 -24 23 -24 12z"/>
<path d="M2335 4470 c3 -5 8 -10 11 -10 2 0 4 5 4 10 0 6 -5 10 -11 10 -5 0
-7 -4 -4 -10z"/>
<path d="M2466 4461 c-4 -7 -5 -15 -2 -18 9 -9 19 4 14 18 -4 11 -6 11 -12 0z"/>
<path d="M2519 4447 c-22 -17 -50 -62 -43 -70 8 -8 34 3 34 15 0 6 7 16 16 23
9 6 15 19 13 27 -3 13 -7 14 -20 5z"/>
<path d="M2436 4383 c2 -28 0 -55 -6 -58 -5 -3 -10 -1 -10 5 0 7 -9 23 -20 37
-11 14 -20 35 -20 47 0 16 -2 18 -9 7 -19 -30 37 -122 69 -114 24 6 25 -5 4
-35 -18 -27 -11 -42 16 -35 30 8 41 34 24 58 -8 10 -14 31 -14 47 0 18 -5 28
-14 28 -9 0 -16 13 -19 33 -2 17 -3 9 -1 -20z m21 -45 c-3 -8 -6 -5 -6 6 -1
11 2 17 5 13 3 -3 4 -12 1 -19z"/>
<path d="M2541 4397 c-1 -5 4 -17 9 -27 6 -10 6 -21 2 -24 -10 -6 -8 -71 2
-102 6 -15 15 -21 36 -20 27 1 28 1 11 26 -13 18 -16 34 -11 58 4 17 5 32 2
32 -3 0 3 9 13 20 10 11 15 23 12 26 -4 4 -9 -1 -13 -10 -9 -23 -39 -20 -52 7
-6 12 -11 18 -11 14z"/>
<path d="M2570 4385 c0 -8 2 -15 4 -15 2 0 6 7 10 15 3 8 1 15 -4 15 -6 0 -10
-7 -10 -15z"/>
<path d="M2630 4355 c0 -5 5 -17 10 -25 5 -8 10 -10 10 -5 0 6 -5 17 -10 25
-5 8 -10 11 -10 5z"/>
<path d="M2605 4313 c4 -10 12 -33 17 -52 7 -24 13 -30 20 -23 8 8 6 18 -6 36
-9 14 -16 32 -16 41 0 8 -5 15 -11 15 -7 0 -8 -7 -4 -17z"/>
<path d="M2660 4300 c0 -5 4 -10 9 -10 6 0 13 5 16 10 3 6 -1 10 -9 10 -9 0
-16 -4 -16 -10z"/>
<path d="M2851 4293 c-1 -27 11 -30 30 -5 13 15 12 16 -3 4 -14 -11 -17 -10
-21 5 -4 14 -5 13 -6 -4z"/>
<path d="M2310 4266 c0 -9 15 -63 34 -119 36 -110 65 -174 66 -145 0 9 10 24
23 33 22 16 22 16 -10 10 -27 -4 -30 -3 -26 15 3 11 9 20 14 20 5 0 9 7 9 15
0 20 -19 19 -27 -1 -4 -12 -8 -11 -17 8 -8 14 -9 25 -3 29 12 9 0 42 -12 35
-5 -3 -11 16 -15 43 -6 47 -36 94 -36 57z"/>
<path d="M2837 4250 c5 -20 3 -22 -15 -18 -12 4 -20 2 -16 -3 7 -13 41 -11 50
2 3 6 -1 18 -9 27 -15 14 -15 13 -10 -8z"/>
<path d="M2497 4233 c-4 -3 -7 -13 -7 -22 1 -13 3 -13 11 2 11 19 8 33 -4 20z"/>
<path d="M2411 4199 c-1 -9 6 -30 14 -45 19 -36 19 -10 0 31 -8 17 -14 23 -14
14z"/>
<path d="M2500 4179 c0 -18 18 -29 38 -22 6 3 12 9 12 15 0 6 -8 7 -17 4 -9
-4 -20 -1 -25 6 -6 10 -8 9 -8 -3z"/>
<path d="M2440 3996 c0 -8 -5 -16 -12 -18 -14 -5 -2 -58 13 -58 6 0 9 7 5 15
-3 9 3 24 15 36 11 11 17 24 14 29 -9 15 -35 12 -35 -4z"/>
<path d="M7773 3977 c-13 -7 -31 -29 -42 -49 l-18 -37 23 15 c25 17 80 84 67
84 -4 -1 -18 -6 -30 -13z"/>
<path d="M2477 3949 c-4 -16 -2 -17 14 -8 23 12 23 15 5 22 -8 3 -16 -2 -19
-14z"/>
<path d="M7530 3954 c18 -23 32 -34 44 -34 13 0 -14 29 -38 42 -20 11 -20 10
-6 -8z"/>
<path d="M7646 3845 c-11 -8 -17 -17 -14 -20 2 -3 13 4 23 15 21 23 18 25 -9
5z"/>
<path d="M2170 3625 c-7 -8 -8 -15 -2 -15 5 0 15 7 22 15 7 8 8 15 2 15 -5 0
-15 -7 -22 -15z"/>
<path d="M2121 3576 c-69 -51 -147 -159 -220 -304 -58 -113 -51 -115 12 -2 60
110 129 203 205 278 56 55 58 68 3 28z"/>
<path d="M2134 3548 l-19 -21 28 18 c28 18 33 25 19 25 -5 0 -17 -10 -28 -22z"/>
<path d="M2062 3418 c-88 -112 -167 -237 -197 -312 -20 -52 -12 -57 18 -9 38
60 223 357 231 371 18 31 -7 7 -52 -50z"/>
<path d="M3000 1200 c0 -11 2 -20 4 -20 2 0 6 9 9 20 3 11 1 20 -4 20 -5 0 -9
-9 -9 -20z"/>
<path d="M3030 1202 c0 -13 -7 -34 -16 -48 -9 -13 -15 -27 -12 -29 2 -3 15 14
27 36 17 30 20 44 12 52 -8 8 -11 5 -11 -11z"/>
<path d="M2869 1169 c-8 -15 -8 -19 0 -15 6 4 11 1 12 -6 0 -12 17 18 18 35 2
15 -19 6 -30 -14z"/>
<path d="M2921 959 c-14 -39 -14 -57 -2 -43 10 10 25 74 18 74 -3 0 -10 -14
-16 -31z"/>
<path d="M2896 875 c-3 -8 -1 -15 4 -15 6 0 10 7 10 15 0 8 -2 15 -4 15 -2 0
-6 -7 -10 -15z"/>
<path d="M2192 113 c-5 -10 -7 -23 -5 -29 2 -7 -8 -21 -22 -32 -14 -11 -25
-26 -25 -33 1 -8 17 4 36 26 19 22 30 41 24 43 -7 3 -5 11 6 23 9 10 12 19 6
19 -6 0 -15 -8 -20 -17z"/>
</g>
</svg>
